<svg xmlns="http://www.w3.org/2000/svg" xmlns:xlink="http://www.w3.org/1999/xlink" width="794" zoomAndPan="magnify" viewBox="0 0 595.5 842.249979" height="1123" preserveAspectRatio="xMidYMid meet" version="1.0"><defs><clipPath id="2e2ae56b97"><path d="M 0.015625 0 L 594.984375 0 L 594.984375 841.5 L 0.015625 841.5 Z M 0.015625 0 " clip-rule="nonzero"/></clipPath><clipPath id="d3942abdd7"><path d="M 0.015625 0 L 594.984375 0 L 594.984375 841.5 L 0.015625 841.5 Z M 0.015625 0 " clip-rule="nonzero"/></clipPath><clipPath id="9f2a96ab0f"><path d="M 70 747.0625 L 113.777344 747.0625 L 113.777344 792 L 70 792 Z M 70 747.0625 " clip-rule="nonzero"/></clipPath><clipPath id="f31ac1c2a0"><path d="M 29.820312 814 L 34 814 L 34 816.777344 L 29.820312 816.777344 Z M 29.820312 814 " clip-rule="nonzero"/></clipPath><clipPath id="e729907fc3"><rect x="0" width="595" y="0" height="842"/></clipPath></defs><g clip-path="url(#2e2ae56b97)"><path fill="#ffffff" d="M 0.015625 0 L 594.984375 0 L 594.984375 841.5 L 0.015625 841.5 Z M 0.015625 0 " fill-opacity="1" fill-rule="nonzero"/><g transform="matrix(1, 0, 0, 1, -0.000000000000000002, 0)"><g clip-path="url(#e729907fc3)"><g clip-path="url(#d3942abdd7)"><path fill="#ffffff" d="M 0.015625 0 L 595.210938 0 L 595.210938 841.816406 L 0.015625 841.816406 Z M 0.015625 0 " fill-opacity="1" fill-rule="nonzero"/></g><g clip-path="url(#9f2a96ab0f)"><path fill="#000000" d="M 78.984375 763.746094 L 77.328125 763.027344 L 75.6875 762.308594 L 75.363281 762.167969 L 75.078125 762.039062 L 74.808594 761.914062 L 74.554688 761.796875 L 74.316406 761.683594 L 74.082031 761.570312 L 73.863281 761.457031 L 73.648438 761.347656 L 73.441406 761.238281 L 73.238281 761.125 L 73.042969 761.015625 L 72.855469 760.90625 L 72.675781 760.796875 L 72.5 760.683594 L 72.328125 760.574219 L 72.164062 760.460938 L 72.09375 760.414062 L 72.027344 760.359375 L 71.957031 760.308594 L 71.894531 760.257812 L 71.828125 760.207031 L 71.769531 760.15625 L 71.710938 760.101562 L 71.652344 760.050781 L 71.597656 760 L 71.546875 759.945312 L 71.496094 759.894531 L 71.449219 759.84375 L 71.40625 759.789062 L 71.363281 759.738281 L 71.324219 759.6875 L 71.289062 759.636719 L 71.253906 759.582031 L 71.222656 759.535156 L 71.195312 759.480469 L 71.167969 759.433594 L 71.144531 759.382812 L 71.105469 759.28125 L 71.089844 759.230469 L 71.074219 759.183594 L 71.066406 759.132812 L 71.050781 759.039062 L 71.046875 758.988281 L 71.046875 758.941406 L 71.054688 758.847656 L 71.058594 758.808594 L 71.066406 758.773438 L 71.074219 758.734375 L 71.085938 758.699219 L 71.101562 758.660156 L 71.113281 758.625 L 71.128906 758.589844 L 71.148438 758.554688 L 71.171875 758.507812 L 71.199219 758.460938 L 71.261719 758.375 L 71.296875 758.335938 L 71.335938 758.292969 L 71.375 758.253906 L 71.417969 758.21875 L 71.464844 758.179688 L 71.511719 758.144531 L 71.5625 758.113281 L 71.613281 758.078125 L 71.667969 758.046875 L 71.726562 758.019531 L 71.789062 757.988281 L 71.914062 757.933594 L 71.984375 757.90625 L 72.125 757.859375 L 72.199219 757.839844 L 72.277344 757.816406 L 72.359375 757.796875 L 72.441406 757.78125 L 72.523438 757.761719 L 72.703125 757.730469 L 72.796875 757.714844 L 72.894531 757.703125 L 72.996094 757.6875 L 73.230469 757.664062 L 73.410156 757.644531 L 73.589844 757.628906 L 74.117188 757.59375 L 74.460938 757.578125 L 74.628906 757.574219 L 74.960938 757.566406 L 75.632812 757.558594 L 76.660156 757.558594 L 77.007812 757.5625 L 77.355469 757.570312 L 77.707031 757.578125 L 78.0625 757.585938 L 78.417969 757.597656 L 78.777344 757.609375 L 79.503906 757.640625 L 79.871094 757.65625 L 80.238281 757.675781 L 80.546875 757.695312 L 80.855469 757.71875 L 81.480469 757.765625 L 81.800781 757.792969 L 82.121094 757.828125 L 82.449219 757.859375 L 82.785156 757.898438 L 83.125 757.9375 L 83.46875 757.980469 L 83.828125 758.027344 L 84.195312 758.078125 L 84.582031 758.132812 L 84.984375 758.191406 L 85.410156 758.253906 L 85.875 758.324219 L 86.324219 758.394531 L 86.722656 758.449219 L 87.09375 758.5 L 87.441406 758.539062 L 87.609375 758.558594 L 87.9375 758.589844 L 88.097656 758.605469 L 88.253906 758.617188 L 88.40625 758.628906 L 88.558594 758.636719 L 88.707031 758.644531 L 88.855469 758.648438 L 89.003906 758.65625 L 89.148438 758.660156 L 89.574219 758.660156 L 89.710938 758.65625 L 89.851562 758.652344 L 89.984375 758.644531 L 90.121094 758.640625 L 90.253906 758.628906 L 90.382812 758.621094 L 90.511719 758.609375 L 90.769531 758.578125 L 90.894531 758.5625 L 91.054688 758.539062 L 91.21875 758.515625 L 91.378906 758.484375 L 91.542969 758.457031 L 91.707031 758.425781 L 91.871094 758.390625 L 92.035156 758.351562 L 92.371094 758.273438 L 92.539062 758.230469 L 92.875 758.136719 L 93.046875 758.089844 L 93.5625 757.925781 L 93.90625 757.808594 L 94.082031 757.746094 L 94.253906 757.679688 L 94.605469 757.546875 L 94.78125 757.476562 L 95.132812 757.328125 L 95.660156 757.09375 L 95.832031 757.007812 L 96.007812 756.925781 L 96.183594 756.839844 L 96.359375 756.75 L 96.742188 756.554688 L 96.933594 756.453125 L 97.507812 756.136719 L 97.699219 756.027344 L 97.886719 755.917969 L 98.269531 755.691406 L 98.457031 755.578125 L 98.648438 755.460938 L 98.839844 755.339844 L 99.214844 755.097656 L 99.40625 754.972656 L 99.59375 754.847656 L 99.785156 754.71875 L 100.160156 754.460938 L 100.347656 754.328125 L 100.910156 753.917969 L 101.472656 753.496094 L 101.660156 753.347656 L 101.84375 753.203125 L 102.21875 752.90625 L 102.402344 752.753906 L 103.167969 752.121094 L 103.546875 751.800781 L 103.929688 751.484375 L 104.304688 751.160156 L 104.683594 750.839844 L 105.433594 750.191406 L 105.710938 749.953125 L 105.984375 749.726562 L 106.25 749.507812 L 106.511719 749.300781 L 106.640625 749.199219 L 106.765625 749.101562 L 106.890625 749.007812 L 107.019531 748.914062 L 107.140625 748.824219 L 107.265625 748.734375 L 107.507812 748.5625 L 107.628906 748.480469 L 107.75 748.402344 L 107.867188 748.324219 L 107.988281 748.25 L 108.105469 748.175781 L 108.21875 748.105469 L 108.335938 748.035156 L 108.449219 747.96875 L 108.675781 747.84375 L 108.789062 747.785156 L 108.898438 747.726562 L 109.117188 747.617188 L 109.226562 747.566406 L 109.332031 747.515625 L 109.441406 747.46875 L 109.554688 747.425781 L 109.664062 747.378906 L 109.890625 747.300781 L 110.003906 747.265625 L 110.117188 747.234375 L 110.226562 747.203125 L 110.339844 747.175781 L 110.449219 747.152344 L 110.667969 747.113281 L 110.777344 747.097656 L 110.886719 747.085938 L 110.992188 747.074219 L 111.09375 747.070312 L 111.199219 747.066406 L 111.300781 747.0625 L 111.398438 747.066406 L 111.5 747.070312 L 111.597656 747.078125 L 111.785156 747.101562 L 111.878906 747.117188 L 111.96875 747.136719 L 112.058594 747.160156 L 112.144531 747.183594 L 112.230469 747.214844 L 112.316406 747.242188 L 112.394531 747.277344 L 112.476562 747.3125 L 112.554688 747.351562 L 112.664062 747.414062 L 112.773438 747.484375 L 112.824219 747.519531 L 112.871094 747.554688 L 112.921875 747.59375 L 112.96875 747.636719 L 113.023438 747.683594 L 113.074219 747.734375 L 113.125 747.789062 L 113.175781 747.839844 L 113.222656 747.898438 L 113.308594 748.015625 L 113.351562 748.078125 L 113.429688 748.203125 L 113.5 748.335938 L 113.5625 748.476562 L 113.589844 748.550781 L 113.613281 748.625 L 113.640625 748.699219 L 113.660156 748.773438 L 113.699219 748.929688 L 113.714844 749.011719 L 113.726562 749.089844 L 113.738281 749.171875 L 113.753906 749.335938 L 113.757812 749.421875 L 113.761719 749.503906 L 113.761719 749.675781 L 113.757812 749.757812 L 113.742188 749.929688 L 113.730469 750.03125 L 113.699219 750.234375 L 113.679688 750.335938 L 113.65625 750.4375 L 113.632812 750.542969 L 113.605469 750.644531 L 113.578125 750.75 L 113.546875 750.855469 L 113.511719 750.960938 L 113.476562 751.070312 L 113.398438 751.28125 L 113.351562 751.390625 L 113.308594 751.5 L 113.261719 751.609375 L 113.210938 751.71875 L 113.15625 751.828125 L 113.101562 751.941406 L 113.042969 752.050781 L 112.984375 752.164062 L 112.921875 752.277344 L 112.789062 752.503906 L 112.71875 752.621094 L 112.648438 752.734375 L 112.574219 752.851562 L 112.417969 753.085938 L 112.335938 753.203125 L 112.25 753.324219 L 112.164062 753.441406 L 112.042969 753.609375 L 111.792969 753.9375 L 111.667969 754.097656 L 111.28125 754.578125 L 111.148438 754.734375 L 110.992188 754.921875 L 110.832031 755.109375 L 110.671875 755.292969 L 110.507812 755.476562 L 110.003906 756.015625 L 109.835938 756.191406 L 109.402344 756.632812 L 108.808594 757.234375 L 108.210938 757.839844 L 107.773438 758.285156 L 107.378906 758.6875 L 107.023438 759.0625 L 106.679688 759.425781 L 106.355469 759.769531 L 106.046875 760.105469 L 105.753906 760.429688 L 105.542969 760.671875 L 105.335938 760.914062 L 105.136719 761.15625 L 104.941406 761.394531 L 104.75 761.636719 L 104.566406 761.875 L 104.390625 762.117188 L 104.214844 762.355469 L 104.050781 762.59375 L 103.890625 762.835938 L 103.734375 763.074219 L 103.585938 763.3125 L 103.511719 763.429688 L 103.441406 763.550781 L 103.371094 763.667969 L 103.300781 763.789062 L 103.167969 764.023438 L 103.105469 764.144531 L 103.042969 764.261719 L 102.953125 764.433594 L 102.867188 764.605469 L 102.785156 764.777344 L 102.707031 764.949219 L 102.558594 765.292969 L 102.488281 765.464844 L 102.421875 765.632812 L 102.359375 765.804688 L 102.300781 765.972656 L 102.242188 766.144531 L 102.140625 766.480469 L 102.046875 766.816406 L 102.007812 766.984375 L 101.984375 767.082031 L 101.964844 767.183594 L 101.945312 767.28125 L 101.925781 767.382812 L 101.90625 767.488281 L 101.890625 767.589844 L 101.875 767.695312 L 101.859375 767.804688 L 101.84375 767.910156 L 101.832031 768.019531 L 101.808594 768.242188 L 101.792969 768.46875 L 101.777344 768.703125 L 101.765625 768.941406 L 101.761719 769.183594 L 101.757812 769.433594 L 101.761719 769.6875 L 101.765625 769.945312 L 101.777344 770.210938 L 101.792969 770.484375 L 101.808594 770.761719 L 101.832031 771.046875 L 101.855469 771.328125 L 101.882812 771.613281 L 101.910156 771.890625 L 101.972656 772.453125 L 102.007812 772.730469 L 102.042969 773.011719 L 102.082031 773.289062 L 102.125 773.566406 L 102.167969 773.839844 L 102.210938 774.117188 L 102.257812 774.390625 L 102.359375 774.9375 L 102.414062 775.210938 L 102.730469 776.8125 L 102.851562 777.425781 L 102.960938 777.988281 L 103.0625 778.535156 L 103.160156 779.050781 L 103.25 779.546875 L 103.335938 780.023438 L 103.417969 780.507812 L 103.496094 780.976562 L 103.570312 781.4375 L 103.640625 781.886719 L 103.707031 782.332031 L 103.769531 782.769531 L 103.828125 783.203125 L 103.882812 783.628906 L 103.960938 784.300781 L 103.992188 784.632812 L 104.019531 784.964844 L 104.066406 785.621094 L 104.082031 785.945312 L 104.09375 786.269531 L 104.097656 786.425781 L 104.097656 786.738281 L 104.089844 787.050781 L 104.074219 787.355469 L 104.0625 787.507812 L 104.03125 787.804688 L 104.011719 787.953125 L 103.988281 788.101562 L 103.941406 788.390625 L 103.914062 788.535156 L 103.882812 788.679688 L 103.859375 788.769531 L 103.839844 788.863281 L 103.8125 788.953125 L 103.789062 789.042969 L 103.734375 789.222656 L 103.640625 789.480469 L 103.609375 789.5625 L 103.574219 789.640625 L 103.539062 789.722656 L 103.503906 789.800781 L 103.46875 789.875 L 103.429688 789.949219 L 103.351562 790.089844 L 103.3125 790.15625 L 103.269531 790.21875 L 103.230469 790.28125 L 103.1875 790.34375 L 103.144531 790.402344 L 103.101562 790.457031 L 103.054688 790.511719 L 103.011719 790.5625 L 102.964844 790.613281 L 102.917969 790.660156 L 102.871094 790.703125 L 102.820312 790.746094 L 102.773438 790.785156 L 102.722656 790.824219 L 102.675781 790.859375 L 102.628906 790.886719 L 102.585938 790.914062 L 102.539062 790.941406 L 102.496094 790.964844 L 102.449219 790.988281 L 102.402344 791.007812 L 102.359375 791.027344 L 102.3125 791.046875 L 102.265625 791.0625 L 102.222656 791.074219 L 102.128906 791.097656 L 102.035156 791.113281 L 101.992188 791.117188 L 101.945312 791.121094 L 101.90625 791.125 L 101.867188 791.125 L 101.828125 791.121094 L 101.789062 791.121094 L 101.710938 791.113281 L 101.667969 791.105469 L 101.550781 791.082031 L 101.472656 791.058594 L 101.390625 791.03125 L 101.234375 790.960938 L 101.152344 790.917969 L 101.070312 790.871094 L 100.992188 790.816406 L 100.910156 790.761719 L 100.828125 790.699219 L 100.746094 790.628906 L 100.667969 790.558594 L 100.503906 790.402344 L 100.339844 790.222656 L 100.257812 790.128906 L 100.179688 790.027344 L 100.097656 789.921875 L 100.015625 789.8125 L 99.851562 789.578125 L 99.769531 789.453125 L 99.6875 789.324219 L 99.601562 789.1875 L 99.519531 789.050781 L 99.433594 788.902344 L 99.347656 788.746094 L 99.183594 788.449219 L 99.023438 788.140625 L 98.859375 787.824219 L 98.699219 787.5 L 98.535156 787.164062 L 98.375 786.816406 L 98.210938 786.460938 L 98.050781 786.09375 L 97.886719 785.71875 L 97.722656 785.335938 L 97.5625 784.9375 L 97.398438 784.53125 L 97.234375 784.113281 L 97.070312 783.6875 L 96.902344 783.246094 L 96.734375 782.792969 L 96.601562 782.425781 L 96.460938 782.023438 L 96.089844 780.976562 L 95.824219 780.222656 L 95.628906 779.675781 L 95.449219 779.179688 L 95.285156 778.726562 L 95.117188 778.285156 L 94.957031 777.867188 L 94.804688 777.472656 L 94.648438 777.089844 L 94.5625 776.875 L 94.476562 776.679688 L 94.394531 776.492188 L 94.3125 776.316406 L 94.230469 776.148438 L 94.148438 775.988281 L 94.066406 775.835938 L 93.984375 775.6875 L 93.902344 775.546875 L 93.816406 775.410156 L 93.730469 775.277344 L 93.644531 775.152344 L 93.558594 775.03125 L 93.378906 774.804688 L 93.285156 774.703125 L 93.25 774.664062 L 93.179688 774.59375 L 93.144531 774.5625 L 93.105469 774.53125 L 93.070312 774.503906 L 93.03125 774.472656 L 92.992188 774.449219 L 92.957031 774.421875 L 92.917969 774.398438 L 92.875 774.378906 L 92.796875 774.339844 L 92.753906 774.324219 L 92.714844 774.308594 L 92.671875 774.292969 L 92.628906 774.28125 L 92.582031 774.269531 L 92.539062 774.261719 L 92.492188 774.253906 L 92.351562 774.242188 L 92.257812 774.242188 L 92.15625 774.25 L 92.109375 774.253906 L 92.007812 774.269531 L 91.953125 774.28125 L 91.902344 774.296875 L 91.785156 774.328125 L 91.667969 774.363281 L 91.554688 774.398438 L 91.320312 774.484375 L 91.207031 774.53125 L 90.972656 774.632812 L 90.734375 774.75 L 90.492188 774.871094 L 90.007812 775.128906 L 89.769531 775.265625 L 89.53125 775.40625 L 89.289062 775.550781 L 89.050781 775.703125 L 88.835938 775.839844 L 88.621094 775.972656 L 88.402344 776.105469 L 88.1875 776.238281 L 87.800781 776.460938 L 87.671875 776.53125 L 87.539062 776.605469 L 87.410156 776.671875 L 87.277344 776.742188 L 87.011719 776.875 L 86.613281 777.0625 L 86.476562 777.125 L 86.34375 777.183594 L 86.070312 777.300781 L 85.695312 777.449219 L 85.507812 777.519531 L 85.316406 777.589844 L 85.128906 777.65625 L 84.933594 777.722656 L 84.742188 777.785156 L 84.550781 777.84375 L 84.332031 777.90625 L 84.117188 777.964844 L 83.902344 778.019531 L 83.691406 778.070312 L 83.476562 778.113281 L 83.265625 778.152344 L 83.050781 778.1875 L 82.839844 778.21875 L 82.699219 778.238281 L 82.5625 778.253906 L 82.425781 778.265625 L 82.285156 778.28125 L 82.148438 778.289062 L 81.867188 778.304688 L 81.726562 778.308594 L 81.582031 778.3125 L 81.441406 778.316406 L 81.296875 778.316406 L 81.152344 778.3125 L 81.003906 778.308594 L 80.859375 778.304688 L 80.710938 778.296875 L 80.558594 778.285156 L 80.066406 778.25 L 79.394531 778.199219 L 78.863281 778.160156 L 78.472656 778.128906 L 78.117188 778.105469 L 77.789062 778.085938 L 77.472656 778.070312 L 77.167969 778.054688 L 76.878906 778.046875 L 76.597656 778.039062 L 76.410156 778.035156 L 76.046875 778.035156 L 75.867188 778.039062 L 75.695312 778.042969 L 75.523438 778.050781 L 75.1875 778.066406 L 75.027344 778.078125 L 74.863281 778.089844 L 74.707031 778.105469 L 74.546875 778.121094 L 74.089844 778.179688 L 73.941406 778.207031 L 73.792969 778.230469 L 73.503906 778.285156 L 73.359375 778.316406 L 73.21875 778.351562 L 73.082031 778.386719 L 72.941406 778.421875 L 72.804688 778.460938 L 72.671875 778.5 L 72.40625 778.585938 L 72.273438 778.632812 L 72.144531 778.679688 L 72.015625 778.730469 L 71.890625 778.785156 L 71.765625 778.835938 L 71.671875 778.878906 L 71.585938 778.917969 L 71.503906 778.957031 L 71.429688 779 L 71.355469 779.039062 L 71.222656 779.117188 L 71.160156 779.160156 L 71.101562 779.199219 L 70.992188 779.285156 L 70.898438 779.371094 L 70.855469 779.414062 L 70.816406 779.457031 L 70.78125 779.5 L 70.769531 779.519531 L 70.757812 779.535156 L 70.753906 779.554688 L 70.746094 779.570312 L 70.742188 779.589844 L 70.742188 779.628906 L 70.746094 779.648438 L 70.75 779.671875 L 70.753906 779.691406 L 70.761719 779.710938 L 70.773438 779.734375 L 70.785156 779.753906 L 70.832031 779.824219 L 70.851562 779.847656 L 70.921875 779.917969 L 71.023438 780.007812 L 71.132812 780.097656 L 71.246094 780.1875 L 71.363281 780.273438 L 71.488281 780.363281 L 71.621094 780.449219 L 71.757812 780.539062 L 71.902344 780.625 L 72.28125 780.851562 L 72.675781 781.089844 L 73.074219 781.335938 L 73.488281 781.589844 L 73.910156 781.851562 L 74.34375 782.125 L 74.789062 782.410156 L 75.242188 782.699219 L 75.378906 782.789062 L 75.511719 782.875 L 75.644531 782.964844 L 75.773438 783.054688 L 75.898438 783.144531 L 76.019531 783.230469 L 76.140625 783.320312 L 76.257812 783.410156 L 76.335938 783.472656 L 76.421875 783.539062 L 76.585938 783.679688 L 76.664062 783.753906 L 76.746094 783.824219 L 76.824219 783.902344 L 76.898438 783.980469 L 76.976562 784.058594 L 77.050781 784.136719 L 77.125 784.21875 L 77.195312 784.304688 L 77.269531 784.390625 L 77.339844 784.476562 L 77.480469 784.65625 L 77.546875 784.746094 L 77.613281 784.839844 L 77.8125 785.132812 L 77.875 785.234375 L 78 785.445312 L 78.125 785.664062 L 78.183594 785.777344 L 78.308594 786.011719 L 78.425781 786.253906 L 78.484375 786.382812 L 78.546875 786.511719 L 78.820312 787.121094 L 79.367188 788.347656 L 79.640625 788.96875 L 79.707031 789.109375 L 79.773438 789.246094 L 79.921875 789.519531 L 80 789.65625 L 80.078125 789.789062 L 80.164062 789.921875 L 80.253906 790.050781 L 80.296875 790.113281 L 80.34375 790.171875 L 80.390625 790.226562 L 80.441406 790.28125 L 80.542969 790.382812 L 80.597656 790.429688 L 80.652344 790.472656 L 80.6875 790.5 L 80.722656 790.523438 L 80.761719 790.542969 L 80.796875 790.5625 L 80.875 790.59375 L 80.914062 790.601562 L 80.953125 790.613281 L 80.980469 790.617188 L 81.011719 790.621094 L 81.101562 790.621094 L 81.195312 790.609375 L 81.257812 790.59375 L 81.292969 790.585938 L 81.324219 790.574219 L 81.355469 790.558594 L 81.386719 790.546875 L 81.449219 790.515625 L 81.542969 790.457031 L 81.636719 790.386719 L 81.699219 790.332031 L 81.757812 790.277344 L 81.8125 790.214844 L 81.863281 790.152344 L 81.910156 790.085938 L 81.953125 790.027344 L 82.023438 789.910156 L 82.058594 789.847656 L 82.089844 789.789062 L 82.152344 789.664062 L 82.207031 789.53125 L 82.230469 789.464844 L 82.269531 789.359375 L 82.339844 789.140625 L 82.371094 789.027344 L 82.402344 788.910156 L 82.433594 788.789062 L 82.488281 788.546875 L 82.511719 788.421875 L 82.535156 788.292969 L 82.558594 788.160156 L 82.578125 788.027344 L 82.617188 787.753906 L 82.632812 787.613281 L 82.644531 787.46875 L 82.65625 787.328125 L 82.667969 787.183594 L 82.683594 786.894531 L 82.695312 786.460938 L 82.695312 786.3125 L 82.691406 786.167969 L 82.683594 785.871094 L 82.667969 785.574219 L 82.65625 785.421875 L 82.644531 785.273438 L 82.628906 785.121094 L 82.597656 784.847656 L 82.5625 784.574219 L 82.523438 784.300781 L 82.480469 784.03125 L 82.433594 783.761719 L 82.382812 783.492188 L 82.324219 783.222656 L 82.265625 782.957031 L 82.199219 782.691406 L 82.132812 782.433594 L 82.058594 782.171875 L 81.984375 781.914062 L 81.820312 781.40625 L 81.730469 781.160156 L 81.640625 780.910156 L 81.628906 780.882812 L 81.613281 780.820312 L 81.609375 780.792969 L 81.609375 780.734375 L 81.617188 780.679688 L 81.625 780.644531 L 81.640625 780.609375 L 81.660156 780.574219 L 81.691406 780.527344 L 81.71875 780.5 L 81.746094 780.476562 L 81.808594 780.4375 L 81.84375 780.421875 L 81.878906 780.414062 L 81.917969 780.40625 L 81.953125 780.402344 L 81.992188 780.402344 L 82.03125 780.40625 L 82.066406 780.414062 L 82.101562 780.425781 L 82.132812 780.441406 L 82.164062 780.460938 L 82.191406 780.480469 L 82.21875 780.507812 L 82.230469 780.523438 L 82.246094 780.542969 L 82.269531 780.578125 L 82.292969 780.621094 L 82.316406 780.667969 L 82.339844 780.71875 L 82.367188 780.777344 L 82.390625 780.835938 L 82.417969 780.902344 L 82.441406 780.972656 L 82.515625 781.183594 L 82.585938 781.390625 L 82.652344 781.597656 L 82.714844 781.808594 L 82.777344 782.015625 L 82.835938 782.226562 L 82.890625 782.4375 L 82.945312 782.652344 L 83.03125 783.027344 L 83.070312 783.214844 L 83.109375 783.40625 L 83.144531 783.59375 L 83.179688 783.785156 L 83.242188 784.167969 L 83.296875 784.550781 L 83.320312 784.746094 L 83.339844 784.9375 L 83.378906 785.328125 L 83.394531 785.523438 L 83.40625 785.71875 L 83.414062 785.878906 L 83.421875 786.042969 L 83.429688 786.371094 L 83.425781 786.515625 L 83.425781 786.664062 L 83.421875 786.808594 L 83.414062 786.953125 L 83.40625 787.101562 L 83.398438 787.246094 L 83.386719 787.394531 L 83.375 787.539062 L 83.359375 787.683594 L 83.339844 787.832031 L 83.324219 787.976562 L 83.300781 788.125 L 83.28125 788.269531 L 83.253906 788.414062 L 83.230469 788.5625 L 83.199219 788.707031 L 83.164062 788.886719 L 83.144531 788.976562 L 83.074219 789.234375 L 83.050781 789.316406 L 83.027344 789.402344 L 83 789.480469 L 82.945312 789.644531 L 82.914062 789.722656 L 82.886719 789.800781 L 82.855469 789.875 L 82.820312 789.953125 L 82.789062 790.027344 L 82.757812 790.097656 L 82.722656 790.164062 L 82.683594 790.234375 L 82.605469 790.367188 L 82.5625 790.429688 L 82.519531 790.496094 L 82.472656 790.554688 L 82.425781 790.617188 L 82.378906 790.671875 L 82.328125 790.730469 L 82.277344 790.785156 L 82.222656 790.835938 L 82.171875 790.886719 L 82.0625 790.980469 L 82.007812 791.019531 L 81.953125 791.0625 L 81.894531 791.097656 L 81.839844 791.132812 L 81.78125 791.167969 L 81.722656 791.195312 L 81.667969 791.222656 L 81.605469 791.25 L 81.429688 791.308594 L 81.371094 791.320312 L 81.308594 791.332031 L 81.25 791.34375 L 81.1875 791.351562 L 81.128906 791.355469 L 81.035156 791.355469 L 80.96875 791.351562 L 80.902344 791.34375 L 80.832031 791.332031 L 80.691406 791.300781 L 80.625 791.277344 L 80.554688 791.25 L 80.421875 791.1875 L 80.351562 791.148438 L 80.289062 791.105469 L 80.222656 791.058594 L 80.089844 790.957031 L 80.027344 790.898438 L 79.902344 790.773438 L 79.839844 790.703125 L 79.714844 790.554688 L 79.65625 790.476562 L 79.59375 790.390625 L 79.535156 790.304688 L 79.476562 790.210938 L 79.414062 790.117188 L 79.296875 789.914062 L 79.242188 789.808594 L 79.125 789.582031 L 79.066406 789.460938 L 79.003906 789.332031 L 78.941406 789.191406 L 78.867188 789.03125 L 78.734375 788.734375 L 78.558594 788.328125 L 78.359375 787.871094 L 78.210938 787.539062 L 78.078125 787.242188 L 77.953125 786.96875 L 77.828125 786.703125 L 77.707031 786.453125 L 77.585938 786.21875 L 77.46875 785.992188 L 77.394531 785.851562 L 77.316406 785.714844 L 77.234375 785.578125 L 77.148438 785.445312 L 77.0625 785.316406 L 76.976562 785.191406 L 76.789062 784.949219 L 76.695312 784.832031 L 76.59375 784.71875 L 76.496094 784.605469 L 76.285156 784.394531 L 76.066406 784.191406 L 75.953125 784.097656 L 75.882812 784.039062 L 75.8125 783.984375 L 75.738281 783.929688 L 75.667969 783.875 L 75.539062 783.785156 L 75.40625 783.691406 L 75.269531 783.597656 L 75.132812 783.5 L 74.988281 783.402344 L 74.839844 783.304688 L 74.53125 783.105469 L 73.78125 782.628906 L 73.410156 782.398438 L 73.042969 782.167969 L 72.679688 781.945312 L 72.316406 781.726562 L 71.960938 781.511719 L 71.609375 781.300781 L 71.464844 781.214844 L 71.328125 781.128906 L 71.191406 781.039062 L 71.058594 780.945312 L 70.929688 780.855469 L 70.800781 780.761719 L 70.679688 780.667969 L 70.558594 780.570312 L 70.492188 780.511719 L 70.429688 780.453125 L 70.371094 780.394531 L 70.316406 780.335938 L 70.265625 780.277344 L 70.21875 780.214844 L 70.179688 780.15625 L 70.140625 780.09375 L 70.109375 780.035156 L 70.078125 779.972656 L 70.054688 779.914062 L 70.035156 779.851562 L 70.019531 779.789062 L 70.011719 779.730469 L 70.003906 779.667969 L 70.003906 779.609375 L 70.007812 779.570312 L 70.007812 779.53125 L 70.03125 779.414062 L 70.042969 779.378906 L 70.066406 779.300781 L 70.085938 779.261719 L 70.101562 779.226562 L 70.121094 779.1875 L 70.144531 779.148438 L 70.167969 779.113281 L 70.191406 779.074219 L 70.21875 779.035156 L 70.246094 779 L 70.296875 778.9375 L 70.351562 778.878906 L 70.410156 778.824219 L 70.46875 778.765625 L 70.535156 778.710938 L 70.675781 778.609375 L 70.753906 778.558594 L 70.839844 778.5 L 70.933594 778.445312 L 71.027344 778.394531 L 71.121094 778.339844 L 71.21875 778.289062 L 71.320312 778.242188 L 71.421875 778.191406 L 71.632812 778.097656 L 71.851562 778.011719 L 72.078125 777.925781 L 72.3125 777.847656 L 72.433594 777.8125 L 72.644531 777.75 L 72.855469 777.691406 L 72.988281 777.660156 L 73.121094 777.625 L 73.253906 777.597656 L 73.386719 777.566406 L 73.523438 777.539062 L 73.65625 777.515625 L 73.792969 777.492188 L 73.925781 777.46875 L 74.335938 777.410156 L 74.609375 777.378906 L 74.746094 777.367188 L 74.886719 777.355469 L 75.023438 777.347656 L 75.269531 777.332031 L 75.777344 777.316406 L 76.039062 777.3125 L 76.585938 777.3125 L 76.867188 777.316406 L 77.15625 777.328125 L 77.453125 777.335938 L 77.757812 777.351562 L 78.070312 777.371094 L 78.398438 777.390625 L 78.742188 777.414062 L 79.101562 777.445312 L 79.488281 777.476562 L 79.917969 777.515625 L 80.355469 777.546875 L 80.570312 777.5625 L 81 777.578125 L 81.421875 777.585938 L 81.632812 777.585938 L 81.75 777.582031 L 81.863281 777.578125 L 81.980469 777.574219 L 82.09375 777.566406 L 82.210938 777.558594 L 82.324219 777.550781 L 82.441406 777.539062 L 82.558594 777.523438 L 82.675781 777.511719 L 82.789062 777.496094 L 83.140625 777.4375 L 83.261719 777.414062 L 83.378906 777.390625 L 83.5 777.367188 L 83.617188 777.339844 L 83.738281 777.308594 L 83.859375 777.28125 L 83.984375 777.246094 L 84.105469 777.214844 L 84.230469 777.179688 L 84.355469 777.140625 L 84.480469 777.105469 L 84.867188 776.976562 L 84.996094 776.929688 L 85.128906 776.882812 L 85.402344 776.78125 L 85.539062 776.726562 L 85.71875 776.65625 L 85.894531 776.585938 L 86.066406 776.511719 L 86.242188 776.433594 L 86.417969 776.351562 L 86.761719 776.1875 L 86.933594 776.101562 L 87.101562 776.011719 L 87.273438 775.921875 L 87.445312 775.828125 L 87.78125 775.632812 L 87.949219 775.53125 L 88.113281 775.429688 L 88.28125 775.324219 L 88.558594 775.148438 L 88.808594 774.992188 L 89.039062 774.851562 L 89.257812 774.71875 L 89.46875 774.597656 L 89.671875 774.480469 L 89.867188 774.371094 L 90.058594 774.269531 L 90.25 774.171875 L 90.4375 774.082031 L 90.617188 773.996094 L 90.796875 773.917969 L 90.96875 773.84375 L 91.140625 773.777344 L 91.3125 773.714844 L 91.476562 773.65625 L 91.566406 773.628906 L 91.660156 773.601562 L 91.746094 773.578125 L 91.835938 773.5625 L 92.007812 773.53125 L 92.179688 773.515625 L 92.34375 773.515625 L 92.507812 773.523438 L 92.664062 773.546875 L 92.742188 773.5625 L 92.820312 773.582031 L 92.921875 773.613281 L 93.074219 773.671875 L 93.125 773.695312 L 93.171875 773.71875 L 93.222656 773.742188 L 93.269531 773.769531 L 93.320312 773.796875 L 93.460938 773.890625 L 93.554688 773.960938 L 93.601562 774 L 93.644531 774.039062 L 93.691406 774.078125 L 93.738281 774.121094 L 93.871094 774.253906 L 93.914062 774.300781 L 94.042969 774.453125 L 94.082031 774.507812 L 94.125 774.5625 L 94.210938 774.679688 L 94.292969 774.800781 L 94.367188 774.917969 L 94.4375 775.035156 L 94.511719 775.15625 L 94.722656 775.53125 L 94.792969 775.660156 L 94.859375 775.789062 L 94.925781 775.925781 L 94.992188 776.058594 L 95.054688 776.195312 L 95.121094 776.335938 L 95.183594 776.476562 L 95.242188 776.621094 L 95.304688 776.765625 L 95.363281 776.914062 L 95.523438 777.3125 L 95.675781 777.703125 L 95.824219 778.097656 L 95.96875 778.484375 L 96.113281 778.867188 L 96.25 779.25 L 96.386719 779.628906 L 96.515625 780.003906 L 96.703125 780.535156 L 96.878906 781.039062 L 97.050781 781.519531 L 97.21875 781.984375 L 97.382812 782.433594 L 97.542969 782.867188 L 97.703125 783.289062 L 97.859375 783.699219 L 98.019531 784.101562 L 98.175781 784.492188 L 98.332031 784.871094 L 98.484375 785.246094 L 98.640625 785.605469 L 98.792969 785.960938 L 98.945312 786.308594 L 99.101562 786.648438 L 99.242188 786.953125 L 99.386719 787.25 L 99.609375 787.695312 L 99.6875 787.839844 L 99.761719 787.980469 L 99.839844 788.125 L 99.917969 788.265625 L 100 788.40625 L 100.078125 788.546875 L 100.160156 788.683594 L 100.238281 788.820312 L 100.320312 788.957031 L 100.378906 789.046875 L 100.433594 789.136719 L 100.492188 789.222656 L 100.546875 789.304688 L 100.605469 789.386719 L 100.660156 789.464844 L 100.714844 789.539062 L 100.773438 789.613281 L 100.828125 789.679688 L 100.886719 789.746094 L 100.996094 789.871094 L 101.105469 789.980469 L 101.160156 790.03125 L 101.214844 790.078125 L 101.265625 790.121094 L 101.320312 790.160156 L 101.421875 790.230469 L 101.523438 790.285156 L 101.625 790.332031 L 101.671875 790.347656 L 101.71875 790.359375 L 101.769531 790.371094 L 101.816406 790.378906 L 101.863281 790.382812 L 101.90625 790.382812 L 101.953125 790.378906 L 102 790.371094 L 102.042969 790.363281 L 102.082031 790.351562 L 102.125 790.335938 L 102.167969 790.316406 L 102.246094 790.269531 L 102.285156 790.242188 L 102.324219 790.207031 L 102.386719 790.152344 L 102.445312 790.09375 L 102.5 790.035156 L 102.554688 789.96875 L 102.605469 789.898438 L 102.652344 789.828125 L 102.699219 789.753906 L 102.746094 789.675781 L 102.785156 789.601562 L 102.820312 789.523438 L 102.859375 789.445312 L 102.894531 789.367188 L 102.925781 789.285156 L 102.960938 789.203125 L 102.992188 789.121094 L 103.019531 789.035156 L 103.050781 788.949219 L 103.105469 788.769531 L 103.128906 788.679688 L 103.152344 788.585938 L 103.175781 788.488281 L 103.199219 788.394531 L 103.238281 788.199219 L 103.269531 787.996094 L 103.285156 787.890625 L 103.300781 787.789062 L 103.3125 787.683594 L 103.324219 787.574219 L 103.347656 787.246094 L 103.355469 787.132812 L 103.359375 787.019531 L 103.363281 786.902344 L 103.363281 786.386719 L 103.359375 786.21875 L 103.351562 786.050781 L 103.335938 785.699219 L 103.324219 785.523438 L 103.316406 785.34375 L 103.300781 785.160156 L 103.289062 784.976562 L 103.269531 784.789062 L 103.253906 784.601562 L 103.234375 784.410156 L 103.214844 784.214844 L 103.191406 784.019531 L 103.167969 783.820312 L 103.144531 783.617188 L 103.09375 783.25 L 103.046875 782.882812 L 102.996094 782.515625 L 102.941406 782.148438 L 102.886719 781.777344 L 102.828125 781.410156 L 102.710938 780.667969 L 102.648438 780.296875 L 102.449219 779.183594 L 102.378906 778.8125 L 102.308594 778.4375 L 102.234375 778.066406 L 102.15625 777.691406 L 101.964844 776.738281 L 101.820312 776.015625 L 101.753906 775.679688 L 101.695312 775.363281 L 101.636719 775.058594 L 101.585938 774.761719 L 101.535156 774.46875 L 101.484375 774.183594 L 101.4375 773.90625 L 101.394531 773.632812 L 101.355469 773.367188 L 101.316406 773.105469 L 101.28125 772.851562 L 101.1875 772.089844 L 101.164062 771.84375 L 101.136719 771.597656 L 101.117188 771.355469 L 101.097656 771.117188 L 101.066406 770.648438 L 101.054688 770.417969 L 101.046875 770.1875 L 101.039062 769.964844 L 101.03125 769.738281 L 101.03125 769.082031 L 101.035156 768.863281 L 101.042969 768.714844 L 101.046875 768.5625 L 101.070312 768.257812 L 101.085938 768.109375 L 101.101562 767.957031 L 101.121094 767.804688 L 101.140625 767.65625 L 101.164062 767.503906 L 101.191406 767.351562 L 101.21875 767.203125 L 101.25 767.050781 L 101.320312 766.746094 L 101.355469 766.597656 L 101.394531 766.445312 L 101.4375 766.292969 L 101.484375 766.140625 L 101.527344 765.988281 L 101.578125 765.835938 L 101.628906 765.6875 L 101.738281 765.382812 L 101.796875 765.230469 L 101.921875 764.925781 L 102.054688 764.621094 L 102.125 764.46875 L 102.273438 764.164062 L 102.429688 763.859375 L 102.511719 763.703125 L 102.59375 763.550781 L 102.679688 763.398438 L 102.859375 763.09375 L 102.953125 762.9375 L 103.148438 762.632812 L 103.246094 762.476562 L 103.351562 762.324219 L 103.5625 762.011719 L 103.675781 761.859375 L 103.785156 761.703125 L 104.019531 761.390625 L 104.140625 761.234375 L 104.261719 761.074219 L 104.386719 760.917969 L 104.515625 760.761719 L 104.644531 760.601562 L 104.777344 760.445312 L 105.050781 760.125 L 105.191406 759.964844 L 105.335938 759.800781 L 105.480469 759.640625 L 105.628906 759.476562 L 105.78125 759.3125 L 105.9375 759.144531 L 106.097656 758.980469 L 106.425781 758.636719 L 106.773438 758.277344 L 107.511719 757.519531 L 108.308594 756.707031 L 109.164062 755.835938 L 109.292969 755.707031 L 109.417969 755.574219 L 109.546875 755.441406 L 109.796875 755.175781 L 109.917969 755.039062 L 110.042969 754.902344 L 110.285156 754.628906 L 110.402344 754.488281 L 110.519531 754.351562 L 110.640625 754.210938 L 110.753906 754.070312 L 110.871094 753.925781 L 110.984375 753.785156 L 111.210938 753.496094 L 111.324219 753.347656 L 111.433594 753.199219 L 111.546875 753.050781 L 111.667969 752.882812 L 111.785156 752.714844 L 111.898438 752.546875 L 112.007812 752.378906 L 112.113281 752.210938 L 112.210938 752.042969 L 112.304688 751.875 L 112.394531 751.710938 L 112.476562 751.550781 L 112.554688 751.390625 L 112.625 751.234375 L 112.691406 751.078125 L 112.753906 750.925781 L 112.808594 750.773438 L 112.855469 750.628906 L 112.878906 750.554688 L 112.898438 750.480469 L 112.9375 750.339844 L 112.953125 750.273438 L 112.96875 750.203125 L 112.980469 750.136719 L 112.992188 750.066406 L 113.003906 750 L 113.011719 749.933594 L 113.019531 749.871094 L 113.027344 749.804688 L 113.03125 749.742188 L 113.035156 749.675781 L 113.035156 749.433594 L 113.03125 749.375 L 113.023438 749.3125 L 113.015625 749.257812 L 113.007812 749.199219 L 113 749.144531 L 112.988281 749.089844 L 112.976562 749.03125 L 112.960938 748.980469 L 112.945312 748.925781 L 112.929688 748.875 L 112.910156 748.820312 L 112.871094 748.71875 L 112.847656 748.671875 L 112.824219 748.621094 L 112.796875 748.574219 L 112.761719 748.511719 L 112.738281 748.472656 L 112.710938 748.433594 L 112.628906 748.328125 L 112.597656 748.292969 L 112.566406 748.261719 L 112.535156 748.226562 L 112.433594 748.140625 L 112.382812 748.101562 L 112.328125 748.066406 L 112.269531 748.03125 L 112.152344 747.96875 L 112.085938 747.941406 L 112.023438 747.914062 L 111.953125 747.890625 L 111.886719 747.871094 L 111.8125 747.855469 L 111.742188 747.835938 L 111.664062 747.824219 L 111.589844 747.8125 L 111.507812 747.804688 L 111.429688 747.800781 L 111.347656 747.796875 L 111.175781 747.796875 L 111.089844 747.800781 L 110.910156 747.816406 L 110.820312 747.828125 L 110.726562 747.84375 L 110.636719 747.859375 L 110.449219 747.898438 L 110.355469 747.921875 L 110.265625 747.949219 L 110.171875 747.976562 L 110.082031 748.007812 L 109.839844 748.09375 L 109.726562 748.140625 L 109.609375 748.191406 L 109.5 748.238281 L 109.390625 748.292969 L 109.28125 748.34375 L 109.175781 748.398438 L 109.019531 748.488281 L 108.863281 748.574219 L 108.703125 748.667969 L 108.546875 748.761719 L 108.390625 748.859375 L 108.230469 748.960938 L 108.074219 749.0625 L 107.917969 749.167969 L 107.757812 749.277344 L 107.445312 749.503906 L 107.289062 749.625 L 107.128906 749.742188 L 106.816406 749.992188 L 106.65625 750.125 L 106.0625 750.621094 L 105.460938 751.125 L 104.851562 751.644531 L 104.234375 752.175781 L 103.835938 752.515625 L 103.441406 752.847656 L 103.246094 753.007812 L 103.054688 753.167969 L 102.859375 753.324219 L 102.667969 753.480469 L 102.476562 753.628906 L 102.289062 753.78125 L 102.097656 753.929688 L 101.910156 754.074219 L 101.535156 754.355469 L 101.351562 754.496094 L 101.164062 754.632812 L 100.796875 754.898438 L 100.246094 755.285156 L 100.0625 755.410156 L 99.703125 755.652344 L 99.519531 755.769531 L 99.339844 755.886719 L 98.800781 756.226562 L 98.621094 756.332031 L 98.441406 756.441406 L 98.265625 756.546875 L 97.90625 756.75 L 97.730469 756.851562 L 97.550781 756.949219 L 97.375 757.046875 L 97.195312 757.140625 L 97.019531 757.230469 L 96.84375 757.324219 L 96.664062 757.410156 L 96.488281 757.5 L 96.3125 757.582031 L 96.136719 757.667969 L 95.960938 757.75 L 95.609375 757.90625 L 95.082031 758.128906 L 94.730469 758.269531 L 94.558594 758.335938 L 94.382812 758.402344 L 94.207031 758.464844 L 94.035156 758.527344 L 93.859375 758.585938 L 93.6875 758.644531 L 93.335938 758.753906 L 93.164062 758.808594 L 92.988281 758.859375 L 92.816406 758.90625 L 92.640625 758.953125 L 92.449219 759.003906 L 92.257812 759.050781 L 91.875 759.136719 L 91.679688 759.175781 L 91.488281 759.210938 L 91.296875 759.242188 L 90.914062 759.296875 L 90.71875 759.320312 L 90.527344 759.339844 L 90.144531 759.371094 L 89.949219 759.378906 L 89.566406 759.394531 L 89.214844 759.394531 L 89.039062 759.390625 L 88.867188 759.386719 L 88.691406 759.378906 L 88.339844 759.355469 L 88.164062 759.339844 L 87.828125 759.308594 L 87.492188 759.269531 L 87.15625 759.234375 L 86.820312 759.191406 L 86.488281 759.148438 L 86.152344 759.105469 L 85.488281 759.003906 L 85.09375 758.945312 L 84.71875 758.890625 L 84.355469 758.835938 L 84.003906 758.785156 L 83.660156 758.742188 L 83.328125 758.695312 L 83.003906 758.65625 L 82.6875 758.621094 L 82.375 758.585938 L 82.066406 758.550781 L 81.464844 758.496094 L 80.878906 758.449219 L 80.308594 758.410156 L 79.761719 758.382812 L 79.203125 758.355469 L 78.636719 758.335938 L 78.058594 758.316406 L 77.472656 758.304688 L 76.878906 758.292969 L 76.269531 758.289062 L 75.65625 758.285156 L 75.382812 758.285156 L 75.183594 758.289062 L 74.792969 758.296875 L 74.601562 758.304688 L 74.414062 758.308594 L 74.234375 758.320312 L 74.054688 758.328125 L 73.886719 758.339844 L 73.722656 758.351562 L 73.5625 758.367188 L 73.410156 758.378906 L 73.265625 758.394531 L 73.125 758.414062 L 72.992188 758.429688 L 72.867188 758.449219 L 72.75 758.46875 L 72.636719 758.492188 L 72.53125 758.515625 L 72.433594 758.535156 L 72.34375 758.5625 L 72.257812 758.585938 L 72.179688 758.613281 L 72.109375 758.640625 L 72.046875 758.667969 L 71.988281 758.699219 L 71.9375 758.730469 L 71.917969 758.746094 L 71.894531 758.761719 L 71.875 758.777344 L 71.84375 758.808594 L 71.828125 758.828125 L 71.816406 758.84375 L 71.808594 758.859375 L 71.796875 758.878906 L 71.789062 758.894531 L 71.78125 758.933594 L 71.78125 758.980469 L 71.785156 758.996094 L 71.785156 759.015625 L 71.792969 759.03125 L 71.804688 759.066406 L 71.859375 759.167969 L 71.894531 759.222656 L 71.929688 759.273438 L 72.015625 759.382812 L 72.0625 759.433594 L 72.113281 759.488281 L 72.167969 759.539062 L 72.230469 759.59375 L 72.292969 759.644531 L 72.359375 759.699219 L 72.429688 759.753906 L 72.507812 759.8125 L 72.589844 759.871094 L 72.683594 759.933594 L 72.816406 760.023438 L 73.097656 760.203125 L 73.242188 760.289062 L 73.394531 760.378906 L 73.550781 760.46875 L 73.707031 760.554688 L 74.042969 760.734375 L 74.214844 760.820312 L 74.398438 760.914062 L 74.585938 761.003906 L 74.785156 761.101562 L 74.996094 761.199219 L 75.222656 761.304688 L 75.476562 761.417969 L 75.820312 761.570312 L 76.234375 761.753906 L 76.734375 761.972656 L 77.472656 762.292969 L 78.359375 762.675781 L 79.03125 762.96875 L 79.640625 763.234375 L 80.199219 763.484375 L 81.40625 764.019531 L 82.609375 764.5625 L 85.03125 765.648438 L 85.199219 765.726562 L 85.371094 765.808594 L 85.539062 765.890625 L 85.710938 765.976562 L 86.054688 766.15625 L 86.230469 766.25 L 86.402344 766.347656 L 86.589844 766.457031 L 86.675781 766.507812 L 86.757812 766.5625 L 86.839844 766.613281 L 86.917969 766.667969 L 86.992188 766.71875 L 87.0625 766.773438 L 87.132812 766.824219 L 87.199219 766.878906 L 87.265625 766.929688 L 87.441406 767.09375 L 87.496094 767.148438 L 87.546875 767.203125 L 87.6875 767.367188 L 87.726562 767.425781 L 87.765625 767.480469 L 87.804688 767.539062 L 87.835938 767.597656 L 87.871094 767.652344 L 87.925781 767.769531 L 87.949219 767.828125 L 87.972656 767.890625 L 87.988281 767.949219 L 88.007812 768.007812 L 88.023438 768.070312 L 88.035156 768.128906 L 88.042969 768.1875 L 88.050781 768.242188 L 88.054688 768.296875 L 88.054688 768.46875 L 88.046875 768.585938 L 88.03125 768.703125 L 88.019531 768.761719 L 88.003906 768.824219 L 87.988281 768.882812 L 87.96875 768.941406 L 87.953125 769.003906 L 87.929688 769.066406 L 87.8125 769.347656 L 87.71875 769.527344 L 87.617188 769.699219 L 87.5625 769.785156 L 87.390625 770.035156 L 87.214844 770.285156 L 87.035156 770.527344 L 86.855469 770.773438 L 86.667969 771.011719 L 86.292969 771.480469 L 86.097656 771.710938 L 85.902344 771.9375 L 85.503906 772.382812 L 85.296875 772.601562 L 85.089844 772.816406 L 84.878906 773.027344 L 84.449219 773.441406 L 84.300781 773.578125 L 84.238281 773.636719 L 84.183594 773.679688 L 84.136719 773.722656 L 84.089844 773.757812 L 84.042969 773.789062 L 83.957031 773.84375 L 83.917969 773.863281 L 83.875 773.882812 L 83.835938 773.898438 L 83.796875 773.910156 L 83.726562 773.917969 L 83.691406 773.917969 L 83.65625 773.914062 L 83.625 773.90625 L 83.597656 773.898438 L 83.578125 773.886719 L 83.53125 773.863281 L 83.511719 773.84375 L 83.488281 773.828125 L 83.46875 773.804688 L 83.449219 773.785156 L 83.429688 773.761719 L 83.417969 773.738281 L 83.402344 773.714844 L 83.378906 773.644531 L 83.375 773.625 L 83.375 773.578125 L 83.378906 773.558594 L 83.386719 773.535156 L 83.394531 773.515625 L 83.417969 773.46875 L 83.429688 773.449219 L 83.46875 773.402344 L 83.511719 773.359375 L 83.539062 773.335938 L 83.601562 773.285156 L 83.6875 773.222656 L 83.777344 773.152344 L 83.804688 773.128906 L 83.828125 773.105469 L 84.015625 772.921875 L 84.199219 772.730469 L 84.382812 772.542969 L 84.566406 772.347656 L 84.746094 772.152344 L 84.925781 771.953125 L 85.285156 771.546875 L 85.460938 771.339844 L 85.632812 771.128906 L 85.808594 770.917969 L 85.980469 770.703125 L 86.152344 770.484375 L 86.320312 770.265625 L 86.492188 770.042969 L 86.660156 769.816406 L 86.773438 769.65625 L 86.863281 769.527344 L 86.945312 769.410156 L 87.015625 769.296875 L 87.078125 769.1875 L 87.105469 769.136719 L 87.132812 769.082031 L 87.179688 768.980469 L 87.199219 768.933594 L 87.21875 768.882812 L 87.238281 768.835938 L 87.253906 768.785156 L 87.269531 768.738281 L 87.292969 768.644531 L 87.308594 768.550781 L 87.3125 768.507812 L 87.316406 768.460938 L 87.316406 768.375 L 87.304688 768.246094 L 87.296875 768.207031 L 87.285156 768.164062 L 87.277344 768.128906 L 87.253906 768.066406 L 87.242188 768.03125 L 87.195312 767.9375 L 87.136719 767.84375 L 87.09375 767.785156 L 87.042969 767.726562 L 86.988281 767.667969 L 86.949219 767.628906 L 86.902344 767.585938 L 86.859375 767.542969 L 86.8125 767.503906 L 86.714844 767.421875 L 86.609375 767.34375 L 86.5 767.265625 L 86.382812 767.1875 L 86.261719 767.109375 L 86.132812 767.035156 L 85.960938 766.933594 L 85.785156 766.839844 L 85.613281 766.746094 L 85.441406 766.65625 L 85.097656 766.484375 L 84.925781 766.402344 L 84.753906 766.324219 L 82.949219 765.507812 L 82.136719 765.144531 L 81.386719 764.808594 L 80.695312 764.5 L 80.066406 764.21875 L 79.496094 763.96875 Z M 78.984375 763.746094 " fill-opacity="1" fill-rule="nonzero"/></g><path fill="#000000" d="M 69.589844 792.433594 L 69.804688 792.253906 L 70.011719 792.074219 L 70.214844 791.898438 L 70.414062 791.722656 L 70.605469 791.546875 L 70.792969 791.371094 L 70.976562 791.195312 L 71.15625 791.023438 L 71.328125 790.847656 L 71.496094 790.675781 L 71.660156 790.503906 L 71.820312 790.332031 L 71.976562 790.160156 L 72.273438 789.816406 L 72.414062 789.644531 L 72.417969 789.640625 L 72.425781 789.636719 L 72.429688 789.632812 L 72.449219 789.632812 L 72.457031 789.636719 L 72.460938 789.640625 L 72.460938 789.644531 L 73.035156 790.484375 L 73.039062 790.496094 L 73.046875 790.511719 L 73.046875 790.550781 L 73.042969 790.566406 L 73.027344 790.589844 L 72.859375 790.777344 L 72.691406 790.960938 L 72.519531 791.148438 L 72.347656 791.332031 L 72.171875 791.511719 L 71.8125 791.871094 L 71.445312 792.222656 L 71.257812 792.398438 L 70.875 792.742188 L 70.679688 792.914062 L 70.484375 793.082031 L 70.285156 793.25 L 70.082031 793.414062 L 70.074219 793.421875 L 70.058594 793.421875 L 70.050781 793.417969 L 70.042969 793.417969 L 70.03125 793.40625 L 70.027344 793.398438 L 69.976562 793.277344 L 69.921875 793.15625 L 69.867188 793.039062 L 69.757812 792.8125 L 69.640625 792.59375 L 69.582031 792.492188 L 69.574219 792.476562 L 69.574219 792.453125 L 69.578125 792.445312 L 69.585938 792.441406 Z M 69.589844 792.433594 " fill-opacity="1" fill-rule="nonzero"/><path fill="#000000" d="M 49.65625 793.261719 L 49.59375 793.214844 L 49.535156 793.171875 L 49.410156 793.085938 L 49.34375 793.042969 L 49.21875 792.964844 L 49.152344 792.925781 L 49.046875 792.867188 L 48.9375 792.8125 L 48.832031 792.757812 L 48.71875 792.710938 L 48.609375 792.664062 L 48.496094 792.617188 L 48.378906 792.578125 L 48.265625 792.539062 L 48.148438 792.503906 L 48.03125 792.472656 L 47.910156 792.441406 L 47.792969 792.417969 L 47.671875 792.394531 L 47.550781 792.375 L 47.425781 792.355469 L 47.300781 792.34375 L 47.179688 792.332031 L 47.054688 792.324219 L 46.929688 792.320312 L 46.675781 792.320312 L 46.550781 792.324219 L 46.421875 792.332031 L 46.296875 792.34375 L 46.171875 792.359375 L 46.042969 792.375 L 45.917969 792.398438 L 45.789062 792.421875 L 45.664062 792.445312 L 45.414062 792.507812 L 45.289062 792.542969 L 45.28125 792.546875 L 45.269531 792.546875 L 45.265625 792.542969 L 45.257812 792.539062 L 45.25 792.53125 L 45.246094 792.523438 L 45.199219 792.414062 L 45.152344 792.300781 L 45.101562 792.1875 L 45.046875 792.074219 L 44.992188 791.964844 L 44.816406 791.625 L 44.816406 791.621094 L 44.8125 791.613281 L 44.8125 791.597656 L 44.824219 791.574219 L 44.839844 791.566406 L 45.007812 791.515625 L 45.171875 791.46875 L 45.339844 791.425781 L 45.675781 791.355469 L 45.84375 791.328125 L 46.015625 791.304688 L 46.183594 791.28125 L 46.355469 791.269531 L 46.523438 791.257812 L 46.695312 791.25 L 46.863281 791.25 L 47.03125 791.253906 L 47.199219 791.261719 L 47.367188 791.273438 L 47.535156 791.292969 L 47.699219 791.3125 L 47.863281 791.339844 L 48.023438 791.371094 L 48.105469 791.386719 L 48.183594 791.40625 L 48.265625 791.425781 L 48.34375 791.445312 L 48.421875 791.46875 L 48.503906 791.488281 L 48.582031 791.515625 L 48.660156 791.539062 L 48.734375 791.566406 L 48.890625 791.621094 L 48.964844 791.648438 L 49.1875 791.742188 L 49.335938 791.8125 L 49.40625 791.847656 L 49.480469 791.882812 L 49.761719 792.039062 L 49.828125 792.082031 L 49.898438 792.125 L 49.964844 792.167969 L 50.046875 792.226562 L 50.128906 792.28125 L 50.210938 792.34375 L 50.289062 792.402344 L 50.292969 792.402344 L 50.300781 792.414062 L 50.308594 792.421875 L 50.3125 792.433594 L 50.316406 792.449219 L 50.316406 792.460938 L 50.308594 792.484375 L 50.300781 792.496094 L 49.691406 793.257812 L 49.683594 793.265625 L 49.675781 793.269531 L 49.664062 793.265625 Z M 49.65625 793.261719 " fill-opacity="1" fill-rule="nonzero"/><path fill="#000000" d="M 40.597656 798.773438 L 40.566406 798.695312 L 40.542969 798.613281 L 40.519531 798.535156 L 40.472656 798.371094 L 40.453125 798.292969 L 40.414062 798.128906 L 40.382812 797.964844 L 40.347656 797.71875 L 40.332031 797.554688 L 40.320312 797.308594 L 40.320312 797.226562 L 40.316406 797.144531 L 40.332031 796.816406 L 40.347656 796.652344 L 40.359375 796.570312 L 40.367188 796.488281 L 40.382812 796.40625 L 40.394531 796.324219 L 40.410156 796.242188 L 40.429688 796.160156 L 40.445312 796.078125 L 40.464844 795.996094 L 40.511719 795.832031 L 40.535156 795.753906 L 40.558594 795.671875 L 40.585938 795.589844 L 40.613281 795.511719 L 40.644531 795.429688 L 40.675781 795.351562 L 40.707031 795.269531 L 40.742188 795.191406 L 40.777344 795.109375 L 40.8125 795.03125 L 40.929688 794.796875 L 41.058594 794.5625 L 41.105469 794.484375 L 41.152344 794.410156 L 41.199219 794.332031 L 41.351562 794.109375 L 41.515625 793.886719 L 41.574219 793.816406 L 41.628906 793.746094 L 41.691406 793.671875 L 41.75 793.601562 L 41.8125 793.53125 L 41.875 793.464844 L 41.9375 793.394531 L 42.003906 793.328125 L 42.066406 793.261719 L 42.132812 793.195312 L 42.273438 793.0625 L 42.339844 793 L 42.414062 792.9375 L 42.554688 792.8125 L 42.628906 792.753906 L 42.703125 792.691406 L 42.777344 792.632812 L 42.78125 792.632812 L 42.785156 792.628906 L 42.804688 792.628906 L 42.808594 792.632812 L 42.816406 792.632812 L 42.820312 792.636719 L 42.820312 792.644531 L 43.28125 793.546875 L 43.289062 793.5625 L 43.289062 793.582031 L 43.277344 793.605469 L 43.269531 793.609375 L 43.148438 793.710938 L 43.03125 793.816406 L 42.914062 793.925781 L 42.804688 794.035156 L 42.695312 794.148438 L 42.589844 794.265625 L 42.488281 794.382812 L 42.390625 794.503906 L 42.296875 794.628906 L 42.207031 794.75 L 42.121094 794.878906 L 42.039062 795.003906 L 41.964844 795.136719 L 41.890625 795.265625 L 41.824219 795.398438 L 41.761719 795.53125 L 41.703125 795.664062 L 41.652344 795.796875 L 41.625 795.863281 L 41.578125 795.996094 L 41.558594 796.066406 L 41.519531 796.199219 L 41.503906 796.265625 L 41.484375 796.335938 L 41.472656 796.402344 L 41.457031 796.472656 L 41.421875 796.671875 L 41.414062 796.742188 L 41.398438 796.875 L 41.394531 796.941406 L 41.390625 797.011719 L 41.386719 797.078125 L 41.386719 797.277344 L 41.390625 797.347656 L 41.398438 797.480469 L 41.40625 797.546875 L 41.410156 797.613281 L 41.421875 797.679688 L 41.429688 797.75 L 41.441406 797.820312 L 41.457031 797.890625 L 41.472656 797.964844 L 41.472656 798 L 41.464844 798.015625 L 41.453125 798.027344 L 41.25 798.214844 L 41.148438 798.3125 L 40.949219 798.511719 L 40.855469 798.613281 L 40.757812 798.71875 L 40.664062 798.824219 L 40.660156 798.824219 L 40.644531 798.832031 L 40.636719 798.828125 L 40.628906 798.820312 L 40.609375 798.796875 L 40.601562 798.789062 Z M 40.597656 798.773438 " fill-opacity="1" fill-rule="nonzero"/><path fill="#000000" d="M 64.683594 796.03125 L 65.082031 795.773438 L 65.476562 795.511719 L 66.257812 794.980469 L 66.632812 794.71875 L 67.007812 794.449219 L 67.378906 794.179688 L 67.746094 793.90625 L 67.75 793.90625 L 67.757812 793.902344 L 67.769531 793.898438 L 67.785156 793.898438 L 67.792969 793.902344 L 67.804688 793.914062 L 67.808594 793.921875 L 68.210938 794.832031 L 68.214844 794.84375 L 68.21875 794.851562 L 68.21875 794.871094 L 68.214844 794.882812 L 68.207031 794.890625 L 68.203125 794.898438 L 68.191406 794.90625 L 67.816406 795.183594 L 67.4375 795.460938 L 67.050781 795.730469 L 66.667969 796 L 65.886719 796.523438 L 65.492188 796.78125 L 65.097656 797.035156 L 65.09375 797.035156 L 65.085938 797.039062 L 65.070312 797.039062 L 65.0625 797.035156 L 65.054688 797.035156 L 65.050781 797.027344 L 65.042969 797.023438 L 65.042969 797.015625 L 64.667969 796.085938 L 64.664062 796.078125 L 64.664062 796.0625 L 64.667969 796.054688 L 64.667969 796.046875 L 64.671875 796.039062 L 64.679688 796.035156 Z M 64.683594 796.03125 " fill-opacity="1" fill-rule="nonzero"/><path fill="#000000" d="M 51.816406 794.296875 L 51.867188 794.417969 L 51.914062 794.535156 L 52.007812 794.777344 L 52.085938 795.019531 L 52.121094 795.144531 L 52.152344 795.265625 L 52.175781 795.367188 L 52.199219 795.464844 L 52.21875 795.5625 L 52.238281 795.664062 L 52.253906 795.765625 L 52.269531 795.863281 L 52.292969 796.066406 L 52.304688 796.171875 L 52.320312 796.375 L 52.324219 796.480469 L 52.328125 796.582031 L 52.328125 796.792969 L 52.316406 797.109375 L 52.308594 797.214844 L 52.300781 797.324219 L 52.289062 797.429688 L 52.277344 797.539062 L 52.246094 797.757812 L 52.1875 798.085938 L 52.164062 798.195312 L 52.140625 798.308594 L 52.113281 798.417969 L 52.085938 798.53125 L 52.054688 798.644531 L 52.050781 798.652344 L 52.042969 798.660156 L 52.03125 798.667969 L 52.019531 798.667969 L 51.898438 798.664062 L 51.773438 798.660156 L 51.515625 798.660156 L 51.382812 798.664062 L 51.246094 798.667969 L 51.109375 798.675781 L 50.96875 798.683594 L 50.957031 798.683594 L 50.949219 798.679688 L 50.9375 798.667969 L 50.9375 798.648438 L 50.972656 798.53125 L 51.066406 798.191406 L 51.09375 798.078125 L 51.140625 797.851562 L 51.179688 797.632812 L 51.210938 797.414062 L 51.234375 797.195312 L 51.25 796.984375 L 51.257812 796.773438 L 51.257812 796.667969 L 51.253906 796.5625 L 51.25 796.460938 L 51.246094 796.355469 L 51.238281 796.253906 L 51.214844 796.050781 L 51.199219 795.953125 L 51.183594 795.851562 L 51.164062 795.753906 L 51.144531 795.652344 L 51.121094 795.554688 L 51.097656 795.460938 L 51.042969 795.265625 L 51.003906 795.144531 L 51 795.132812 L 51 795.089844 L 51.003906 795.078125 L 51.019531 795.054688 L 51.125 794.949219 L 51.222656 794.855469 L 51.3125 794.761719 L 51.402344 794.664062 L 51.574219 794.476562 L 51.65625 794.382812 L 51.734375 794.289062 L 51.746094 794.273438 L 51.757812 794.265625 L 51.765625 794.261719 L 51.777344 794.257812 L 51.789062 794.261719 L 51.796875 794.269531 L 51.804688 794.28125 Z M 51.816406 794.296875 " fill-opacity="1" fill-rule="nonzero"/><path fill="#000000" d="M 63.03125 798.257812 L 62.84375 798.359375 L 62.65625 798.464844 L 62.082031 798.769531 L 61.507812 799.0625 L 61.3125 799.160156 L 61.121094 799.253906 L 60.925781 799.347656 L 60.734375 799.441406 L 60.539062 799.53125 L 60.347656 799.621094 L 60.152344 799.707031 L 59.957031 799.796875 L 59.945312 799.796875 L 59.933594 799.792969 L 59.925781 799.785156 L 59.921875 799.777344 L 59.757812 798.769531 L 59.757812 798.746094 L 59.761719 798.734375 L 59.765625 798.726562 L 59.796875 798.695312 L 60.175781 798.523438 L 60.550781 798.34375 L 60.921875 798.160156 L 61.289062 797.976562 L 61.652344 797.789062 L 62.015625 797.597656 L 62.726562 797.207031 L 62.738281 797.203125 L 62.746094 797.203125 L 62.753906 797.207031 L 62.761719 797.21875 L 62.847656 797.53125 L 62.898438 797.695312 L 62.949219 797.855469 L 63.003906 798.015625 L 63.0625 798.179688 L 63.066406 798.1875 L 63.066406 798.210938 L 63.058594 798.234375 L 63.042969 798.25 Z M 63.03125 798.257812 " fill-opacity="1" fill-rule="nonzero"/><path fill="#000000" d="M 57.636719 799.597656 L 57.644531 799.59375 L 57.65625 799.59375 L 57.664062 799.597656 L 57.667969 799.597656 L 57.667969 799.605469 L 57.671875 799.609375 L 57.671875 799.617188 L 57.753906 800.660156 L 57.753906 800.664062 L 57.75 800.671875 L 57.75 800.679688 L 57.746094 800.6875 L 57.722656 800.703125 L 57.339844 800.84375 L 56.957031 800.976562 L 56.570312 801.105469 L 55.996094 801.292969 L 55.613281 801.410156 L 55.421875 801.464844 L 55.230469 801.523438 L 55.039062 801.574219 L 54.847656 801.628906 L 54.65625 801.679688 L 54.644531 801.683594 L 54.625 801.683594 L 54.621094 801.679688 L 54.609375 801.65625 L 54.613281 801.644531 L 54.710938 800.59375 L 54.710938 800.585938 L 54.722656 800.5625 L 54.726562 800.558594 L 54.75 800.546875 L 55.097656 800.449219 L 55.453125 800.34375 L 55.808594 800.230469 L 56.167969 800.117188 L 56.53125 799.992188 L 56.898438 799.867188 L 57.265625 799.734375 Z M 57.636719 799.597656 " fill-opacity="1" fill-rule="nonzero"/><path fill="#000000" d="M 45.0625 802.238281 L 44.949219 802.210938 L 44.722656 802.148438 L 44.613281 802.113281 L 44.503906 802.082031 L 44.398438 802.046875 L 44.289062 802.011719 L 44.078125 801.933594 L 43.875 801.855469 L 43.671875 801.769531 L 43.574219 801.722656 L 43.476562 801.679688 L 43.378906 801.632812 L 43.285156 801.585938 L 43.097656 801.484375 L 42.917969 801.382812 L 42.738281 801.273438 L 42.652344 801.21875 L 42.480469 801.101562 L 42.398438 801.042969 L 42.316406 800.980469 L 42.234375 800.921875 L 42.15625 800.859375 L 42.078125 800.792969 L 42 800.730469 L 42 800.726562 L 41.992188 800.71875 L 41.988281 800.710938 L 41.988281 800.6875 L 41.992188 800.683594 L 41.996094 800.675781 L 42.65625 799.960938 L 42.664062 799.957031 L 42.671875 799.949219 L 42.683594 799.945312 L 42.714844 799.945312 L 42.726562 799.949219 L 42.734375 799.957031 L 42.992188 800.152344 L 43.125 800.246094 L 43.261719 800.335938 L 43.394531 800.417969 L 43.535156 800.5 L 43.671875 800.578125 L 43.816406 800.652344 L 44.058594 800.769531 L 44.179688 800.824219 L 44.304688 800.875 L 44.433594 800.925781 L 44.558594 800.972656 L 44.6875 801.015625 L 44.816406 801.054688 L 45.105469 801.140625 L 45.394531 801.222656 L 45.402344 801.226562 L 45.40625 801.230469 L 45.414062 801.234375 L 45.417969 801.238281 L 45.417969 801.265625 L 45.105469 802.214844 L 45.101562 802.222656 L 45.097656 802.226562 L 45.09375 802.234375 L 45.089844 802.238281 Z M 45.0625 802.238281 " fill-opacity="1" fill-rule="nonzero"/><path fill="#000000" d="M 48.820312 802.597656 L 48.640625 802.601562 L 48.457031 802.605469 L 48.09375 802.605469 L 47.910156 802.601562 L 47.550781 802.585938 L 47.367188 802.578125 L 47.359375 802.578125 L 47.351562 802.574219 L 47.339844 802.5625 L 47.339844 802.539062 L 47.539062 801.542969 L 47.542969 801.53125 L 47.550781 801.523438 L 47.558594 801.519531 L 47.566406 801.519531 L 47.8125 801.527344 L 48.0625 801.53125 L 48.554688 801.53125 L 48.800781 801.527344 L 49.046875 801.515625 L 49.289062 801.507812 L 49.535156 801.492188 L 49.558594 801.492188 L 49.578125 801.488281 L 49.589844 801.484375 L 49.597656 801.480469 L 49.625 801.453125 L 50.019531 800.765625 L 50.039062 800.746094 L 50.054688 800.738281 L 50.0625 800.738281 L 50.070312 800.734375 L 50.078125 800.734375 L 51.148438 800.84375 L 51.152344 800.847656 L 51.15625 800.847656 L 51.164062 800.851562 L 51.164062 800.855469 L 51.167969 800.859375 L 51.171875 800.867188 L 51.171875 800.871094 L 51.167969 800.878906 L 51.167969 800.882812 L 50.929688 801.324219 L 50.925781 801.332031 L 50.929688 801.34375 L 50.933594 801.347656 L 50.945312 801.351562 L 50.949219 801.351562 L 52.476562 801.097656 L 52.488281 801.097656 L 52.496094 801.101562 L 52.503906 801.109375 L 52.507812 801.117188 L 52.511719 801.121094 L 52.511719 801.136719 L 52.480469 801.261719 L 52.425781 801.519531 L 52.355469 801.90625 L 52.335938 802.039062 L 52.320312 802.167969 L 52.320312 802.179688 L 52.3125 802.195312 L 52.300781 802.207031 L 52.292969 802.210938 L 52.28125 802.214844 L 52.273438 802.21875 L 52.089844 802.25 L 51.730469 802.3125 L 51.546875 802.339844 L 51.367188 802.367188 L 51.183594 802.394531 L 51 802.417969 L 50.820312 802.441406 L 50.257812 802.503906 L 50.238281 802.507812 L 50.222656 802.515625 L 50.210938 802.523438 L 50.199219 802.539062 L 50.097656 802.683594 L 50 802.828125 L 49.796875 803.117188 L 49.691406 803.261719 L 49.480469 803.542969 L 49.375 803.6875 L 49.15625 803.96875 L 49.046875 804.105469 L 48.820312 804.386719 L 48.59375 804.660156 L 48.359375 804.933594 L 48.238281 805.070312 L 48.121094 805.203125 L 48 805.339844 L 47.875 805.472656 L 47.753906 805.609375 L 47.628906 805.738281 L 47.503906 805.871094 L 47.375 806.003906 L 47.25 806.136719 L 47.117188 806.265625 L 46.988281 806.398438 L 46.589844 806.785156 L 46.457031 806.910156 L 46.449219 806.917969 L 46.441406 806.917969 L 46.425781 806.910156 L 46.425781 806.90625 L 46.363281 806.800781 L 46.304688 806.695312 L 46.238281 806.589844 L 46.097656 806.378906 L 46.023438 806.273438 L 45.945312 806.171875 L 45.863281 806.066406 L 45.855469 806.058594 L 45.851562 806.050781 L 45.851562 806.019531 L 45.855469 806.011719 L 45.859375 806 L 45.867188 805.992188 L 46.074219 805.796875 L 46.476562 805.394531 L 46.671875 805.191406 L 46.867188 804.984375 L 47.25 804.570312 L 47.4375 804.363281 L 47.621094 804.148438 L 47.800781 803.9375 L 47.980469 803.722656 L 48.15625 803.507812 L 48.332031 803.289062 L 48.503906 803.070312 L 48.671875 802.847656 L 48.835938 802.625 L 48.839844 802.621094 L 48.839844 802.609375 L 48.835938 802.601562 L 48.828125 802.597656 Z M 48.820312 802.597656 " fill-opacity="1" fill-rule="nonzero"/><path fill="#000000" d="M 44.230469 807.539062 L 44.695312 808.457031 L 44.699219 808.464844 L 44.699219 808.484375 L 44.691406 808.5 L 44.6875 808.503906 L 44.683594 808.511719 L 44.308594 808.824219 L 44.117188 808.980469 L 43.929688 809.136719 L 43.738281 809.289062 L 43.542969 809.441406 L 43.351562 809.59375 L 43.15625 809.746094 L 42.960938 809.894531 L 42.765625 810.046875 L 42.566406 810.195312 L 42.371094 810.339844 L 42.171875 810.488281 L 41.96875 810.632812 L 41.769531 810.777344 L 41.566406 810.921875 L 41.558594 810.925781 L 41.554688 810.929688 L 41.542969 810.929688 L 41.539062 810.925781 L 41.53125 810.921875 L 41.527344 810.917969 L 41.523438 810.910156 L 41.078125 810.007812 L 41.070312 809.992188 L 41.070312 809.972656 L 41.074219 809.96875 L 41.078125 809.960938 L 41.085938 809.953125 L 41.09375 809.949219 L 41.460938 809.683594 L 41.824219 809.414062 L 42.183594 809.144531 L 42.542969 808.871094 L 42.898438 808.59375 L 43.25 808.308594 L 43.597656 808.023438 L 43.941406 807.734375 L 44.183594 807.53125 L 44.191406 807.523438 L 44.210938 807.523438 L 44.21875 807.527344 Z M 44.230469 807.539062 " fill-opacity="1" fill-rule="nonzero"/><path fill="#000000" d="M 35.21875 813.53125 L 35.214844 813.519531 L 35.214844 813.496094 L 35.222656 813.480469 L 35.238281 813.464844 L 35.25 813.457031 L 35.605469 813.277344 L 35.960938 813.089844 L 36.3125 812.902344 L 36.664062 812.710938 L 37.011719 812.519531 L 37.359375 812.324219 L 37.707031 812.125 L 38.050781 811.921875 L 38.636719 811.570312 L 38.929688 811.390625 L 39.21875 811.207031 L 39.226562 811.203125 L 39.242188 811.210938 L 39.242188 811.21875 L 39.285156 811.34375 L 39.332031 811.46875 L 39.375 811.589844 L 39.421875 811.710938 L 39.46875 811.828125 L 39.519531 811.941406 L 39.566406 812.058594 L 39.617188 812.167969 L 39.621094 812.175781 L 39.621094 812.203125 L 39.613281 812.21875 L 39.605469 812.226562 L 39.597656 812.230469 L 39.355469 812.382812 L 39.109375 812.535156 L 38.863281 812.683594 L 38.613281 812.832031 L 37.863281 813.265625 L 37.613281 813.40625 L 36.851562 813.828125 L 36.597656 813.964844 L 36.339844 814.097656 L 36.082031 814.234375 L 35.824219 814.367188 L 35.5625 814.496094 L 35.554688 814.5 L 35.542969 814.5 L 35.535156 814.492188 L 35.527344 814.492188 L 35.527344 814.484375 L 35.523438 814.480469 Z M 35.21875 813.53125 " fill-opacity="1" fill-rule="nonzero"/><g clip-path="url(#f31ac1c2a0)"><path fill="#000000" d="M 29.839844 815.726562 L 29.972656 815.695312 L 30.101562 815.660156 L 30.226562 815.625 L 30.476562 815.546875 L 30.597656 815.507812 L 30.71875 815.464844 L 30.835938 815.421875 L 31.144531 815.304688 L 31.753906 815.0625 L 32.054688 814.9375 L 32.640625 814.6875 L 33.203125 814.4375 L 33.222656 814.4375 L 33.230469 814.445312 L 33.234375 814.453125 L 33.234375 814.457031 L 33.253906 814.574219 L 33.277344 814.695312 L 33.300781 814.820312 L 33.328125 814.941406 L 33.355469 815.066406 L 33.386719 815.191406 L 33.421875 815.316406 L 33.460938 815.445312 L 33.460938 815.453125 L 33.464844 815.464844 L 33.449219 815.496094 L 33.433594 815.503906 L 33.1875 815.613281 L 32.933594 815.722656 L 32.671875 815.835938 L 32.402344 815.949219 L 32.125 816.0625 L 31.839844 816.175781 L 31.546875 816.292969 L 31.089844 816.46875 L 30.9375 816.519531 L 30.785156 816.574219 L 30.628906 816.621094 L 30.324219 816.707031 L 30.171875 816.742188 L 30.015625 816.777344 L 30.007812 816.78125 L 29.996094 816.777344 L 29.984375 816.777344 L 29.972656 816.769531 L 29.957031 816.753906 L 29.953125 816.742188 L 29.949219 816.734375 L 29.949219 816.730469 L 29.835938 815.734375 L 29.835938 815.730469 Z M 29.839844 815.726562 " fill-opacity="1" fill-rule="nonzero"/></g></g></g></g></svg>