<svg xmlns="http://www.w3.org/2000/svg" xmlns:xlink="http://www.w3.org/1999/xlink" width="794" zoomAndPan="magnify" viewBox="0 0 595.5 842.249979" height="1123" preserveAspectRatio="xMidYMid meet" version="1.0"><defs><clipPath id="3f335e029c"><path d="M 164 0.398438 L 341.894531 0.398438 L 341.894531 181 L 164 181 Z M 164 0.398438 " clip-rule="nonzero"/></clipPath><clipPath id="4dc2d25ee7"><path d="M 0.820312 274 L 16 274 L 16 284.5 L 0.820312 284.5 Z M 0.820312 274 " clip-rule="nonzero"/></clipPath><clipPath id="fc80b343bf"><rect x="0" width="343" y="0" height="286"/></clipPath></defs><g transform="matrix(1, 0, 0, 1, 29, 532)"><g clip-path="url(#fc80b343bf)"><g clip-path="url(#3f335e029c)"><path fill="#000000" d="M 200.550781 68.394531 L 193.824219 65.457031 L 187.15625 62.535156 L 185.84375 61.957031 L 184.671875 61.429688 L 183.582031 60.929688 L 182.554688 60.449219 L 181.578125 59.984375 L 180.636719 59.523438 L 179.734375 59.066406 L 178.871094 58.617188 L 178.023438 58.164062 L 177.203125 57.714844 L 176.417969 57.265625 L 175.652344 56.816406 L 174.914062 56.367188 L 174.199219 55.914062 L 173.511719 55.460938 L 172.84375 55.007812 L 172.554688 54.804688 L 172.277344 54.597656 L 172.003906 54.390625 L 171.738281 54.179688 L 171.480469 53.96875 L 171.230469 53.753906 L 170.992188 53.542969 L 170.761719 53.332031 L 170.542969 53.117188 L 170.332031 52.90625 L 170.132812 52.695312 L 169.941406 52.480469 L 169.761719 52.269531 L 169.59375 52.058594 L 169.433594 51.847656 L 169.285156 51.640625 L 169.144531 51.429688 L 169.019531 51.222656 L 168.898438 51.015625 L 168.792969 50.808594 L 168.695312 50.605469 L 168.613281 50.402344 L 168.535156 50.199219 L 168.472656 49.996094 L 168.417969 49.792969 L 168.375 49.597656 L 168.339844 49.398438 L 168.316406 49.203125 L 168.304688 49.007812 L 168.300781 48.8125 L 168.3125 48.621094 L 168.332031 48.425781 L 168.355469 48.273438 L 168.382812 48.121094 L 168.417969 47.972656 L 168.464844 47.820312 L 168.515625 47.671875 L 168.570312 47.523438 L 168.632812 47.375 L 168.707031 47.226562 L 168.808594 47.039062 L 168.921875 46.855469 L 169.042969 46.679688 L 169.175781 46.507812 L 169.316406 46.335938 L 169.46875 46.175781 L 169.632812 46.015625 L 169.808594 45.859375 L 169.992188 45.714844 L 170.183594 45.570312 L 170.390625 45.429688 L 170.601562 45.296875 L 170.828125 45.167969 L 171.066406 45.046875 L 171.308594 44.925781 L 171.566406 44.8125 L 171.828125 44.703125 L 172.101562 44.597656 L 172.386719 44.5 L 172.679688 44.410156 L 172.984375 44.316406 L 173.300781 44.234375 L 173.625 44.152344 L 173.960938 44.078125 L 174.304688 44.007812 L 174.660156 43.941406 L 175.03125 43.875 L 175.414062 43.816406 L 175.808594 43.761719 L 176.226562 43.707031 L 177.175781 43.601562 L 177.90625 43.53125 L 178.628906 43.46875 L 179.347656 43.410156 L 180.0625 43.359375 L 180.769531 43.320312 L 181.46875 43.28125 L 182.164062 43.257812 L 182.855469 43.238281 L 184.207031 43.210938 L 185.566406 43.191406 L 186.933594 43.179688 L 188.3125 43.171875 L 189.707031 43.171875 L 191.101562 43.179688 L 192.511719 43.195312 L 193.933594 43.21875 L 195.363281 43.25 L 196.800781 43.285156 L 198.25 43.332031 L 199.707031 43.382812 L 201.175781 43.441406 L 202.65625 43.507812 L 204.140625 43.578125 L 205.640625 43.660156 L 206.890625 43.734375 L 208.144531 43.820312 L 209.410156 43.917969 L 210.691406 44.019531 L 211.984375 44.136719 L 213.296875 44.265625 L 214.628906 44.410156 L 215.988281 44.558594 L 217.359375 44.722656 L 218.769531 44.898438 L 220.222656 45.085938 L 221.722656 45.292969 L 223.28125 45.511719 L 224.921875 45.75 L 226.660156 46.007812 L 228.535156 46.296875 L 230.367188 46.574219 L 231.988281 46.808594 L 233.488281 47.003906 L 234.898438 47.175781 L 235.585938 47.25 L 236.257812 47.320312 L 236.917969 47.378906 L 237.5625 47.4375 L 238.199219 47.484375 L 238.820312 47.53125 L 239.4375 47.566406 L 240.039062 47.601562 L 240.648438 47.625 L 241.246094 47.644531 L 241.835938 47.65625 L 242.421875 47.664062 L 242.996094 47.667969 L 243.566406 47.664062 L 244.128906 47.652344 L 244.6875 47.632812 L 245.238281 47.609375 L 245.78125 47.578125 L 246.320312 47.542969 L 246.855469 47.5 L 247.382812 47.449219 L 247.90625 47.394531 L 248.425781 47.332031 L 248.9375 47.265625 L 249.585938 47.171875 L 250.242188 47.066406 L 250.898438 46.957031 L 251.5625 46.832031 L 252.226562 46.703125 L 252.898438 46.5625 L 253.570312 46.414062 L 254.246094 46.253906 L 254.921875 46.089844 L 255.609375 45.914062 L 256.292969 45.726562 L 256.980469 45.535156 L 257.675781 45.332031 L 258.371094 45.121094 L 259.066406 44.902344 L 259.765625 44.671875 L 260.464844 44.4375 L 261.171875 44.191406 L 261.878906 43.933594 L 262.585938 43.671875 L 263.296875 43.398438 L 264.007812 43.121094 L 264.71875 42.832031 L 265.429688 42.539062 L 266.144531 42.230469 L 266.855469 41.921875 L 267.570312 41.601562 L 268.285156 41.273438 L 268.996094 40.9375 L 269.707031 40.59375 L 270.421875 40.246094 L 271.132812 39.886719 L 271.910156 39.488281 L 273.464844 38.667969 L 274.242188 38.246094 L 275.015625 37.816406 L 275.792969 37.382812 L 276.566406 36.9375 L 277.34375 36.488281 L 278.113281 36.035156 L 278.890625 35.570312 L 279.660156 35.097656 L 280.429688 34.621094 L 281.203125 34.136719 L 281.972656 33.644531 L 282.738281 33.148438 L 283.507812 32.640625 L 284.277344 32.125 L 285.042969 31.605469 L 285.808594 31.078125 L 286.574219 30.542969 L 287.339844 30.003906 L 288.101562 29.457031 L 288.867188 28.902344 L 289.625 28.339844 L 290.386719 27.769531 L 291.148438 27.195312 L 291.90625 26.613281 L 292.664062 26.023438 L 293.417969 25.425781 L 294.175781 24.820312 L 294.929688 24.210938 L 295.683594 23.597656 L 297.242188 22.308594 L 298.792969 21.015625 L 301.878906 18.414062 L 303.417969 17.105469 L 304.949219 15.792969 L 306.472656 14.476562 L 307.992188 13.15625 L 309.125 12.179688 L 310.230469 11.25 L 311.3125 10.363281 L 312.371094 9.519531 L 312.894531 9.113281 L 313.410156 8.710938 L 313.921875 8.324219 L 314.433594 7.941406 L 314.9375 7.574219 L 315.441406 7.210938 L 315.9375 6.859375 L 316.429688 6.515625 L 316.921875 6.183594 L 317.40625 5.855469 L 317.890625 5.542969 L 318.367188 5.234375 L 318.84375 4.9375 L 319.316406 4.648438 L 319.785156 4.367188 L 320.25 4.097656 L 320.710938 3.835938 L 321.167969 3.582031 L 321.621094 3.339844 L 322.070312 3.105469 L 322.519531 2.878906 L 322.960938 2.664062 L 323.398438 2.453125 L 323.835938 2.253906 L 324.285156 2.058594 L 324.734375 1.875 L 325.191406 1.695312 L 325.644531 1.53125 L 326.101562 1.378906 L 326.558594 1.234375 L 327.015625 1.101562 L 327.472656 0.976562 L 327.925781 0.867188 L 328.375 0.769531 L 328.820312 0.683594 L 329.265625 0.609375 L 329.703125 0.546875 L 330.140625 0.492188 L 330.574219 0.453125 L 330.996094 0.425781 L 331.417969 0.410156 L 331.828125 0.40625 L 332.234375 0.417969 L 332.636719 0.433594 L 333.03125 0.464844 L 333.417969 0.507812 L 333.800781 0.566406 L 334.175781 0.632812 L 334.546875 0.710938 L 334.90625 0.800781 L 335.261719 0.902344 L 335.609375 1.015625 L 335.949219 1.140625 L 336.28125 1.277344 L 336.609375 1.425781 L 336.929688 1.585938 L 337.15625 1.710938 L 337.378906 1.839844 L 337.59375 1.972656 L 337.808594 2.113281 L 338.015625 2.261719 L 338.21875 2.414062 L 338.417969 2.570312 L 338.609375 2.738281 L 338.832031 2.933594 L 339.039062 3.140625 L 339.246094 3.355469 L 339.445312 3.574219 L 339.636719 3.804688 L 339.996094 4.28125 L 340.164062 4.535156 L 340.324219 4.789062 L 340.476562 5.050781 L 340.621094 5.320312 L 340.761719 5.597656 L 340.890625 5.882812 L 341.011719 6.167969 L 341.128906 6.464844 L 341.230469 6.761719 L 341.332031 7.070312 L 341.417969 7.375 L 341.5 7.695312 L 341.570312 8.011719 L 341.636719 8.335938 L 341.6875 8.664062 L 341.738281 8.996094 L 341.773438 9.332031 L 341.800781 9.671875 L 341.820312 10.011719 L 341.832031 10.355469 L 341.832031 10.699219 L 341.824219 11.042969 L 341.8125 11.390625 L 341.785156 11.738281 L 341.75 12.085938 L 341.699219 12.496094 L 341.640625 12.910156 L 341.570312 13.324219 L 341.492188 13.742188 L 341.40625 14.160156 L 341.304688 14.582031 L 341.199219 15.007812 L 341.082031 15.433594 L 340.953125 15.863281 L 340.816406 16.292969 L 340.671875 16.726562 L 340.511719 17.160156 L 340.347656 17.601562 L 340.171875 18.039062 L 339.988281 18.484375 L 339.792969 18.929688 L 339.585938 19.375 L 339.371094 19.824219 L 339.148438 20.28125 L 338.914062 20.734375 L 338.671875 21.191406 L 338.417969 21.652344 L 338.152344 22.113281 L 337.882812 22.578125 L 337.597656 23.046875 L 337.304688 23.515625 L 337 23.992188 L 336.6875 24.464844 L 336.367188 24.945312 L 336.035156 25.425781 L 335.691406 25.914062 L 335.339844 26.402344 L 334.339844 27.746094 L 333.832031 28.410156 L 333.320312 29.074219 L 332.800781 29.726562 L 332.277344 30.382812 L 331.75 31.03125 L 331.21875 31.671875 L 330.574219 32.433594 L 329.925781 33.191406 L 329.269531 33.941406 L 328.605469 34.6875 L 327.933594 35.425781 L 327.253906 36.15625 L 326.566406 36.882812 L 325.875 37.601562 L 324.121094 39.394531 L 321.703125 41.851562 L 319.28125 44.316406 L 317.503906 46.128906 L 315.90625 47.78125 L 314.453125 49.296875 L 313.054688 50.777344 L 311.734375 52.191406 L 310.492188 53.558594 L 309.304688 54.878906 L 308.441406 55.863281 L 307.605469 56.847656 L 306.785156 57.828125 L 305.996094 58.8125 L 305.222656 59.792969 L 304.476562 60.769531 L 303.753906 61.75 L 303.054688 62.726562 L 302.375 63.699219 L 301.722656 64.675781 L 301.089844 65.648438 L 300.484375 66.617188 L 300.191406 67.105469 L 299.902344 67.589844 L 299.617188 68.074219 L 299.339844 68.558594 L 299.066406 69.042969 L 298.796875 69.527344 L 298.539062 70.011719 L 298.285156 70.492188 L 297.925781 71.199219 L 297.578125 71.902344 L 297.242188 72.601562 L 296.921875 73.300781 L 296.613281 74 L 296.316406 74.695312 L 296.035156 75.390625 L 295.765625 76.085938 L 295.511719 76.78125 L 295.265625 77.472656 L 295.035156 78.160156 L 294.820312 78.851562 L 294.617188 79.535156 L 294.425781 80.222656 L 294.246094 80.90625 L 294.082031 81.589844 L 293.988281 81.988281 L 293.902344 82.394531 L 293.824219 82.800781 L 293.742188 83.214844 L 293.671875 83.636719 L 293.601562 84.0625 L 293.539062 84.492188 L 293.476562 84.925781 L 293.417969 85.367188 L 293.367188 85.8125 L 293.273438 86.71875 L 293.199219 87.644531 L 293.140625 88.59375 L 293.101562 89.5625 L 293.074219 90.554688 L 293.066406 91.566406 L 293.074219 92.601562 L 293.101562 93.660156 L 293.144531 94.746094 L 293.199219 95.851562 L 293.277344 96.988281 L 293.367188 98.140625 L 293.464844 99.296875 L 293.570312 100.445312 L 293.683594 101.589844 L 293.808594 102.734375 L 293.941406 103.875 L 294.082031 105.011719 L 294.230469 106.148438 L 294.386719 107.277344 L 294.550781 108.40625 L 294.726562 109.53125 L 294.90625 110.652344 L 295.101562 111.769531 L 295.300781 112.886719 L 295.507812 114 L 295.726562 115.109375 L 297.019531 121.636719 L 297.511719 124.144531 L 297.953125 126.433594 L 298.371094 128.65625 L 298.761719 130.761719 L 299.128906 132.78125 L 299.472656 134.730469 L 299.808594 136.699219 L 300.125 138.613281 L 300.425781 140.484375 L 300.707031 142.324219 L 300.976562 144.132812 L 301.230469 145.917969 L 301.46875 147.679688 L 301.691406 149.425781 L 301.859375 150.792969 L 302.007812 152.15625 L 302.136719 153.511719 L 302.253906 154.859375 L 302.351562 156.199219 L 302.4375 157.53125 L 302.503906 158.859375 L 302.554688 160.175781 L 302.570312 160.820312 L 302.574219 161.460938 L 302.574219 162.097656 L 302.5625 162.730469 L 302.539062 163.359375 L 302.511719 163.984375 L 302.46875 164.605469 L 302.421875 165.21875 L 302.363281 165.832031 L 302.296875 166.441406 L 302.214844 167.046875 L 302.128906 167.644531 L 302.035156 168.242188 L 301.929688 168.832031 L 301.816406 169.417969 L 301.691406 170.003906 L 301.605469 170.375 L 301.515625 170.746094 L 301.417969 171.117188 L 301.3125 171.484375 L 301.207031 171.847656 L 301.089844 172.210938 L 300.972656 172.566406 L 300.847656 172.914062 L 300.71875 173.257812 L 300.585938 173.59375 L 300.449219 173.925781 L 300.308594 174.246094 L 300.160156 174.5625 L 300.011719 174.871094 L 299.859375 175.171875 L 299.699219 175.460938 L 299.542969 175.742188 L 299.378906 176.015625 L 299.210938 176.277344 L 299.042969 176.535156 L 298.871094 176.78125 L 298.695312 177.015625 L 298.515625 177.246094 L 298.335938 177.464844 L 298.152344 177.675781 L 297.964844 177.875 L 297.777344 178.066406 L 297.582031 178.246094 L 297.386719 178.421875 L 297.191406 178.582031 L 296.988281 178.734375 L 296.785156 178.882812 L 296.605469 179 L 296.421875 179.117188 L 296.238281 179.21875 L 296.058594 179.320312 L 295.871094 179.410156 L 295.6875 179.496094 L 295.503906 179.574219 L 295.316406 179.644531 L 295.132812 179.710938 L 294.945312 179.765625 L 294.757812 179.816406 L 294.574219 179.859375 L 294.199219 179.921875 L 294.007812 179.941406 L 293.824219 179.957031 L 293.664062 179.960938 L 293.503906 179.960938 L 293.34375 179.957031 L 293.183594 179.949219 L 293.027344 179.933594 L 292.867188 179.914062 L 292.707031 179.890625 L 292.546875 179.863281 L 292.386719 179.828125 L 292.226562 179.789062 L 291.902344 179.695312 L 291.578125 179.582031 L 291.253906 179.449219 L 290.929688 179.292969 L 290.601562 179.121094 L 290.277344 178.925781 L 289.949219 178.714844 L 289.621094 178.480469 L 289.289062 178.226562 L 288.960938 177.953125 L 288.632812 177.660156 L 288.300781 177.347656 L 287.972656 177.015625 L 287.640625 176.664062 L 287.308594 176.292969 L 286.976562 175.902344 L 286.644531 175.492188 L 286.3125 175.058594 L 285.976562 174.609375 L 285.648438 174.144531 L 285.3125 173.65625 L 284.980469 173.152344 L 284.648438 172.625 L 284.308594 172.078125 L 283.972656 171.507812 L 283.625 170.90625 L 283.269531 170.265625 L 282.609375 169.054688 L 281.949219 167.804688 L 281.292969 166.515625 L 280.632812 165.1875 L 279.972656 163.816406 L 279.316406 162.410156 L 278.65625 160.960938 L 277.996094 159.46875 L 277.339844 157.941406 L 276.675781 156.371094 L 276.015625 154.757812 L 275.347656 153.101562 L 274.683594 151.398438 L 274.011719 149.652344 L 273.339844 147.855469 L 272.660156 146.003906 L 272.121094 144.515625 L 271.539062 142.882812 L 270.035156 138.601562 L 268.957031 135.542969 L 268.164062 133.308594 L 267.4375 131.285156 L 266.761719 129.433594 L 266.09375 127.640625 L 265.441406 125.945312 L 264.808594 124.324219 L 264.183594 122.765625 L 263.828125 121.898438 L 263.484375 121.101562 L 263.148438 120.34375 L 262.816406 119.625 L 262.484375 118.941406 L 262.15625 118.289062 L 261.824219 117.660156 L 261.488281 117.058594 L 261.148438 116.480469 L 260.804688 115.917969 L 260.460938 115.382812 L 260.105469 114.871094 L 259.75 114.382812 L 259.386719 113.914062 L 259.019531 113.464844 L 258.644531 113.039062 L 258.5 112.886719 L 258.359375 112.742188 L 258.214844 112.601562 L 258.066406 112.46875 L 257.917969 112.34375 L 257.769531 112.226562 L 257.613281 112.109375 L 257.460938 112.003906 L 257.304688 111.90625 L 257.144531 111.808594 L 256.984375 111.722656 L 256.820312 111.640625 L 256.65625 111.566406 L 256.488281 111.496094 L 256.320312 111.433594 L 256.152344 111.378906 L 255.972656 111.328125 L 255.792969 111.28125 L 255.605469 111.246094 L 255.421875 111.214844 L 255.234375 111.191406 L 254.851562 111.160156 L 254.660156 111.160156 L 254.460938 111.164062 L 254.265625 111.175781 L 254.0625 111.191406 L 253.859375 111.21875 L 253.65625 111.25 L 253.449219 111.285156 L 253.238281 111.328125 L 253.027344 111.382812 L 252.550781 111.511719 L 252.078125 111.652344 L 251.605469 111.808594 L 251.136719 111.972656 L 250.667969 112.148438 L 250.199219 112.339844 L 249.726562 112.542969 L 249.257812 112.761719 L 248.273438 113.234375 L 247.292969 113.730469 L 246.316406 114.246094 L 245.335938 114.78125 L 244.363281 115.335938 L 243.386719 115.910156 L 242.414062 116.503906 L 241.445312 117.117188 L 240.570312 117.675781 L 239.695312 118.226562 L 238.8125 118.765625 L 237.929688 119.296875 L 237.410156 119.605469 L 236.886719 119.910156 L 236.359375 120.207031 L 235.832031 120.5 L 235.300781 120.789062 L 234.769531 121.070312 L 234.238281 121.347656 L 233.699219 121.621094 L 233.160156 121.890625 L 232.621094 122.152344 L 232.078125 122.410156 L 231.535156 122.664062 L 230.441406 123.15625 L 229.890625 123.394531 L 229.335938 123.625 L 228.578125 123.9375 L 227.8125 124.238281 L 227.046875 124.527344 L 226.277344 124.808594 L 225.5 125.082031 L 224.722656 125.347656 L 223.9375 125.601562 L 223.152344 125.84375 L 222.273438 126.101562 L 221.398438 126.34375 L 220.53125 126.558594 L 219.664062 126.761719 L 218.800781 126.941406 L 217.933594 127.105469 L 217.070312 127.246094 L 216.203125 127.375 L 215.644531 127.445312 L 215.085938 127.511719 L 214.523438 127.566406 L 213.960938 127.617188 L 213.394531 127.660156 L 212.828125 127.695312 L 212.253906 127.722656 L 211.683594 127.746094 L 211.105469 127.757812 L 210.523438 127.765625 L 209.941406 127.761719 L 209.351562 127.753906 L 208.757812 127.738281 L 208.160156 127.714844 L 207.554688 127.683594 L 206.945312 127.648438 L 204.945312 127.503906 L 202.210938 127.292969 L 200.050781 127.125 L 198.460938 127.007812 L 197.019531 126.910156 L 195.695312 126.828125 L 194.402344 126.761719 L 193.171875 126.707031 L 191.992188 126.664062 L 190.847656 126.636719 L 190.085938 126.628906 L 189.339844 126.625 L 188.609375 126.628906 L 187.886719 126.636719 L 187.179688 126.65625 L 186.484375 126.679688 L 185.800781 126.710938 L 185.128906 126.75 L 184.464844 126.796875 L 183.808594 126.847656 L 183.164062 126.910156 L 182.523438 126.976562 L 181.898438 127.050781 L 181.273438 127.128906 L 180.664062 127.21875 L 180.058594 127.316406 L 179.457031 127.417969 L 178.863281 127.53125 L 178.28125 127.648438 L 177.699219 127.777344 L 177.128906 127.910156 L 176.5625 128.050781 L 176.003906 128.199219 L 175.449219 128.355469 L 174.898438 128.519531 L 174.359375 128.695312 L 173.820312 128.875 L 173.289062 129.0625 L 172.765625 129.257812 L 172.242188 129.460938 L 171.726562 129.671875 L 171.21875 129.894531 L 170.84375 130.0625 L 170.492188 130.226562 L 170.160156 130.386719 L 169.851562 130.550781 L 169.558594 130.710938 L 169.277344 130.871094 L 169.007812 131.039062 L 168.757812 131.203125 L 168.515625 131.371094 L 168.292969 131.539062 L 168.078125 131.710938 L 167.882812 131.886719 L 167.695312 132.058594 L 167.523438 132.238281 L 167.363281 132.417969 L 167.21875 132.601562 L 167.171875 132.667969 L 167.132812 132.738281 L 167.101562 132.8125 L 167.082031 132.886719 L 167.066406 132.964844 L 167.058594 133.039062 L 167.0625 133.121094 L 167.070312 133.199219 L 167.085938 133.285156 L 167.113281 133.371094 L 167.144531 133.457031 L 167.1875 133.542969 L 167.234375 133.632812 L 167.292969 133.722656 L 167.359375 133.816406 L 167.433594 133.910156 L 167.511719 134.007812 L 167.597656 134.101562 L 167.796875 134.292969 L 168.207031 134.660156 L 168.644531 135.023438 L 169.101562 135.386719 L 169.585938 135.75 L 170.097656 136.109375 L 170.632812 136.46875 L 171.191406 136.824219 L 171.773438 137.179688 L 173.320312 138.109375 L 174.910156 139.070312 L 176.542969 140.070312 L 178.21875 141.109375 L 179.9375 142.183594 L 181.699219 143.296875 L 183.5 144.445312 L 185.347656 145.628906 L 185.902344 145.992188 L 186.445312 146.351562 L 186.976562 146.714844 L 187.5 147.074219 L 188.007812 147.4375 L 188.507812 147.800781 L 188.996094 148.164062 L 189.472656 148.527344 L 189.792969 148.777344 L 190.128906 149.054688 L 190.46875 149.339844 L 190.796875 149.625 L 191.125 149.921875 L 191.449219 150.222656 L 191.765625 150.53125 L 192.074219 150.847656 L 192.386719 151.167969 L 192.691406 151.492188 L 192.992188 151.828125 L 193.285156 152.167969 L 193.578125 152.515625 L 193.867188 152.871094 L 194.152344 153.234375 L 194.429688 153.601562 L 194.707031 153.976562 L 194.980469 154.359375 L 195.246094 154.75 L 195.515625 155.148438 L 195.777344 155.554688 L 196.039062 155.96875 L 196.292969 156.390625 L 196.550781 156.824219 L 196.804688 157.265625 L 197.050781 157.714844 L 197.300781 158.175781 L 197.546875 158.648438 L 197.792969 159.128906 L 198.035156 159.621094 L 198.277344 160.125 L 198.523438 160.640625 L 198.761719 161.171875 L 199.878906 163.65625 L 200.992188 166.148438 L 202.105469 168.65625 L 203.21875 171.171875 L 203.480469 171.746094 L 203.757812 172.3125 L 204.046875 172.875 L 204.347656 173.429688 L 204.667969 173.976562 L 204.996094 174.519531 L 205.34375 175.058594 L 205.703125 175.589844 L 205.882812 175.835938 L 206.066406 176.078125 L 206.257812 176.308594 L 206.460938 176.527344 L 206.664062 176.738281 L 206.878906 176.941406 L 207.09375 177.132812 L 207.324219 177.316406 L 207.46875 177.421875 L 207.613281 177.515625 L 207.761719 177.601562 L 207.914062 177.675781 L 208.066406 177.742188 L 208.222656 177.796875 L 208.382812 177.839844 L 208.539062 177.878906 L 208.660156 177.898438 L 208.78125 177.910156 L 208.90625 177.914062 L 209.027344 177.917969 L 209.152344 177.914062 L 209.28125 177.902344 L 209.40625 177.886719 L 209.535156 177.863281 L 209.664062 177.835938 L 209.789062 177.804688 L 209.917969 177.761719 L 210.042969 177.71875 L 210.175781 177.667969 L 210.304688 177.613281 L 210.433594 177.546875 L 210.558594 177.480469 L 210.691406 177.40625 L 210.816406 177.328125 L 210.945312 177.242188 L 211.074219 177.152344 L 211.324219 176.957031 L 211.570312 176.742188 L 211.804688 176.511719 L 212.03125 176.265625 L 212.242188 176.007812 L 212.441406 175.738281 L 212.601562 175.5 L 212.75 175.257812 L 212.894531 175.015625 L 213.035156 174.769531 L 213.167969 174.519531 L 213.296875 174.265625 L 213.414062 174.007812 L 213.53125 173.742188 L 213.636719 173.480469 L 213.738281 173.207031 L 213.894531 172.773438 L 214.039062 172.332031 L 214.175781 171.878906 L 214.3125 171.414062 L 214.4375 170.9375 L 214.558594 170.457031 L 214.671875 169.960938 L 214.78125 169.457031 L 214.882812 168.945312 L 214.976562 168.421875 L 215.070312 167.886719 L 215.148438 167.34375 L 215.230469 166.789062 L 215.296875 166.226562 L 215.363281 165.652344 L 215.421875 165.070312 L 215.46875 164.488281 L 215.511719 163.90625 L 215.550781 163.320312 L 215.578125 162.730469 L 215.597656 162.144531 L 215.613281 161.550781 L 215.617188 160.957031 L 215.617188 160.359375 L 215.609375 159.757812 L 215.59375 159.160156 L 215.570312 158.554688 L 215.542969 157.945312 L 215.503906 157.339844 L 215.457031 156.730469 L 215.410156 156.117188 L 215.347656 155.503906 L 215.226562 154.390625 L 215.085938 153.277344 L 214.925781 152.164062 L 214.75 151.054688 L 214.558594 149.957031 L 214.347656 148.859375 L 214.121094 147.769531 L 213.875 146.683594 L 213.613281 145.605469 L 213.335938 144.539062 L 213.042969 143.480469 L 212.730469 142.429688 L 212.40625 141.390625 L 212.066406 140.367188 L 211.707031 139.351562 L 211.332031 138.347656 L 211.289062 138.21875 L 211.253906 138.097656 L 211.226562 137.976562 L 211.214844 137.855469 L 211.207031 137.738281 L 211.207031 137.621094 L 211.21875 137.507812 L 211.238281 137.398438 L 211.28125 137.25 L 211.339844 137.105469 L 211.414062 136.96875 L 211.507812 136.832031 L 211.550781 136.777344 L 211.648438 136.671875 L 211.761719 136.574219 L 211.886719 136.488281 L 212.015625 136.417969 L 212.160156 136.355469 L 212.304688 136.3125 L 212.457031 136.285156 L 212.613281 136.269531 L 212.765625 136.273438 L 212.917969 136.289062 L 213.066406 136.320312 L 213.207031 136.367188 L 213.339844 136.429688 L 213.464844 136.507812 L 213.578125 136.59375 L 213.683594 136.695312 L 213.738281 136.761719 L 213.792969 136.835938 L 213.886719 136.988281 L 213.984375 137.160156 L 214.085938 137.351562 L 214.183594 137.566406 L 214.285156 137.792969 L 214.386719 138.042969 L 214.492188 138.3125 L 214.59375 138.601562 L 214.890625 139.445312 L 215.171875 140.292969 L 215.441406 141.140625 L 215.703125 141.996094 L 215.949219 142.851562 L 216.1875 143.710938 L 216.414062 144.570312 L 216.632812 145.433594 L 216.8125 146.199219 L 216.984375 146.96875 L 217.152344 147.738281 L 217.304688 148.507812 L 217.453125 149.28125 L 217.59375 150.058594 L 217.722656 150.835938 L 217.847656 151.617188 L 217.957031 152.398438 L 218.0625 153.183594 L 218.160156 153.96875 L 218.246094 154.757812 L 218.328125 155.546875 L 218.394531 156.339844 L 218.457031 157.136719 L 218.511719 157.929688 L 218.546875 158.59375 L 218.574219 159.261719 L 218.589844 159.929688 L 218.597656 160.59375 L 218.597656 161.1875 L 218.589844 161.78125 L 218.574219 162.378906 L 218.546875 162.972656 L 218.519531 163.570312 L 218.480469 164.164062 L 218.433594 164.757812 L 218.378906 165.355469 L 218.316406 165.949219 L 218.246094 166.542969 L 218.171875 167.140625 L 218.085938 167.738281 L 217.996094 168.332031 L 217.894531 168.925781 L 217.792969 169.523438 L 217.675781 170.117188 L 217.523438 170.851562 L 217.441406 171.207031 L 217.355469 171.5625 L 217.261719 171.914062 L 217.167969 172.261719 L 217.070312 172.601562 L 216.964844 172.941406 L 216.859375 173.273438 L 216.75 173.601562 L 216.632812 173.929688 L 216.515625 174.25 L 216.394531 174.566406 L 216.265625 174.878906 L 216.136719 175.1875 L 216 175.492188 L 215.871094 175.773438 L 215.726562 176.054688 L 215.578125 176.332031 L 215.421875 176.605469 L 215.253906 176.875 L 215.082031 177.140625 L 214.902344 177.398438 L 214.71875 177.648438 L 214.527344 177.894531 L 214.332031 178.128906 L 214.128906 178.359375 L 213.921875 178.578125 L 213.707031 178.792969 L 213.496094 178.992188 L 213.273438 179.1875 L 213.054688 179.375 L 212.828125 179.546875 L 212.605469 179.707031 L 212.375 179.859375 L 212.144531 180.003906 L 211.910156 180.136719 L 211.675781 180.257812 L 211.441406 180.371094 L 211.203125 180.472656 L 210.960938 180.5625 L 210.722656 180.640625 L 210.480469 180.710938 L 210.234375 180.769531 L 209.992188 180.820312 L 209.746094 180.855469 L 209.5 180.882812 L 209.253906 180.898438 L 209.066406 180.90625 L 208.875 180.902344 L 208.605469 180.886719 L 208.332031 180.863281 L 208.050781 180.816406 L 207.765625 180.753906 L 207.484375 180.679688 L 207.207031 180.585938 L 206.929688 180.476562 L 206.652344 180.351562 L 206.378906 180.214844 L 206.109375 180.058594 L 205.839844 179.886719 L 205.574219 179.699219 L 205.308594 179.496094 L 205.042969 179.277344 L 204.785156 179.042969 L 204.527344 178.796875 L 204.269531 178.527344 L 204.015625 178.246094 L 203.765625 177.953125 L 203.515625 177.644531 L 203.269531 177.320312 L 203.023438 176.980469 L 202.78125 176.621094 L 202.539062 176.246094 L 202.296875 175.859375 L 202.058594 175.453125 L 201.824219 175.035156 L 201.585938 174.601562 L 201.351562 174.148438 L 201.109375 173.675781 L 200.871094 173.183594 L 200.625 172.660156 L 200.367188 172.09375 L 200.070312 171.429688 L 199.539062 170.222656 L 198.8125 168.5625 L 198.007812 166.714844 L 197.410156 165.363281 L 196.859375 164.140625 L 196.347656 163.023438 L 195.84375 161.949219 L 195.351562 160.933594 L 194.871094 159.972656 L 194.394531 159.050781 L 194.082031 158.476562 L 193.761719 157.917969 L 193.433594 157.363281 L 193.09375 156.828125 L 192.742188 156.300781 L 192.382812 155.789062 L 192.015625 155.289062 L 191.632812 154.796875 L 191.242188 154.320312 L 190.839844 153.855469 L 190.433594 153.402344 L 190.011719 152.960938 L 189.578125 152.535156 L 189.140625 152.121094 L 188.6875 151.714844 L 188.226562 151.320312 L 187.945312 151.09375 L 187.65625 150.863281 L 187.070312 150.425781 L 186.550781 150.050781 L 186.011719 149.671875 L 185.460938 149.285156 L 184.890625 148.894531 L 184.308594 148.5 L 183.707031 148.101562 L 182.464844 147.289062 L 180.925781 146.308594 L 179.40625 145.34375 L 177.898438 144.398438 L 176.40625 143.46875 L 174.925781 142.558594 L 173.464844 141.664062 L 172.011719 140.789062 L 170.578125 139.929688 L 170 139.578125 L 169.433594 139.222656 L 168.882812 138.859375 L 168.34375 138.488281 L 167.820312 138.113281 L 167.308594 137.734375 L 166.808594 137.34375 L 166.324219 136.953125 L 166.050781 136.71875 L 165.792969 136.480469 L 165.554688 136.242188 L 165.332031 136 L 165.125 135.757812 L 164.9375 135.511719 L 164.769531 135.265625 L 164.617188 135.019531 L 164.484375 134.773438 L 164.371094 134.523438 L 164.273438 134.273438 L 164.191406 134.027344 L 164.132812 133.777344 L 164.09375 133.53125 L 164.070312 133.277344 L 164.0625 133.03125 L 164.070312 132.875 L 164.085938 132.71875 L 164.105469 132.5625 L 164.136719 132.402344 L 164.171875 132.25 L 164.214844 132.09375 L 164.265625 131.9375 L 164.324219 131.78125 L 164.390625 131.628906 L 164.464844 131.472656 L 164.542969 131.320312 L 164.628906 131.164062 L 164.726562 131.011719 L 164.828125 130.859375 L 164.9375 130.707031 L 165.054688 130.550781 L 165.257812 130.304688 L 165.476562 130.066406 L 165.707031 129.832031 L 165.957031 129.605469 L 166.222656 129.382812 L 166.5 129.167969 L 166.792969 128.957031 L 167.101562 128.75 L 167.464844 128.523438 L 167.839844 128.300781 L 168.21875 128.085938 L 168.609375 127.871094 L 169.003906 127.664062 L 169.410156 127.460938 L 169.824219 127.265625 L 170.246094 127.070312 L 170.675781 126.882812 L 171.117188 126.699219 L 171.566406 126.523438 L 172.023438 126.351562 L 172.488281 126.183594 L 172.960938 126.023438 L 173.441406 125.863281 L 173.933594 125.710938 L 174.789062 125.460938 L 175.648438 125.226562 L 176.1875 125.085938 L 176.726562 124.957031 L 177.265625 124.835938 L 177.8125 124.71875 L 178.355469 124.605469 L 178.902344 124.5 L 179.449219 124.40625 L 180 124.3125 L 180.550781 124.226562 L 181.105469 124.148438 L 181.660156 124.078125 L 182.21875 124.011719 L 183.335938 123.902344 L 183.898438 123.855469 L 184.460938 123.820312 L 185.460938 123.765625 L 186.476562 123.722656 L 187.519531 123.691406 L 188.585938 123.671875 L 189.675781 123.671875 L 190.796875 123.679688 L 191.945312 123.699219 L 193.125 123.734375 L 194.320312 123.78125 L 195.554688 123.839844 L 196.835938 123.914062 L 198.171875 124 L 199.558594 124.097656 L 201.023438 124.214844 L 202.59375 124.34375 L 204.335938 124.5 L 205.226562 124.574219 L 206.109375 124.636719 L 206.992188 124.691406 L 207.863281 124.734375 L 208.734375 124.761719 L 209.597656 124.78125 L 210.457031 124.789062 L 211.308594 124.785156 L 211.773438 124.78125 L 212.710938 124.742188 L 213.179688 124.714844 L 213.648438 124.679688 L 214.121094 124.644531 L 214.589844 124.597656 L 215.0625 124.546875 L 216.007812 124.421875 L 216.480469 124.347656 L 216.960938 124.269531 L 217.4375 124.1875 L 217.921875 124.097656 L 218.402344 124 L 218.886719 123.894531 L 219.375 123.785156 L 219.867188 123.667969 L 220.355469 123.546875 L 220.851562 123.414062 L 221.351562 123.277344 L 221.855469 123.136719 L 222.363281 122.984375 L 222.875 122.828125 L 223.390625 122.664062 L 223.914062 122.492188 L 224.441406 122.3125 L 224.976562 122.121094 L 225.515625 121.929688 L 226.0625 121.726562 L 226.617188 121.515625 L 227.183594 121.296875 L 227.898438 121.007812 L 228.613281 120.710938 L 229.324219 120.40625 L 230.03125 120.089844 L 230.738281 119.765625 L 231.441406 119.433594 L 232.140625 119.089844 L 232.835938 118.738281 L 233.53125 118.375 L 234.222656 118.003906 L 234.910156 117.625 L 235.59375 117.234375 L 236.277344 116.835938 L 236.960938 116.425781 L 237.636719 116.011719 L 238.308594 115.582031 L 239.445312 114.859375 L 240.453125 114.226562 L 241.390625 113.648438 L 242.28125 113.113281 L 243.136719 112.609375 L 243.960938 112.140625 L 244.761719 111.695312 L 245.542969 111.277344 L 246.316406 110.882812 L 247.070312 110.511719 L 247.808594 110.164062 L 248.53125 109.839844 L 249.238281 109.542969 L 249.9375 109.265625 L 250.625 109.007812 L 251.296875 108.777344 L 251.667969 108.660156 L 252.035156 108.558594 L 252.398438 108.464844 L 252.753906 108.390625 L 253.109375 108.324219 L 253.457031 108.277344 L 253.808594 108.238281 L 254.148438 108.210938 L 254.488281 108.199219 L 254.820312 108.199219 L 255.152344 108.214844 L 255.480469 108.238281 L 255.804688 108.28125 L 256.125 108.332031 L 256.441406 108.398438 L 256.753906 108.480469 L 256.960938 108.539062 L 257.171875 108.605469 L 257.378906 108.679688 L 257.582031 108.757812 L 257.789062 108.84375 L 257.988281 108.933594 L 258.191406 109.03125 L 258.390625 109.132812 L 258.585938 109.242188 L 258.78125 109.359375 L 258.976562 109.480469 L 259.171875 109.609375 L 259.363281 109.742188 L 259.550781 109.878906 L 259.738281 110.023438 L 259.925781 110.175781 L 260.292969 110.496094 L 260.476562 110.667969 L 260.65625 110.84375 L 260.839844 111.027344 L 261.015625 111.214844 L 261.195312 111.410156 L 261.371094 111.609375 L 261.714844 112.03125 L 261.886719 112.25 L 262.058594 112.480469 L 262.398438 112.949219 L 262.730469 113.445312 L 263.035156 113.917969 L 263.328125 114.402344 L 263.625 114.894531 L 263.914062 115.394531 L 264.203125 115.902344 L 264.484375 116.417969 L 264.765625 116.941406 L 265.039062 117.476562 L 265.308594 118.019531 L 265.578125 118.570312 L 265.835938 119.128906 L 266.097656 119.695312 L 266.351562 120.269531 L 266.601562 120.855469 L 266.847656 121.449219 L 267.089844 122.050781 L 267.730469 123.671875 L 268.355469 125.277344 L 268.964844 126.871094 L 269.554688 128.453125 L 270.132812 130.019531 L 270.695312 131.574219 L 271.242188 133.117188 L 271.769531 134.644531 L 272.523438 136.808594 L 273.242188 138.863281 L 273.9375 140.828125 L 274.617188 142.71875 L 275.285156 144.546875 L 275.941406 146.316406 L 276.59375 148.035156 L 277.234375 149.703125 L 277.875 151.339844 L 278.507812 152.933594 L 279.140625 154.484375 L 279.769531 156.003906 L 280.394531 157.480469 L 281.019531 158.925781 L 281.644531 160.339844 L 282.269531 161.71875 L 282.847656 162.960938 L 283.433594 164.183594 L 284.039062 165.386719 L 284.34375 165.984375 L 284.652344 166.574219 L 284.960938 167.160156 L 285.277344 167.738281 L 285.597656 168.316406 L 286.238281 169.457031 L 286.566406 170.019531 L 286.894531 170.578125 L 287.226562 171.132812 L 287.457031 171.503906 L 287.6875 171.867188 L 287.917969 172.21875 L 288.144531 172.554688 L 288.375 172.882812 L 288.605469 173.203125 L 288.835938 173.507812 L 289.0625 173.800781 L 289.289062 174.082031 L 289.519531 174.351562 L 289.746094 174.609375 L 289.96875 174.851562 L 290.191406 175.082031 L 290.414062 175.300781 L 290.632812 175.503906 L 290.851562 175.695312 L 291.066406 175.871094 L 291.28125 176.03125 L 291.492188 176.183594 L 291.703125 176.320312 L 291.90625 176.441406 L 292.113281 176.550781 L 292.316406 176.648438 L 292.515625 176.730469 L 292.71875 176.796875 L 292.910156 176.851562 L 293.109375 176.894531 L 293.300781 176.925781 L 293.484375 176.9375 L 293.675781 176.9375 L 293.859375 176.925781 L 294.039062 176.898438 L 294.214844 176.863281 L 294.386719 176.808594 L 294.554688 176.746094 L 294.722656 176.667969 L 294.886719 176.582031 L 295.046875 176.476562 L 295.207031 176.363281 L 295.367188 176.234375 L 295.613281 176.007812 L 295.851562 175.773438 L 296.078125 175.523438 L 296.296875 175.257812 L 296.507812 174.976562 L 296.703125 174.683594 L 296.894531 174.378906 L 297.074219 174.058594 L 297.230469 173.753906 L 297.382812 173.445312 L 297.53125 173.128906 L 297.675781 172.804688 L 297.8125 172.476562 L 297.949219 172.140625 L 298.074219 171.796875 L 298.195312 171.449219 L 298.316406 171.097656 L 298.429688 170.734375 L 298.535156 170.367188 L 298.636719 169.996094 L 298.734375 169.613281 L 298.828125 169.226562 L 298.914062 168.839844 L 298.996094 168.441406 L 299.070312 168.039062 L 299.144531 167.628906 L 299.210938 167.214844 L 299.273438 166.792969 L 299.328125 166.367188 L 299.378906 165.933594 L 299.421875 165.496094 L 299.464844 165.054688 L 299.496094 164.609375 L 299.523438 164.15625 L 299.550781 163.695312 L 299.566406 163.234375 L 299.582031 162.765625 L 299.589844 162.296875 L 299.59375 161.820312 L 299.589844 161.339844 L 299.582031 160.664062 L 299.5625 159.976562 L 299.539062 159.28125 L 299.511719 158.578125 L 299.476562 157.863281 L 299.433594 157.140625 L 299.390625 156.40625 L 299.335938 155.664062 L 299.277344 154.910156 L 299.210938 154.148438 L 299.140625 153.375 L 299.0625 152.597656 L 298.976562 151.804688 L 298.890625 151.007812 L 298.792969 150.195312 L 298.691406 149.375 L 298.496094 147.878906 L 298.296875 146.382812 L 298.089844 144.882812 L 297.871094 143.382812 L 297.648438 141.878906 L 297.417969 140.371094 L 297.179688 138.867188 L 296.933594 137.359375 L 296.675781 135.847656 L 296.414062 134.335938 L 296.144531 132.824219 L 295.871094 131.308594 L 295.585938 129.789062 L 295.292969 128.269531 L 294.992188 126.75 L 294.6875 125.226562 L 293.898438 121.339844 L 293.316406 118.390625 L 293.054688 117.027344 L 292.808594 115.726562 L 292.578125 114.484375 L 292.363281 113.289062 L 292.152344 112.089844 L 291.957031 110.925781 L 291.769531 109.789062 L 291.59375 108.683594 L 291.429688 107.597656 L 291.277344 106.539062 L 291.132812 105.496094 L 291 104.472656 L 290.875 103.425781 L 290.753906 102.398438 L 290.644531 101.386719 L 290.546875 100.386719 L 290.460938 99.402344 L 290.382812 98.429688 L 290.3125 97.46875 L 290.257812 96.519531 L 290.207031 95.578125 L 290.167969 94.648438 L 290.136719 93.730469 L 290.117188 92.816406 L 290.105469 91.914062 L 290.105469 91.015625 L 290.113281 90.128906 L 290.132812 89.25 L 290.152344 88.632812 L 290.183594 88.015625 L 290.222656 87.402344 L 290.269531 86.785156 L 290.332031 86.171875 L 290.398438 85.550781 L 290.476562 84.9375 L 290.5625 84.320312 L 290.65625 83.703125 L 290.761719 83.089844 L 290.878906 82.472656 L 291.003906 81.855469 L 291.136719 81.238281 L 291.28125 80.621094 L 291.433594 80.007812 L 291.59375 79.386719 L 291.765625 78.769531 L 291.945312 78.148438 L 292.136719 77.53125 L 292.335938 76.914062 L 292.542969 76.296875 L 292.761719 75.675781 L 292.992188 75.058594 L 293.230469 74.4375 L 293.476562 73.816406 L 293.730469 73.195312 L 293.996094 72.578125 L 294.273438 71.957031 L 294.558594 71.335938 L 294.851562 70.714844 L 295.15625 70.089844 L 295.46875 69.464844 L 295.792969 68.84375 L 296.121094 68.222656 L 296.464844 67.601562 L 296.816406 66.976562 L 297.171875 66.351562 L 297.542969 65.730469 L 297.921875 65.101562 L 298.3125 64.476562 L 298.710938 63.847656 L 299.117188 63.21875 L 299.539062 62.589844 L 299.964844 61.957031 L 300.402344 61.328125 L 300.847656 60.695312 L 301.304688 60.058594 L 301.773438 59.425781 L 302.25 58.789062 L 302.738281 58.148438 L 303.234375 57.507812 L 303.742188 56.871094 L 304.261719 56.226562 L 304.789062 55.582031 L 305.328125 54.933594 L 305.878906 54.285156 L 306.441406 53.632812 L 307.011719 52.976562 L 307.59375 52.316406 L 308.1875 51.65625 L 308.796875 50.988281 L 309.414062 50.320312 L 310.046875 49.644531 L 310.6875 48.96875 L 312.035156 47.566406 L 313.441406 46.101562 L 316.433594 43.011719 L 319.667969 39.699219 L 323.144531 36.164062 L 323.667969 35.628906 L 324.1875 35.089844 L 324.699219 34.550781 L 325.210938 34.003906 L 325.71875 33.457031 L 326.21875 32.90625 L 326.71875 32.351562 L 327.210938 31.792969 L 327.699219 31.234375 L 328.183594 30.667969 L 328.664062 30.101562 L 329.144531 29.53125 L 329.613281 28.957031 L 330.082031 28.378906 L 330.546875 27.796875 L 331.007812 27.210938 L 331.46875 26.617188 L 331.925781 26.015625 L 332.378906 25.414062 L 332.828125 24.808594 L 333.320312 24.125 L 333.796875 23.4375 L 334.257812 22.75 L 334.703125 22.0625 L 335.125 21.375 L 335.53125 20.695312 L 335.910156 20.019531 L 336.269531 19.351562 L 336.609375 18.691406 L 336.921875 18.039062 L 337.214844 17.398438 L 337.480469 16.765625 L 337.726562 16.144531 L 337.949219 15.53125 L 338.148438 14.929688 L 338.238281 14.632812 L 338.324219 14.335938 L 338.402344 14.046875 L 338.472656 13.765625 L 338.542969 13.480469 L 338.601562 13.199219 L 338.65625 12.921875 L 338.703125 12.648438 L 338.746094 12.375 L 338.785156 12.105469 L 338.816406 11.839844 L 338.84375 11.574219 L 338.863281 11.316406 L 338.875 11.054688 L 338.882812 10.804688 L 338.882812 10.550781 L 338.878906 10.304688 L 338.871094 10.058594 L 338.855469 9.820312 L 338.832031 9.578125 L 338.804688 9.34375 L 338.773438 9.109375 L 338.730469 8.878906 L 338.6875 8.65625 L 338.636719 8.429688 L 338.578125 8.210938 L 338.515625 7.992188 L 338.449219 7.78125 L 338.375 7.570312 L 338.292969 7.359375 L 338.207031 7.15625 L 338.117188 6.957031 L 338.019531 6.757812 L 337.914062 6.5625 L 337.765625 6.308594 L 337.667969 6.148438 L 337.5625 5.992188 L 337.453125 5.84375 L 337.339844 5.695312 L 337.222656 5.554688 L 337.101562 5.414062 L 336.972656 5.28125 L 336.84375 5.152344 L 336.648438 4.972656 L 336.441406 4.800781 L 336.226562 4.640625 L 336.003906 4.492188 L 335.773438 4.347656 L 335.53125 4.214844 L 335.285156 4.09375 L 335.027344 3.980469 L 334.761719 3.875 L 334.488281 3.78125 L 334.207031 3.699219 L 333.917969 3.625 L 333.617188 3.5625 L 333.3125 3.507812 L 333 3.464844 L 332.679688 3.429688 L 332.351562 3.40625 L 332.015625 3.390625 L 331.671875 3.386719 L 331.324219 3.394531 L 330.96875 3.410156 L 330.609375 3.4375 L 330.246094 3.476562 L 329.878906 3.523438 L 329.503906 3.578125 L 329.128906 3.648438 L 328.75 3.726562 L 328.375 3.8125 L 327.996094 3.910156 L 327.621094 4.015625 L 327.246094 4.128906 L 326.875 4.253906 L 326.386719 4.429688 L 325.90625 4.609375 L 325.429688 4.800781 L 324.96875 4.996094 L 324.511719 5.199219 L 324.066406 5.410156 L 323.628906 5.628906 L 323.203125 5.851562 L 322.5625 6.203125 L 321.921875 6.5625 L 321.28125 6.941406 L 320.644531 7.324219 L 320.003906 7.722656 L 319.367188 8.132812 L 318.726562 8.550781 L 318.085938 8.984375 L 317.445312 9.429688 L 316.808594 9.886719 L 316.167969 10.355469 L 315.527344 10.835938 L 314.890625 11.328125 L 314.25 11.832031 L 313.609375 12.347656 L 312.96875 12.875 L 310.554688 14.894531 L 308.113281 16.964844 L 305.636719 19.078125 L 303.128906 21.238281 L 301.507812 22.632812 L 299.90625 23.980469 L 299.117188 24.636719 L 298.328125 25.285156 L 297.546875 25.921875 L 296.765625 26.550781 L 295.992188 27.167969 L 295.21875 27.78125 L 294.449219 28.378906 L 293.6875 28.96875 L 292.925781 29.554688 L 292.167969 30.125 L 291.410156 30.691406 L 290.65625 31.246094 L 289.90625 31.792969 L 289.15625 32.335938 L 288.410156 32.867188 L 287.664062 33.390625 L 286.925781 33.90625 L 286.183594 34.414062 L 285.445312 34.914062 L 284.710938 35.402344 L 283.972656 35.886719 L 283.238281 36.359375 L 282.507812 36.828125 L 281.777344 37.289062 L 281.050781 37.738281 L 280.320312 38.183594 L 279.597656 38.617188 L 278.871094 39.046875 L 278.144531 39.46875 L 277.417969 39.886719 L 276.695312 40.292969 L 275.972656 40.691406 L 275.25 41.082031 L 274.53125 41.46875 L 273.8125 41.84375 L 273.09375 42.210938 L 272.375 42.574219 L 271.660156 42.929688 L 270.941406 43.277344 L 270.226562 43.617188 L 269.511719 43.949219 L 268.796875 44.273438 L 268.082031 44.59375 L 267.367188 44.902344 L 266.65625 45.203125 L 265.945312 45.496094 L 265.230469 45.785156 L 264.523438 46.066406 L 263.8125 46.339844 L 263.105469 46.605469 L 262.394531 46.863281 L 261.683594 47.117188 L 260.976562 47.363281 L 260.269531 47.597656 L 259.558594 47.828125 L 258.144531 48.265625 L 257.441406 48.46875 L 256.734375 48.671875 L 256.027344 48.863281 L 255.25 49.066406 L 254.46875 49.257812 L 253.6875 49.4375 L 252.910156 49.601562 L 252.128906 49.757812 L 251.347656 49.902344 L 250.566406 50.03125 L 249.785156 50.148438 L 249.003906 50.253906 L 248.222656 50.347656 L 247.441406 50.429688 L 246.660156 50.496094 L 245.878906 50.554688 L 245.09375 50.597656 L 244.3125 50.632812 L 243.53125 50.652344 L 242.820312 50.660156 L 242.109375 50.65625 L 241.402344 50.644531 L 240.6875 50.625 L 239.976562 50.59375 L 239.269531 50.550781 L 238.554688 50.496094 L 237.847656 50.433594 L 236.476562 50.300781 L 235.113281 50.15625 L 233.746094 50 L 232.386719 49.835938 L 231.027344 49.660156 L 229.671875 49.472656 L 228.316406 49.277344 L 226.964844 49.074219 L 225.371094 48.828125 L 223.839844 48.597656 L 222.359375 48.382812 L 220.933594 48.179688 L 219.546875 47.992188 L 218.195312 47.816406 L 216.875 47.652344 L 215.585938 47.5 L 214.3125 47.355469 L 213.066406 47.226562 L 211.839844 47.105469 L 210.628906 46.992188 L 209.433594 46.894531 L 208.25 46.800781 L 207.082031 46.71875 L 205.917969 46.648438 L 203.695312 46.527344 L 201.433594 46.425781 L 199.132812 46.335938 L 196.789062 46.265625 L 194.40625 46.210938 L 191.984375 46.171875 L 189.523438 46.148438 L 187.023438 46.140625 L 186.914062 46.140625 L 185.910156 46.144531 L 185.109375 46.148438 L 184.308594 46.164062 L 183.519531 46.183594 L 182.742188 46.210938 L 181.984375 46.238281 L 181.242188 46.273438 L 180.523438 46.316406 L 179.832031 46.359375 L 179.164062 46.410156 L 178.523438 46.464844 L 177.902344 46.523438 L 177.3125 46.585938 L 176.75 46.65625 L 176.207031 46.730469 L 175.699219 46.808594 L 175.214844 46.890625 L 174.761719 46.976562 L 174.335938 47.066406 L 173.9375 47.160156 L 173.566406 47.261719 L 173.21875 47.363281 L 172.90625 47.472656 L 172.617188 47.582031 L 172.359375 47.699219 L 172.125 47.820312 L 171.921875 47.945312 L 171.832031 48.007812 L 171.746094 48.074219 L 171.667969 48.136719 L 171.597656 48.207031 L 171.535156 48.273438 L 171.480469 48.339844 L 171.429688 48.410156 L 171.386719 48.480469 L 171.351562 48.554688 L 171.324219 48.625 L 171.304688 48.699219 L 171.289062 48.777344 L 171.28125 48.839844 L 171.28125 48.90625 L 171.285156 48.972656 L 171.292969 49.039062 L 171.304688 49.105469 L 171.324219 49.175781 L 171.378906 49.3125 L 171.484375 49.527344 L 171.605469 49.742188 L 171.742188 49.957031 L 171.890625 50.171875 L 172.054688 50.386719 L 172.234375 50.601562 L 172.429688 50.816406 L 172.636719 51.03125 L 172.863281 51.246094 L 173.101562 51.460938 L 173.355469 51.683594 L 173.628906 51.902344 L 173.917969 52.125 L 174.230469 52.355469 L 174.570312 52.597656 L 174.945312 52.855469 L 175.492188 53.226562 L 176.054688 53.589844 L 176.632812 53.953125 L 177.222656 54.308594 L 177.835938 54.671875 L 178.464844 55.03125 L 179.113281 55.390625 L 179.785156 55.753906 L 180.46875 56.113281 L 181.175781 56.476562 L 181.910156 56.84375 L 182.683594 57.21875 L 183.488281 57.609375 L 184.34375 58.007812 L 185.269531 58.4375 L 186.300781 58.90625 L 187.691406 59.53125 L 189.375 60.273438 L 191.40625 61.160156 L 194.40625 62.464844 L 198.011719 64.027344 L 200.734375 65.214844 L 203.21875 66.308594 L 205.488281 67.316406 L 210.378906 69.507812 L 215.277344 71.710938 L 220.191406 73.925781 L 225.113281 76.148438 L 225.796875 76.464844 L 226.484375 76.792969 L 227.179688 77.128906 L 227.875 77.480469 L 228.574219 77.839844 L 229.273438 78.214844 L 229.976562 78.597656 L 230.6875 78.996094 L 231.066406 79.214844 L 231.4375 79.433594 L 231.789062 79.648438 L 232.128906 79.863281 L 232.457031 80.078125 L 232.773438 80.292969 L 233.074219 80.503906 L 233.371094 80.71875 L 233.652344 80.9375 L 233.921875 81.152344 L 234.183594 81.371094 L 234.433594 81.589844 L 234.671875 81.808594 L 234.902344 82.03125 L 235.121094 82.253906 L 235.328125 82.472656 L 235.527344 82.699219 L 235.71875 82.921875 L 235.898438 83.152344 L 236.066406 83.382812 L 236.226562 83.613281 L 236.375 83.847656 L 236.511719 84.082031 L 236.640625 84.316406 L 236.761719 84.554688 L 236.867188 84.789062 L 236.96875 85.035156 L 237.054688 85.273438 L 237.132812 85.515625 L 237.199219 85.761719 L 237.261719 86.007812 L 237.308594 86.257812 L 237.34375 86.484375 L 237.371094 86.714844 L 237.390625 86.941406 L 237.398438 87.175781 L 237.402344 87.410156 L 237.398438 87.644531 L 237.382812 87.878906 L 237.359375 88.117188 L 237.332031 88.355469 L 237.292969 88.59375 L 237.242188 88.835938 L 237.1875 89.082031 L 237.125 89.324219 L 237.054688 89.570312 L 236.972656 89.816406 L 236.886719 90.066406 L 236.734375 90.460938 L 236.574219 90.84375 L 236.402344 91.21875 L 236.222656 91.585938 L 236.03125 91.949219 L 235.828125 92.308594 L 235.617188 92.652344 L 235.394531 92.996094 L 234.691406 94.019531 L 233.980469 95.035156 L 233.253906 96.035156 L 232.515625 97.023438 L 231.769531 98 L 231.007812 98.960938 L 230.234375 99.914062 L 229.449219 100.847656 L 228.652344 101.773438 L 227.84375 102.6875 L 227.023438 103.585938 L 226.191406 104.472656 L 225.347656 105.347656 L 224.492188 106.210938 L 223.625 107.058594 L 222.75 107.894531 L 222.136719 108.464844 L 221.886719 108.691406 L 221.671875 108.875 L 221.472656 109.042969 L 221.285156 109.1875 L 221.101562 109.320312 L 220.921875 109.4375 L 220.75 109.539062 L 220.582031 109.628906 L 220.417969 109.703125 L 220.253906 109.757812 L 220.101562 109.804688 L 219.953125 109.832031 L 219.804688 109.847656 L 219.664062 109.84375 L 219.523438 109.828125 L 219.390625 109.796875 L 219.292969 109.765625 L 219.203125 109.722656 L 219.109375 109.671875 L 219.015625 109.613281 L 218.929688 109.550781 L 218.847656 109.472656 L 218.765625 109.390625 L 218.683594 109.296875 L 218.613281 109.199219 L 218.550781 109.109375 L 218.5 109.015625 L 218.457031 108.921875 L 218.425781 108.828125 L 218.402344 108.738281 L 218.390625 108.644531 L 218.382812 108.554688 L 218.390625 108.464844 L 218.40625 108.375 L 218.429688 108.285156 L 218.460938 108.195312 L 218.503906 108.109375 L 218.554688 108.015625 L 218.613281 107.925781 L 218.683594 107.835938 L 218.761719 107.746094 L 218.847656 107.65625 L 218.945312 107.5625 L 219.054688 107.464844 L 219.300781 107.265625 L 219.644531 107.003906 L 220.011719 106.726562 L 220.132812 106.625 L 220.230469 106.535156 L 220.988281 105.777344 L 221.738281 105.011719 L 222.484375 104.234375 L 223.222656 103.445312 L 223.960938 102.644531 L 224.6875 101.832031 L 225.414062 101.011719 L 226.136719 100.179688 L 226.851562 99.335938 L 227.5625 98.480469 L 228.269531 97.617188 L 228.96875 96.738281 L 229.664062 95.851562 L 230.355469 94.953125 L 231.042969 94.046875 L 231.722656 93.125 L 232.195312 92.480469 L 232.558594 91.953125 L 232.882812 91.46875 L 233.167969 91.011719 L 233.421875 90.566406 L 233.535156 90.351562 L 233.648438 90.140625 L 233.746094 89.933594 L 233.839844 89.726562 L 233.925781 89.527344 L 234.003906 89.328125 L 234.078125 89.125 L 234.140625 88.929688 L 234.199219 88.730469 L 234.25 88.539062 L 234.292969 88.347656 L 234.328125 88.160156 L 234.355469 87.972656 L 234.375 87.789062 L 234.390625 87.609375 L 234.394531 87.429688 L 234.394531 87.25 L 234.382812 87.074219 L 234.367188 86.902344 L 234.34375 86.730469 L 234.3125 86.5625 L 234.269531 86.394531 L 234.234375 86.257812 L 234.191406 86.125 L 234.144531 85.992188 L 234.089844 85.859375 L 234.035156 85.730469 L 233.902344 85.472656 L 233.832031 85.347656 L 233.753906 85.222656 L 233.671875 85.09375 L 233.488281 84.851562 L 233.289062 84.609375 L 233.070312 84.375 L 232.898438 84.207031 L 232.71875 84.039062 L 232.535156 83.871094 L 232.34375 83.703125 L 231.949219 83.375 L 231.523438 83.046875 L 231.074219 82.726562 L 230.605469 82.410156 L 230.105469 82.097656 L 229.585938 81.789062 L 228.882812 81.386719 L 228.175781 80.996094 L 227.472656 80.621094 L 226.773438 80.253906 L 226.074219 79.898438 L 225.375 79.554688 L 224.679688 79.222656 L 223.984375 78.902344 L 216.65625 75.578125 L 213.359375 74.089844 L 210.304688 72.71875 L 207.5 71.464844 L 204.9375 70.324219 L 202.621094 69.300781 Z M 200.550781 68.394531 " fill-opacity="1" fill-rule="nonzero"/></g><path fill="#000000" d="M 162.382812 185.304688 L 163.253906 184.570312 L 164.101562 183.839844 L 164.925781 183.117188 L 165.726562 182.398438 L 166.511719 181.679688 L 167.273438 180.96875 L 168.015625 180.261719 L 168.738281 179.550781 L 169.441406 178.84375 L 170.128906 178.136719 L 170.792969 177.433594 L 171.441406 176.734375 L 172.074219 176.03125 L 172.683594 175.332031 L 173.277344 174.628906 L 173.855469 173.929688 L 173.875 173.910156 L 173.894531 173.898438 L 173.921875 173.886719 L 173.972656 173.886719 L 173.996094 173.894531 L 174.019531 173.90625 L 174.039062 173.921875 L 174.050781 173.9375 L 176.371094 177.363281 L 176.398438 177.410156 L 176.417969 177.464844 L 176.429688 177.523438 L 176.429688 177.578125 L 176.421875 177.632812 L 176.402344 177.6875 L 176.378906 177.738281 L 176.34375 177.785156 L 175.667969 178.550781 L 174.984375 179.304688 L 174.289062 180.058594 L 173.582031 180.804688 L 172.871094 181.542969 L 172.148438 182.277344 L 171.414062 183.003906 L 170.671875 183.730469 L 169.921875 184.445312 L 169.15625 185.15625 L 168.386719 185.859375 L 167.605469 186.558594 L 166.816406 187.25 L 166.015625 187.941406 L 165.207031 188.621094 L 164.386719 189.292969 L 164.371094 189.304688 L 164.339844 189.320312 L 164.308594 189.324219 L 164.28125 189.324219 L 164.25 189.316406 L 164.21875 189.304688 L 164.191406 189.289062 L 164.171875 189.261719 L 164.15625 189.234375 L 163.945312 188.738281 L 163.730469 188.246094 L 163.507812 187.769531 L 163.285156 187.304688 L 163.054688 186.84375 L 162.820312 186.398438 L 162.585938 185.960938 L 162.34375 185.535156 L 162.328125 185.503906 L 162.316406 185.472656 L 162.3125 185.441406 L 162.316406 185.410156 L 162.324219 185.382812 L 162.335938 185.355469 L 162.359375 185.332031 Z M 162.382812 185.304688 " fill-opacity="1" fill-rule="nonzero"/><path fill="#000000" d="M 81.398438 188.671875 L 81.152344 188.488281 L 80.902344 188.308594 L 80.648438 188.128906 L 80.398438 187.957031 L 80.136719 187.789062 L 79.878906 187.625 L 79.617188 187.464844 L 79.351562 187.308594 L 78.921875 187.070312 L 78.488281 186.84375 L 78.042969 186.628906 L 77.597656 186.425781 L 77.144531 186.234375 L 76.683594 186.054688 L 76.21875 185.886719 L 75.75 185.730469 L 75.273438 185.589844 L 74.796875 185.457031 L 74.3125 185.335938 L 73.824219 185.230469 L 73.332031 185.136719 L 72.839844 185.054688 L 72.339844 184.984375 L 71.835938 184.929688 L 71.332031 184.886719 L 70.828125 184.855469 L 70.316406 184.839844 L 69.804688 184.832031 L 69.292969 184.839844 L 68.78125 184.859375 L 68.265625 184.894531 L 67.753906 184.9375 L 67.238281 184.996094 L 66.726562 185.066406 L 66.210938 185.152344 L 65.699219 185.246094 L 65.1875 185.355469 L 64.675781 185.476562 L 64.167969 185.605469 L 63.660156 185.753906 L 63.636719 185.757812 L 63.609375 185.757812 L 63.582031 185.753906 L 63.558594 185.746094 L 63.535156 185.730469 L 63.5 185.695312 L 63.488281 185.671875 L 63.296875 185.214844 L 63.097656 184.757812 L 62.890625 184.300781 L 62.675781 183.839844 L 62.453125 183.386719 L 62.222656 182.925781 L 61.984375 182.46875 L 61.738281 182.007812 L 61.730469 181.996094 L 61.722656 181.960938 L 61.71875 181.925781 L 61.722656 181.890625 L 61.734375 181.859375 L 61.753906 181.828125 L 61.777344 181.800781 L 61.804688 181.78125 L 61.835938 181.765625 L 62.507812 181.558594 L 63.183594 181.367188 L 63.863281 181.195312 L 64.546875 181.042969 L 65.230469 180.90625 L 65.917969 180.789062 L 66.609375 180.691406 L 67.296875 180.609375 L 67.988281 180.550781 L 68.679688 180.507812 L 69.367188 180.484375 L 70.058594 180.480469 L 70.742188 180.492188 L 71.421875 180.523438 L 72.101562 180.578125 L 72.777344 180.648438 L 73.445312 180.734375 L 74.113281 180.84375 L 74.769531 180.96875 L 75.101562 181.039062 L 75.425781 181.113281 L 75.75 181.191406 L 76.074219 181.273438 L 76.714844 181.453125 L 77.03125 181.550781 L 77.347656 181.652344 L 77.664062 181.761719 L 77.972656 181.871094 L 78.285156 181.984375 L 78.59375 182.105469 L 78.894531 182.226562 L 79.199219 182.355469 L 79.800781 182.621094 L 80.09375 182.765625 L 80.390625 182.910156 L 80.679688 183.058594 L 80.972656 183.214844 L 81.257812 183.371094 L 81.542969 183.535156 L 81.824219 183.699219 L 82.378906 184.042969 L 82.652344 184.222656 L 82.988281 184.449219 L 83.324219 184.6875 L 83.652344 184.925781 L 83.976562 185.175781 L 83.980469 185.175781 L 84.015625 185.214844 L 84.046875 185.257812 L 84.066406 185.304688 L 84.078125 185.355469 L 84.078125 185.410156 L 84.070312 185.464844 L 84.050781 185.511719 L 84.023438 185.558594 L 81.542969 188.65625 L 81.507812 188.6875 L 81.472656 188.699219 L 81.4375 188.695312 Z M 81.398438 188.671875 " fill-opacity="1" fill-rule="nonzero"/><path fill="#000000" d="M 44.59375 211.144531 L 44.480469 210.816406 L 44.375 210.492188 L 44.273438 210.160156 L 44.179688 209.832031 L 44.089844 209.5 L 44.007812 209.171875 L 43.929688 208.84375 L 43.859375 208.511719 L 43.792969 208.179688 L 43.734375 207.84375 L 43.683594 207.507812 L 43.632812 207.175781 L 43.589844 206.839844 L 43.554688 206.503906 L 43.527344 206.171875 L 43.503906 205.832031 L 43.484375 205.5 L 43.472656 205.167969 L 43.46875 204.832031 L 43.464844 204.5 L 43.472656 204.164062 L 43.480469 203.832031 L 43.5 203.496094 L 43.523438 203.160156 L 43.550781 202.824219 L 43.585938 202.492188 L 43.625 202.15625 L 43.671875 201.820312 L 43.722656 201.488281 L 43.78125 201.15625 L 43.84375 200.820312 L 43.910156 200.488281 L 43.984375 200.152344 L 44.066406 199.820312 L 44.152344 199.488281 L 44.242188 199.15625 L 44.34375 198.824219 L 44.445312 198.5 L 44.554688 198.167969 L 44.667969 197.839844 L 44.789062 197.511719 L 44.914062 197.183594 L 45.042969 196.859375 L 45.324219 196.210938 L 45.472656 195.890625 L 45.625 195.566406 L 45.78125 195.246094 L 45.949219 194.929688 L 46.117188 194.609375 L 46.292969 194.292969 L 46.472656 193.976562 L 46.660156 193.664062 L 46.847656 193.355469 L 47.046875 193.042969 L 47.25 192.738281 L 47.453125 192.429688 L 47.667969 192.125 L 47.882812 191.824219 L 48.101562 191.527344 L 48.328125 191.230469 L 48.558594 190.933594 L 48.792969 190.640625 L 49.035156 190.351562 L 49.28125 190.066406 L 49.53125 189.78125 L 49.785156 189.496094 L 50.042969 189.21875 L 50.304688 188.941406 L 50.84375 188.402344 L 51.121094 188.132812 L 51.398438 187.867188 L 51.683594 187.605469 L 51.972656 187.347656 L 52.261719 187.097656 L 52.558594 186.84375 L 52.855469 186.597656 L 53.15625 186.355469 L 53.460938 186.117188 L 53.46875 186.113281 L 53.492188 186.097656 L 53.515625 186.09375 L 53.539062 186.09375 L 53.5625 186.097656 L 53.585938 186.105469 L 53.605469 186.117188 L 53.636719 186.15625 L 55.507812 189.828125 L 55.523438 189.863281 L 55.53125 189.902344 L 55.53125 189.9375 L 55.527344 189.976562 L 55.519531 190.011719 L 55.480469 190.074219 L 55.453125 190.097656 L 54.960938 190.511719 L 54.480469 190.941406 L 54.011719 191.378906 L 53.558594 191.832031 L 53.117188 192.292969 L 52.691406 192.765625 L 52.28125 193.246094 L 51.878906 193.738281 L 51.5 194.242188 L 51.136719 194.746094 L 50.789062 195.261719 L 50.460938 195.78125 L 50.148438 196.308594 L 49.859375 196.839844 L 49.582031 197.378906 L 49.328125 197.921875 L 49.09375 198.460938 L 48.878906 199.003906 L 48.777344 199.277344 L 48.679688 199.550781 L 48.589844 199.824219 L 48.503906 200.097656 L 48.421875 200.375 L 48.34375 200.652344 L 48.277344 200.921875 L 48.210938 201.199219 L 48.148438 201.476562 L 48.09375 201.753906 L 48.042969 202.027344 L 47.992188 202.304688 L 47.953125 202.578125 L 47.917969 202.855469 L 47.886719 203.128906 L 47.859375 203.402344 L 47.839844 203.679688 L 47.824219 203.953125 L 47.8125 204.226562 L 47.808594 204.503906 L 47.808594 205.046875 L 47.820312 205.320312 L 47.832031 205.589844 L 47.851562 205.863281 L 47.878906 206.136719 L 47.90625 206.40625 L 47.945312 206.675781 L 47.988281 206.964844 L 48.035156 207.257812 L 48.089844 207.546875 L 48.152344 207.835938 L 48.160156 207.90625 L 48.152344 207.945312 L 48.148438 207.980469 L 48.132812 208.015625 L 48.117188 208.046875 L 48.09375 208.074219 L 48.066406 208.101562 L 47.65625 208.480469 L 47.242188 208.867188 L 46.835938 209.261719 L 46.433594 209.664062 L 46.035156 210.074219 L 45.640625 210.488281 L 45.25 210.910156 L 44.863281 211.339844 L 44.855469 211.347656 L 44.828125 211.363281 L 44.792969 211.367188 L 44.753906 211.355469 L 44.730469 211.332031 L 44.652344 211.238281 L 44.621094 211.199219 Z M 44.59375 211.144531 " fill-opacity="1" fill-rule="nonzero"/><path fill="#000000" d="M 142.457031 199.957031 L 144.070312 198.90625 L 145.675781 197.84375 L 147.265625 196.769531 L 148.84375 195.675781 L 150.367188 194.605469 L 151.882812 193.519531 L 153.390625 192.417969 L 154.894531 191.304688 L 154.914062 191.292969 L 154.945312 191.28125 L 154.980469 191.269531 L 155.011719 191.269531 L 155.046875 191.277344 L 155.082031 191.292969 L 155.109375 191.3125 L 155.136719 191.339844 L 155.152344 191.371094 L 156.785156 195.070312 L 156.800781 195.117188 L 156.808594 195.160156 L 156.8125 195.199219 L 156.804688 195.242188 L 156.792969 195.28125 L 156.769531 195.316406 L 156.742188 195.347656 L 156.703125 195.382812 L 155.171875 196.515625 L 153.628906 197.636719 L 152.074219 198.738281 L 150.507812 199.828125 L 148.929688 200.90625 L 147.339844 201.96875 L 145.742188 203.015625 L 144.128906 204.046875 L 144.117188 204.054688 L 144.085938 204.066406 L 144.054688 204.070312 L 144.019531 204.066406 L 143.988281 204.0625 L 143.960938 204.046875 L 143.914062 204 L 143.902344 203.972656 L 142.382812 200.1875 L 142.375 200.15625 L 142.371094 200.125 L 142.371094 200.09375 L 142.378906 200.058594 L 142.390625 200.03125 L 142.40625 200 L 142.429688 199.976562 Z M 142.457031 199.957031 " fill-opacity="1" fill-rule="nonzero"/><path fill="#000000" d="M 90.167969 192.898438 L 90.378906 193.386719 L 90.582031 193.871094 L 90.769531 194.359375 L 90.945312 194.851562 L 91.113281 195.347656 L 91.265625 195.84375 L 91.410156 196.34375 L 91.542969 196.847656 L 91.640625 197.25 L 91.726562 197.652344 L 91.8125 198.058594 L 91.886719 198.464844 L 91.957031 198.875 L 92.019531 199.285156 L 92.070312 199.699219 L 92.121094 200.109375 L 92.160156 200.53125 L 92.195312 200.945312 L 92.21875 201.367188 L 92.238281 201.785156 L 92.253906 202.210938 L 92.257812 202.636719 L 92.257812 203.066406 L 92.246094 203.492188 L 92.230469 203.921875 L 92.207031 204.355469 L 92.175781 204.789062 L 92.140625 205.226562 L 92.097656 205.664062 L 92.046875 206.105469 L 91.984375 206.546875 L 91.921875 206.992188 L 91.847656 207.4375 L 91.769531 207.882812 L 91.683594 208.332031 L 91.589844 208.785156 L 91.488281 209.238281 L 91.378906 209.695312 L 91.265625 210.152344 L 91.140625 210.609375 L 91.125 210.652344 L 91.09375 210.683594 L 91.050781 210.703125 L 91.007812 210.707031 L 90.507812 210.6875 L 90.003906 210.675781 L 89.484375 210.671875 L 88.953125 210.675781 L 88.414062 210.6875 L 87.859375 210.707031 L 87.300781 210.738281 L 86.726562 210.777344 L 86.703125 210.777344 L 86.675781 210.769531 L 86.652344 210.761719 L 86.632812 210.746094 L 86.617188 210.722656 L 86.605469 210.703125 L 86.597656 210.675781 L 86.597656 210.648438 L 86.605469 210.621094 L 86.746094 210.152344 L 86.882812 209.6875 L 87.007812 209.21875 L 87.128906 208.757812 L 87.234375 208.300781 L 87.335938 207.84375 L 87.429688 207.386719 L 87.515625 206.933594 L 87.589844 206.484375 L 87.65625 206.039062 L 87.71875 205.59375 L 87.769531 205.152344 L 87.8125 204.710938 L 87.847656 204.277344 L 87.871094 203.839844 L 87.890625 203.410156 L 87.898438 202.980469 L 87.902344 202.554688 L 87.894531 202.128906 L 87.878906 201.707031 L 87.855469 201.289062 L 87.820312 200.871094 L 87.78125 200.457031 L 87.730469 200.042969 L 87.671875 199.636719 L 87.609375 199.230469 L 87.535156 198.828125 L 87.449219 198.425781 L 87.359375 198.027344 L 87.257812 197.632812 L 87.152344 197.238281 L 87.035156 196.84375 L 86.875 196.347656 L 86.859375 196.296875 L 86.855469 196.242188 L 86.855469 196.183594 L 86.863281 196.128906 L 86.882812 196.078125 L 86.90625 196.03125 L 86.9375 195.984375 L 86.972656 195.945312 L 87.371094 195.554688 L 87.757812 195.167969 L 88.132812 194.78125 L 88.5 194.394531 L 88.851562 194.007812 L 89.191406 193.621094 L 89.519531 193.238281 L 89.835938 192.855469 L 89.886719 192.800781 L 89.933594 192.765625 L 89.976562 192.746094 L 90.019531 192.742188 L 90.058594 192.757812 L 90.101562 192.789062 L 90.136719 192.835938 Z M 90.167969 192.898438 " fill-opacity="1" fill-rule="nonzero"/><path fill="#000000" d="M 135.742188 209.03125 L 134.976562 209.457031 L 134.207031 209.878906 L 133.433594 210.296875 L 132.660156 210.710938 L 131.882812 211.121094 L 131.105469 211.527344 L 130.324219 211.925781 L 129.542969 212.320312 L 128.761719 212.710938 L 127.972656 213.09375 L 127.191406 213.476562 L 126.402344 213.851562 L 125.617188 214.222656 L 124.828125 214.585938 L 124.042969 214.949219 L 123.253906 215.300781 L 123.242188 215.304688 L 123.199219 215.308594 L 123.15625 215.292969 L 123.125 215.261719 L 123.109375 215.222656 L 122.445312 211.113281 L 122.441406 211.070312 L 122.445312 211.027344 L 122.453125 210.984375 L 122.472656 210.945312 L 122.496094 210.90625 L 122.527344 210.875 L 122.558594 210.847656 L 122.597656 210.824219 L 124.132812 210.109375 L 125.65625 209.382812 L 127.164062 208.640625 L 128.65625 207.890625 L 130.136719 207.121094 L 131.605469 206.34375 L 133.058594 205.550781 L 134.5 204.746094 L 134.539062 204.734375 L 134.578125 204.738281 L 134.617188 204.761719 L 134.640625 204.792969 L 134.644531 204.804688 L 134.8125 205.441406 L 134.992188 206.074219 L 135.195312 206.738281 L 135.40625 207.398438 L 135.628906 208.054688 L 135.863281 208.710938 L 135.875 208.757812 L 135.878906 208.800781 L 135.875 208.847656 L 135.863281 208.890625 L 135.84375 208.933594 L 135.816406 208.972656 L 135.78125 209.003906 Z M 135.742188 209.03125 " fill-opacity="1" fill-rule="nonzero"/><path fill="#000000" d="M 113.828125 214.492188 L 113.859375 214.480469 L 113.882812 214.476562 L 113.90625 214.480469 L 113.925781 214.488281 L 113.941406 214.503906 L 113.953125 214.523438 L 113.960938 214.546875 L 113.964844 214.578125 L 114.292969 218.816406 L 114.292969 218.847656 L 114.289062 218.878906 L 114.265625 218.933594 L 114.222656 218.976562 L 114.171875 219.007812 L 112.613281 219.574219 L 111.054688 220.121094 L 109.496094 220.648438 L 107.941406 221.15625 L 107.160156 221.402344 L 106.382812 221.644531 L 105.601562 221.878906 L 104.824219 222.109375 L 104.042969 222.335938 L 103.265625 222.558594 L 102.488281 222.773438 L 101.710938 222.984375 L 101.664062 222.996094 L 101.625 222.996094 L 101.59375 222.988281 L 101.566406 222.972656 L 101.550781 222.953125 L 101.535156 222.921875 L 101.53125 222.882812 L 101.53125 222.835938 L 101.929688 218.554688 L 101.945312 218.492188 L 101.960938 218.460938 L 101.980469 218.4375 L 102.003906 218.414062 L 102.027344 218.394531 L 102.058594 218.378906 L 102.089844 218.367188 L 103.511719 217.960938 L 104.949219 217.53125 L 106.394531 217.078125 L 107.859375 216.605469 L 109.332031 216.109375 L 110.816406 215.59375 L 112.316406 215.050781 Z M 113.828125 214.492188 " fill-opacity="1" fill-rule="nonzero"/><path fill="#000000" d="M 62.734375 225.257812 L 62.273438 225.136719 L 61.816406 225.015625 L 61.363281 224.886719 L 60.914062 224.753906 L 60.472656 224.617188 L 60.03125 224.472656 L 59.601562 224.328125 L 59.171875 224.175781 L 58.746094 224.019531 L 58.324219 223.855469 L 57.910156 223.691406 L 57.5 223.519531 L 57.09375 223.34375 L 56.691406 223.164062 L 56.296875 222.976562 L 55.902344 222.785156 L 55.136719 222.394531 L 54.757812 222.1875 L 54.386719 221.976562 L 54.019531 221.765625 L 53.65625 221.546875 L 53.300781 221.324219 L 52.945312 221.09375 L 52.597656 220.863281 L 52.253906 220.628906 L 51.582031 220.136719 L 51.253906 219.886719 L 50.929688 219.628906 L 50.613281 219.371094 L 50.296875 219.105469 L 50.296875 219.101562 L 50.277344 219.082031 L 50.261719 219.058594 L 50.25 219.027344 L 50.246094 219 L 50.246094 218.96875 L 50.253906 218.941406 L 50.269531 218.914062 L 50.285156 218.890625 L 52.960938 215.980469 L 52.992188 215.953125 L 53.03125 215.929688 L 53.074219 215.914062 L 53.117188 215.90625 L 53.160156 215.90625 L 53.203125 215.914062 L 53.246094 215.933594 L 53.28125 215.957031 L 53.800781 216.363281 L 54.332031 216.757812 L 54.871094 217.132812 L 55.414062 217.496094 L 55.96875 217.84375 L 56.527344 218.179688 L 57.09375 218.496094 L 57.671875 218.796875 L 58.160156 219.039062 L 58.65625 219.273438 L 59.15625 219.492188 L 59.664062 219.703125 L 60.175781 219.902344 L 60.691406 220.089844 L 61.214844 220.269531 L 61.746094 220.4375 L 62.914062 220.785156 L 64.09375 221.125 L 64.117188 221.132812 L 64.140625 221.148438 L 64.160156 221.167969 L 64.175781 221.1875 L 64.183594 221.210938 L 64.1875 221.234375 L 64.1875 221.261719 L 64.183594 221.289062 L 64.183594 221.292969 L 62.910156 225.160156 L 62.898438 225.191406 L 62.882812 225.214844 L 62.863281 225.234375 L 62.84375 225.25 L 62.820312 225.261719 L 62.796875 225.265625 Z M 62.734375 225.257812 " fill-opacity="1" fill-rule="nonzero"/><path fill="#000000" d="M 78.007812 226.714844 L 77.269531 226.738281 L 76.527344 226.75 L 75.789062 226.757812 L 75.050781 226.75 L 74.3125 226.738281 L 73.574219 226.710938 L 72.839844 226.683594 L 72.109375 226.640625 L 72.074219 226.636719 L 72.042969 226.625 L 72.023438 226.613281 L 72.003906 226.597656 L 71.992188 226.578125 L 71.984375 226.550781 L 71.984375 226.523438 L 71.992188 226.488281 L 72.800781 222.417969 L 72.816406 222.378906 L 72.839844 222.351562 L 72.875 222.332031 L 72.914062 222.324219 L 73.917969 222.355469 L 74.917969 222.375 L 75.917969 222.378906 L 76.917969 222.371094 L 77.917969 222.351562 L 78.917969 222.320312 L 79.917969 222.277344 L 80.914062 222.21875 L 81.007812 222.210938 L 81.085938 222.195312 L 81.125 222.183594 L 81.15625 222.167969 L 81.1875 222.144531 L 81.214844 222.117188 L 81.242188 222.085938 L 81.265625 222.050781 L 82.882812 219.253906 L 82.902344 219.226562 L 82.925781 219.199219 L 82.953125 219.179688 L 83.015625 219.148438 L 83.046875 219.136719 L 83.117188 219.136719 L 87.457031 219.578125 L 87.480469 219.582031 L 87.519531 219.605469 L 87.535156 219.625 L 87.546875 219.644531 L 87.550781 219.667969 L 87.550781 219.691406 L 87.546875 219.714844 L 87.539062 219.734375 L 86.574219 221.53125 L 86.566406 221.570312 L 86.574219 221.605469 L 86.597656 221.636719 L 86.632812 221.648438 L 86.660156 221.648438 L 92.855469 220.613281 L 92.882812 220.609375 L 92.910156 220.613281 L 92.933594 220.625 L 92.957031 220.640625 L 92.976562 220.660156 L 92.988281 220.683594 L 92.996094 220.710938 L 93 220.738281 L 92.996094 220.765625 L 92.875 221.285156 L 92.757812 221.804688 L 92.652344 222.328125 L 92.550781 222.855469 L 92.457031 223.378906 L 92.375 223.90625 L 92.292969 224.4375 L 92.226562 224.972656 L 92.203125 225.050781 L 92.1875 225.082031 L 92.164062 225.109375 L 92.136719 225.132812 L 92.105469 225.152344 L 92.070312 225.167969 L 92.027344 225.175781 L 91.292969 225.308594 L 90.558594 225.433594 L 89.820312 225.554688 L 89.082031 225.671875 L 88.34375 225.785156 L 87.605469 225.886719 L 86.863281 225.988281 L 86.125 226.082031 L 84.980469 226.21875 L 83.839844 226.339844 L 83.765625 226.355469 L 83.703125 226.382812 L 83.648438 226.425781 L 83.597656 226.480469 L 83.199219 227.074219 L 82.792969 227.664062 L 81.964844 228.835938 L 81.542969 229.421875 L 81.117188 230.003906 L 80.6875 230.582031 L 80.253906 231.15625 L 79.8125 231.730469 L 79.367188 232.304688 L 78.917969 232.871094 L 78.464844 233.441406 L 78.007812 234.003906 L 77.546875 234.566406 L 77.078125 235.128906 L 76.601562 235.6875 L 76.125 236.242188 L 75.644531 236.796875 L 75.15625 237.347656 L 74.171875 238.441406 L 73.667969 238.988281 L 72.652344 240.066406 L 72.136719 240.605469 L 71.617188 241.140625 L 71.09375 241.671875 L 70.5625 242.203125 L 69.492188 243.257812 L 68.945312 243.78125 L 68.398438 244.300781 L 68.371094 244.320312 L 68.335938 244.324219 L 68.300781 244.3125 L 68.277344 244.292969 L 68.273438 244.28125 L 68.03125 243.847656 L 67.777344 243.414062 L 67.507812 242.984375 L 67.230469 242.558594 L 66.9375 242.128906 L 66.632812 241.707031 L 66.320312 241.285156 L 65.988281 240.863281 L 65.949219 240.792969 L 65.941406 240.75 L 65.941406 240.710938 L 65.945312 240.667969 L 65.960938 240.628906 L 65.980469 240.59375 L 66.007812 240.5625 L 66.84375 239.753906 L 67.667969 238.9375 L 68.480469 238.117188 L 69.28125 237.289062 L 70.070312 236.453125 L 70.851562 235.609375 L 71.621094 234.761719 L 72.382812 233.910156 L 73.128906 233.046875 L 73.871094 232.179688 L 74.597656 231.304688 L 75.3125 230.421875 L 76.019531 229.535156 L 76.714844 228.640625 L 77.398438 227.742188 L 78.070312 226.832031 L 78.082031 226.8125 L 78.085938 226.773438 L 78.070312 226.742188 L 78.042969 226.722656 Z M 78.007812 226.714844 " fill-opacity="1" fill-rule="nonzero"/><path fill="#000000" d="M 59.359375 246.859375 L 61.246094 250.597656 L 61.257812 250.625 L 61.265625 250.6875 L 61.261719 250.71875 L 61.238281 250.773438 L 61.222656 250.796875 L 61.199219 250.820312 L 60.4375 251.460938 L 59.671875 252.101562 L 58.902344 252.734375 L 58.128906 253.367188 L 57.351562 253.992188 L 56.570312 254.617188 L 55.785156 255.238281 L 54.996094 255.851562 L 54.203125 256.464844 L 53.40625 257.074219 L 52.605469 257.675781 L 51.800781 258.277344 L 50.992188 258.875 L 50.175781 259.46875 L 49.359375 260.058594 L 48.539062 260.644531 L 48.511719 260.660156 L 48.488281 260.671875 L 48.460938 260.675781 L 48.4375 260.675781 L 48.417969 260.664062 L 48.394531 260.648438 L 48.375 260.625 L 48.359375 260.597656 L 46.546875 256.925781 L 46.53125 256.886719 L 46.523438 256.851562 L 46.523438 256.816406 L 46.527344 256.785156 L 46.535156 256.753906 L 46.554688 256.726562 L 46.578125 256.699219 L 46.609375 256.675781 L 48.101562 255.597656 L 49.578125 254.507812 L 51.042969 253.402344 L 52.496094 252.28125 L 53.941406 251.148438 L 55.371094 250 L 56.785156 248.835938 L 58.191406 247.660156 L 59.171875 246.824219 L 59.183594 246.8125 L 59.207031 246.800781 L 59.230469 246.796875 L 59.257812 246.792969 L 59.28125 246.796875 L 59.328125 246.820312 Z M 59.359375 246.859375 " fill-opacity="1" fill-rule="nonzero"/><path fill="#000000" d="M 22.746094 271.28125 L 22.734375 271.230469 L 22.726562 271.183594 L 22.734375 271.140625 L 22.746094 271.105469 L 22.765625 271.066406 L 22.789062 271.035156 L 22.828125 271.007812 L 22.871094 270.980469 L 24.316406 270.238281 L 25.757812 269.484375 L 27.1875 268.71875 L 28.613281 267.941406 L 30.035156 267.152344 L 31.449219 266.355469 L 32.851562 265.542969 L 34.25 264.722656 L 35.445312 264.003906 L 36.632812 263.285156 L 37.816406 262.550781 L 38.996094 261.808594 L 39.003906 261.804688 L 39.03125 261.796875 L 39.0625 261.804688 L 39.085938 261.820312 L 39.101562 261.847656 L 39.273438 262.359375 L 39.453125 262.867188 L 39.636719 263.363281 L 39.824219 263.855469 L 40.015625 264.335938 L 40.214844 264.808594 L 40.414062 265.269531 L 40.621094 265.726562 L 40.632812 265.761719 L 40.636719 265.796875 L 40.636719 265.832031 L 40.628906 265.867188 L 40.617188 265.902344 L 40.597656 265.933594 L 40.574219 265.960938 L 40.542969 265.980469 L 39.550781 266.601562 L 38.550781 267.214844 L 37.546875 267.820312 L 36.539062 268.421875 L 35.53125 269.019531 L 34.515625 269.609375 L 33.496094 270.195312 L 32.472656 270.777344 L 31.449219 271.351562 L 30.417969 271.917969 L 29.382812 272.484375 L 28.34375 273.039062 L 27.300781 273.589844 L 26.253906 274.136719 L 25.203125 274.679688 L 24.152344 275.214844 L 24.144531 275.21875 L 24.121094 275.222656 L 24.09375 275.226562 L 24.070312 275.222656 L 24.046875 275.214844 L 24.027344 275.203125 L 24.007812 275.1875 L 23.996094 275.164062 L 23.984375 275.144531 Z M 22.746094 271.28125 " fill-opacity="1" fill-rule="nonzero"/><g clip-path="url(#4dc2d25ee7)"><path fill="#000000" d="M 0.898438 280.222656 L 1.429688 280.09375 L 1.953125 279.953125 L 2.46875 279.808594 L 2.980469 279.65625 L 3.480469 279.496094 L 3.976562 279.332031 L 4.460938 279.164062 L 4.941406 278.984375 L 6.195312 278.5 L 7.4375 278.011719 L 8.667969 277.515625 L 9.890625 277.011719 L 11.085938 276.507812 L 12.265625 275.996094 L 13.421875 275.484375 L 14.554688 274.972656 L 14.59375 274.964844 L 14.636719 274.972656 L 14.671875 275 L 14.691406 275.035156 L 14.691406 275.046875 L 14.769531 275.535156 L 14.855469 276.027344 L 14.953125 276.527344 L 15.0625 277.027344 L 15.183594 277.535156 L 15.3125 278.042969 L 15.453125 278.558594 L 15.605469 279.078125 L 15.613281 279.117188 L 15.617188 279.152344 L 15.609375 279.191406 L 15.597656 279.222656 L 15.578125 279.257812 L 15.554688 279.285156 L 15.527344 279.308594 L 15.496094 279.324219 L 14.5 279.769531 L 13.46875 280.21875 L 12.40625 280.667969 L 11.3125 281.128906 L 10.179688 281.589844 L 9.019531 282.058594 L 7.824219 282.53125 L 6.597656 283.011719 L 5.976562 283.246094 L 5.351562 283.464844 L 4.730469 283.671875 L 4.105469 283.867188 L 3.484375 284.050781 L 2.863281 284.21875 L 2.242188 284.371094 L 1.617188 284.511719 L 1.570312 284.519531 L 1.523438 284.511719 L 1.476562 284.5 L 1.4375 284.476562 L 1.402344 284.449219 L 1.371094 284.414062 L 1.339844 284.328125 L 1.339844 284.316406 L 0.875 280.257812 L 0.878906 280.234375 Z M 0.898438 280.222656 " fill-opacity="1" fill-rule="nonzero"/></g></g></g></svg>