<svg xmlns="http://www.w3.org/2000/svg" xmlns:xlink="http://www.w3.org/1999/xlink" width="794" zoomAndPan="magnify" viewBox="0 0 595.5 842.249979" height="1123" preserveAspectRatio="xMidYMid meet" version="1.0"><defs><clipPath id="5dd1691a58"><path d="M 0.015625 389 L 544 389 L 544 841.5 L 0.015625 841.5 Z M 0.015625 389 " clip-rule="nonzero"/></clipPath><clipPath id="8e461a72d3"><path d="M 257 0.246094 L 543 0.246094 L 543 290 L 257 290 Z M 257 0.246094 " clip-rule="nonzero"/></clipPath><clipPath id="ec63439c59"><path d="M 0.015625 440 L 20 440 L 20 452.5 L 0.015625 452.5 Z M 0.015625 440 " clip-rule="nonzero"/></clipPath><clipPath id="81da55983e"><rect x="0" width="544" y="0" height="453"/></clipPath></defs><g clip-path="url(#5dd1691a58)"><g transform="matrix(1, 0, 0, 1, -0.000000000000000002, 389)"><g clip-path="url(#81da55983e)"><g clip-path="url(#8e461a72d3)"><path fill="#000000" d="M 316.285156 109.328125 L 305.496094 104.617188 L 294.796875 99.933594 L 292.691406 99 L 290.8125 98.15625 L 289.0625 97.355469 L 287.417969 96.585938 L 285.847656 95.835938 L 284.339844 95.09375 L 282.894531 94.367188 L 281.507812 93.644531 L 280.144531 92.917969 L 278.832031 92.195312 L 277.566406 91.476562 L 276.34375 90.753906 L 275.160156 90.035156 L 274.011719 89.308594 L 272.910156 88.582031 L 271.839844 87.855469 L 271.375 87.527344 L 270.925781 87.195312 L 270.488281 86.859375 L 270.058594 86.523438 L 269.648438 86.1875 L 269.246094 85.84375 L 268.863281 85.503906 L 268.496094 85.164062 L 268.140625 84.820312 L 267.804688 84.480469 L 267.488281 84.144531 L 267.179688 83.800781 L 266.890625 83.460938 L 266.621094 83.121094 L 266.363281 82.78125 L 266.125 82.449219 L 265.902344 82.113281 L 265.699219 81.78125 L 265.507812 81.449219 L 265.339844 81.117188 L 265.183594 80.789062 L 265.046875 80.464844 L 264.925781 80.136719 L 264.820312 79.8125 L 264.734375 79.488281 L 264.664062 79.175781 L 264.609375 78.855469 L 264.570312 78.539062 L 264.554688 78.230469 L 264.550781 77.914062 L 264.5625 77.609375 L 264.59375 77.296875 L 264.632812 77.050781 L 264.679688 76.808594 L 264.738281 76.566406 L 264.808594 76.324219 L 264.890625 76.082031 L 264.980469 75.84375 L 265.082031 75.609375 L 265.195312 75.375 L 265.363281 75.070312 L 265.542969 74.773438 L 265.738281 74.492188 L 265.949219 74.214844 L 266.179688 73.941406 L 266.425781 73.683594 L 266.683594 73.429688 L 266.964844 73.179688 L 267.261719 72.941406 L 267.570312 72.710938 L 267.902344 72.492188 L 268.242188 72.277344 L 268.601562 72.070312 L 268.980469 71.875 L 269.371094 71.683594 L 269.789062 71.496094 L 270.210938 71.320312 L 270.644531 71.15625 L 271.101562 71 L 271.574219 70.851562 L 272.0625 70.703125 L 272.566406 70.570312 L 273.089844 70.441406 L 273.628906 70.316406 L 274.183594 70.207031 L 274.753906 70.097656 L 275.34375 69.996094 L 275.957031 69.902344 L 276.59375 69.8125 L 277.261719 69.726562 L 278.785156 69.558594 L 279.957031 69.441406 L 281.117188 69.339844 L 282.269531 69.246094 L 283.414062 69.167969 L 284.550781 69.101562 L 285.675781 69.042969 L 286.789062 69.003906 L 287.898438 68.972656 L 290.066406 68.929688 L 292.246094 68.894531 L 294.445312 68.875 L 296.65625 68.863281 L 298.890625 68.867188 L 301.132812 68.878906 L 303.394531 68.90625 L 305.671875 68.941406 L 307.964844 68.992188 L 310.273438 69.046875 L 312.597656 69.121094 L 314.9375 69.207031 L 317.292969 69.296875 L 319.664062 69.40625 L 322.050781 69.519531 L 324.453125 69.648438 L 326.460938 69.769531 L 328.472656 69.90625 L 330.507812 70.058594 L 332.558594 70.230469 L 334.632812 70.417969 L 336.738281 70.625 L 338.878906 70.851562 L 341.054688 71.089844 L 343.261719 71.351562 L 345.523438 71.636719 L 347.851562 71.9375 L 350.257812 72.269531 L 352.757812 72.621094 L 355.390625 73 L 358.175781 73.417969 L 361.191406 73.882812 L 364.128906 74.328125 L 366.730469 74.699219 L 369.132812 75.015625 L 371.398438 75.289062 L 372.5 75.40625 L 373.582031 75.519531 L 374.636719 75.617188 L 375.675781 75.710938 L 376.691406 75.785156 L 377.691406 75.859375 L 378.675781 75.917969 L 379.648438 75.972656 L 380.621094 76.007812 L 381.585938 76.042969 L 382.53125 76.0625 L 383.46875 76.074219 L 384.390625 76.078125 L 385.308594 76.070312 L 386.210938 76.050781 L 387.101562 76.019531 L 387.984375 75.984375 L 388.859375 75.9375 L 389.726562 75.878906 L 390.582031 75.808594 L 391.429688 75.730469 L 392.269531 75.640625 L 393.101562 75.542969 L 393.921875 75.433594 L 394.964844 75.28125 L 396.015625 75.117188 L 397.070312 74.9375 L 398.132812 74.742188 L 399.199219 74.53125 L 400.273438 74.308594 L 401.351562 74.066406 L 402.4375 73.8125 L 403.527344 73.542969 L 404.628906 73.265625 L 405.722656 72.964844 L 406.828125 72.65625 L 407.941406 72.332031 L 409.054688 71.992188 L 410.171875 71.640625 L 411.296875 71.273438 L 412.417969 70.894531 L 413.550781 70.5 L 414.6875 70.089844 L 415.820312 69.667969 L 416.960938 69.230469 L 418.097656 68.785156 L 419.242188 68.324219 L 420.382812 67.847656 L 421.527344 67.359375 L 422.671875 66.859375 L 423.820312 66.347656 L 424.960938 65.820312 L 426.105469 65.28125 L 427.25 64.730469 L 428.390625 64.171875 L 429.53125 63.597656 L 430.78125 62.957031 L 432.03125 62.300781 L 433.273438 61.640625 L 434.523438 60.964844 L 435.765625 60.277344 L 437.011719 59.578125 L 438.253906 58.867188 L 439.496094 58.148438 L 440.734375 57.414062 L 441.976562 56.671875 L 443.214844 55.914062 L 444.449219 55.148438 L 445.6875 54.371094 L 446.925781 53.582031 L 448.15625 52.785156 L 449.390625 51.972656 L 450.621094 51.148438 L 451.851562 50.3125 L 453.078125 49.46875 L 454.308594 48.609375 L 455.53125 47.742188 L 456.761719 46.863281 L 457.984375 45.972656 L 459.203125 45.070312 L 460.421875 44.160156 L 461.644531 43.234375 L 462.859375 42.300781 L 464.078125 41.351562 L 465.289062 40.398438 L 466.503906 39.429688 L 467.710938 38.453125 L 468.921875 37.460938 L 471.421875 35.398438 L 473.910156 33.324219 L 476.390625 31.238281 L 478.863281 29.148438 L 481.328125 27.050781 L 483.789062 24.949219 L 486.234375 22.835938 L 488.671875 20.714844 L 490.492188 19.148438 L 492.261719 17.65625 L 493.996094 16.234375 L 495.695312 14.878906 L 496.535156 14.226562 L 497.367188 13.585938 L 498.1875 12.960938 L 499.007812 12.351562 L 499.816406 11.757812 L 500.621094 11.179688 L 501.417969 10.613281 L 502.210938 10.0625 L 502.996094 9.527344 L 503.777344 9.003906 L 504.550781 8.5 L 505.320312 8.003906 L 506.082031 7.53125 L 506.839844 7.066406 L 507.59375 6.617188 L 508.335938 6.179688 L 509.078125 5.761719 L 509.808594 5.355469 L 510.539062 4.964844 L 511.257812 4.589844 L 511.976562 4.226562 L 512.6875 3.878906 L 513.390625 3.542969 L 514.09375 3.226562 L 514.808594 2.914062 L 515.535156 2.617188 L 516.261719 2.332031 L 516.992188 2.066406 L 517.726562 1.816406 L 518.460938 1.589844 L 519.191406 1.375 L 519.925781 1.179688 L 520.652344 1 L 521.375 0.84375 L 522.089844 0.707031 L 522.800781 0.582031 L 523.507812 0.484375 L 524.210938 0.398438 L 524.898438 0.339844 L 525.582031 0.292969 L 526.253906 0.269531 L 526.917969 0.261719 L 527.566406 0.277344 L 528.207031 0.308594 L 528.84375 0.359375 L 529.464844 0.425781 L 530.078125 0.515625 L 530.683594 0.621094 L 531.277344 0.75 L 531.851562 0.894531 L 532.421875 1.054688 L 532.984375 1.238281 L 533.527344 1.4375 L 534.058594 1.65625 L 534.585938 1.894531 L 535.097656 2.152344 L 535.460938 2.351562 L 535.816406 2.558594 L 536.164062 2.773438 L 536.507812 3 L 536.839844 3.234375 L 537.167969 3.480469 L 537.484375 3.734375 L 537.796875 4 L 538.148438 4.316406 L 538.484375 4.648438 L 538.816406 4.992188 L 539.132812 5.34375 L 539.441406 5.710938 L 539.730469 6.09375 L 540.015625 6.480469 L 540.289062 6.882812 L 540.542969 7.292969 L 540.789062 7.714844 L 541.023438 8.148438 L 541.246094 8.585938 L 541.453125 9.042969 L 541.648438 9.503906 L 541.832031 9.980469 L 542.003906 10.457031 L 542.160156 10.949219 L 542.300781 11.441406 L 542.429688 11.953125 L 542.546875 12.460938 L 542.648438 12.984375 L 542.734375 13.507812 L 542.8125 14.042969 L 542.867188 14.578125 L 542.914062 15.121094 L 542.945312 15.667969 L 542.964844 16.21875 L 542.964844 16.769531 L 542.953125 17.328125 L 542.929688 17.882812 L 542.886719 18.441406 L 542.835938 19 L 542.753906 19.65625 L 542.65625 20.320312 L 542.546875 20.984375 L 542.421875 21.65625 L 542.277344 22.324219 L 542.121094 23.003906 L 541.949219 23.683594 L 541.761719 24.367188 L 541.554688 25.054688 L 541.335938 25.746094 L 541.101562 26.441406 L 540.847656 27.140625 L 540.582031 27.84375 L 540.300781 28.550781 L 540.003906 29.261719 L 539.691406 29.976562 L 539.359375 30.695312 L 539.019531 31.414062 L 538.660156 32.140625 L 538.28125 32.871094 L 537.890625 33.601562 L 537.484375 34.34375 L 537.0625 35.082031 L 536.625 35.828125 L 536.167969 36.582031 L 535.703125 37.332031 L 535.214844 38.09375 L 534.710938 38.859375 L 534.195312 39.628906 L 533.660156 40.398438 L 533.113281 41.179688 L 532.546875 41.964844 L 531.746094 43.042969 L 530.941406 44.117188 L 530.128906 45.1875 L 529.304688 46.25 L 528.476562 47.296875 L 527.636719 48.347656 L 526.789062 49.386719 L 525.933594 50.417969 L 524.902344 51.640625 L 523.863281 52.855469 L 522.808594 54.058594 L 521.742188 55.253906 L 520.664062 56.4375 L 519.574219 57.609375 L 518.472656 58.773438 L 517.359375 59.929688 L 514.546875 62.808594 L 510.667969 66.75 L 506.78125 70.699219 L 503.929688 73.609375 L 501.371094 76.257812 L 499.039062 78.691406 L 496.789062 81.070312 L 494.679688 83.339844 L 492.679688 85.527344 L 490.777344 87.648438 L 489.394531 89.226562 L 488.046875 90.804688 L 486.734375 92.382812 L 485.46875 93.957031 L 484.226562 95.527344 L 483.03125 97.097656 L 481.871094 98.667969 L 480.746094 100.234375 L 479.660156 101.800781 L 478.609375 103.363281 L 477.597656 104.921875 L 476.625 106.480469 L 476.152344 107.261719 L 475.6875 108.039062 L 475.230469 108.8125 L 474.789062 109.59375 L 474.351562 110.371094 L 473.921875 111.144531 L 473.507812 111.921875 L 473.097656 112.695312 L 472.515625 113.828125 L 471.960938 114.953125 L 471.425781 116.078125 L 470.910156 117.199219 L 470.414062 118.320312 L 469.941406 119.4375 L 469.488281 120.554688 L 469.054688 121.671875 L 468.644531 122.78125 L 468.253906 123.890625 L 467.882812 124.996094 L 467.535156 126.101562 L 467.210938 127.203125 L 466.902344 128.300781 L 466.617188 129.398438 L 466.351562 130.496094 L 466.207031 131.132812 L 466.066406 131.785156 L 465.9375 132.441406 L 465.808594 133.105469 L 465.695312 133.78125 L 465.582031 134.460938 L 465.480469 135.152344 L 465.378906 135.847656 L 465.289062 136.554688 L 465.203125 137.269531 L 465.058594 138.722656 L 464.9375 140.210938 L 464.84375 141.734375 L 464.777344 143.285156 L 464.738281 144.875 L 464.726562 146.5 L 464.738281 148.164062 L 464.777344 149.863281 L 464.847656 151.601562 L 464.941406 153.378906 L 465.0625 155.199219 L 465.203125 157.050781 L 465.363281 158.902344 L 465.535156 160.746094 L 465.714844 162.582031 L 465.914062 164.417969 L 466.125 166.246094 L 466.351562 168.070312 L 466.589844 169.890625 L 466.839844 171.703125 L 467.105469 173.515625 L 467.386719 175.320312 L 467.675781 177.117188 L 467.988281 178.914062 L 468.304688 180.707031 L 468.640625 182.488281 L 468.988281 184.269531 L 471.066406 194.738281 L 471.855469 198.761719 L 472.5625 202.4375 L 473.234375 206 L 473.863281 209.382812 L 474.449219 212.621094 L 475 215.75 L 475.539062 218.902344 L 476.046875 221.972656 L 476.53125 224.980469 L 476.984375 227.925781 L 477.417969 230.828125 L 477.820312 233.691406 L 478.203125 236.519531 L 478.5625 239.320312 L 478.828125 241.515625 L 479.066406 243.703125 L 479.277344 245.878906 L 479.464844 248.039062 L 479.621094 250.1875 L 479.757812 252.324219 L 479.863281 254.453125 L 479.945312 256.5625 L 479.972656 257.597656 L 479.980469 258.628906 L 479.976562 259.648438 L 479.957031 260.664062 L 479.921875 261.671875 L 479.875 262.679688 L 479.8125 263.671875 L 479.734375 264.660156 L 479.636719 265.640625 L 479.53125 266.617188 L 479.402344 267.589844 L 479.265625 268.550781 L 479.113281 269.503906 L 478.945312 270.453125 L 478.765625 271.394531 L 478.5625 272.328125 L 478.425781 272.929688 L 478.28125 273.527344 L 478.125 274.117188 L 477.953125 274.707031 L 477.78125 275.292969 L 477.597656 275.871094 L 477.40625 276.441406 L 477.207031 277.003906 L 477 277.554688 L 476.785156 278.09375 L 476.566406 278.625 L 476.339844 279.140625 L 476.105469 279.648438 L 475.863281 280.140625 L 475.621094 280.621094 L 475.367188 281.089844 L 475.113281 281.539062 L 474.851562 281.972656 L 474.582031 282.398438 L 474.316406 282.808594 L 474.035156 283.203125 L 473.753906 283.585938 L 473.46875 283.953125 L 473.175781 284.300781 L 472.882812 284.636719 L 472.582031 284.960938 L 472.28125 285.265625 L 471.96875 285.558594 L 471.652344 285.835938 L 471.339844 286.09375 L 471.019531 286.339844 L 470.691406 286.574219 L 470.398438 286.765625 L 470.109375 286.949219 L 469.8125 287.117188 L 469.523438 287.28125 L 469.222656 287.425781 L 468.929688 287.5625 L 468.632812 287.6875 L 468.332031 287.800781 L 468.039062 287.902344 L 467.738281 287.992188 L 467.441406 288.074219 L 467.140625 288.140625 L 466.839844 288.195312 L 466.539062 288.242188 L 466.234375 288.277344 L 465.9375 288.300781 L 465.679688 288.304688 L 465.167969 288.304688 L 464.914062 288.289062 L 464.660156 288.265625 L 464.402344 288.234375 L 464.144531 288.195312 L 463.890625 288.148438 L 463.632812 288.097656 L 463.375 288.03125 L 462.855469 287.882812 L 462.335938 287.699219 L 461.816406 287.484375 L 461.296875 287.238281 L 460.769531 286.960938 L 460.246094 286.648438 L 459.71875 286.304688 L 459.195312 285.929688 L 458.667969 285.523438 L 458.136719 285.082031 L 457.609375 284.613281 L 457.078125 284.113281 L 456.550781 283.582031 L 456.015625 283.015625 L 455.488281 282.421875 L 454.953125 281.792969 L 454.421875 281.132812 L 453.886719 280.445312 L 453.351562 279.722656 L 452.820312 278.976562 L 452.285156 278.195312 L 451.753906 277.382812 L 451.214844 276.535156 L 450.675781 275.660156 L 450.132812 274.746094 L 449.578125 273.78125 L 449.003906 272.753906 L 447.949219 270.8125 L 446.890625 268.808594 L 445.835938 266.738281 L 444.777344 264.605469 L 443.71875 262.410156 L 442.664062 260.148438 L 441.605469 257.824219 L 440.546875 255.433594 L 439.488281 252.980469 L 438.425781 250.460938 L 437.363281 247.875 L 436.296875 245.21875 L 435.226562 242.488281 L 434.15625 239.6875 L 433.074219 236.800781 L 431.984375 233.832031 L 431.121094 231.441406 L 430.1875 228.824219 L 427.769531 221.957031 L 426.042969 217.050781 L 424.769531 213.464844 L 423.605469 210.21875 L 422.519531 207.25 L 421.445312 204.375 L 420.402344 201.652344 L 419.386719 199.050781 L 418.382812 196.550781 L 417.8125 195.164062 L 417.257812 193.878906 L 416.722656 192.664062 L 416.1875 191.515625 L 415.660156 190.414062 L 415.128906 189.367188 L 414.597656 188.359375 L 414.0625 187.394531 L 413.515625 186.464844 L 412.964844 185.570312 L 412.40625 184.710938 L 411.839844 183.890625 L 411.269531 183.105469 L 410.6875 182.351562 L 410.09375 181.632812 L 409.492188 180.945312 L 409.265625 180.707031 L 409.039062 180.472656 L 408.808594 180.25 L 408.570312 180.035156 L 408.332031 179.835938 L 408.089844 179.644531 L 407.84375 179.460938 L 407.59375 179.289062 L 407.347656 179.128906 L 407.089844 178.976562 L 406.832031 178.835938 L 406.570312 178.703125 L 406.308594 178.585938 L 406.039062 178.472656 L 405.769531 178.375 L 405.496094 178.285156 L 405.210938 178.203125 L 404.917969 178.128906 L 404.625 178.070312 L 404.324219 178.023438 L 404.023438 177.984375 L 403.71875 177.957031 L 403.410156 177.9375 L 403.101562 177.933594 L 402.785156 177.941406 L 402.46875 177.957031 L 402.144531 177.984375 L 401.820312 178.027344 L 401.492188 178.074219 L 401.160156 178.132812 L 400.824219 178.207031 L 400.484375 178.289062 L 399.722656 178.496094 L 398.960938 178.726562 L 398.203125 178.972656 L 397.449219 179.238281 L 396.695312 179.519531 L 395.945312 179.828125 L 395.191406 180.152344 L 394.433594 180.503906 L 392.859375 181.265625 L 391.285156 182.058594 L 389.714844 182.886719 L 388.144531 183.746094 L 386.582031 184.632812 L 385.015625 185.554688 L 383.457031 186.507812 L 381.898438 187.492188 L 380.496094 188.386719 L 379.09375 189.269531 L 377.675781 190.136719 L 376.261719 190.988281 L 375.425781 191.484375 L 374.585938 191.972656 L 373.742188 192.445312 L 372.894531 192.917969 L 372.042969 193.382812 L 371.191406 193.832031 L 370.335938 194.277344 L 369.472656 194.71875 L 368.613281 195.148438 L 367.746094 195.570312 L 366.875 195.984375 L 366 196.390625 L 365.125 196.785156 L 364.242188 197.175781 L 363.363281 197.558594 L 362.476562 197.929688 L 361.257812 198.429688 L 360.03125 198.914062 L 358.796875 199.378906 L 357.5625 199.832031 L 356.320312 200.269531 L 355.070312 200.691406 L 353.8125 201.101562 L 352.550781 201.492188 L 351.144531 201.90625 L 349.742188 202.289062 L 348.34375 202.640625 L 346.957031 202.960938 L 345.570312 203.253906 L 344.179688 203.511719 L 342.792969 203.742188 L 341.40625 203.945312 L 340.507812 204.0625 L 339.609375 204.164062 L 338.707031 204.257812 L 337.808594 204.335938 L 336.898438 204.40625 L 335.984375 204.460938 L 335.070312 204.503906 L 334.148438 204.539062 L 333.222656 204.558594 L 332.292969 204.570312 L 331.355469 204.566406 L 330.410156 204.554688 L 329.457031 204.527344 L 328.496094 204.488281 L 327.527344 204.445312 L 326.546875 204.382812 L 323.34375 204.15625 L 318.957031 203.816406 L 315.484375 203.546875 L 312.9375 203.359375 L 310.625 203.203125 L 308.5 203.070312 L 306.429688 202.960938 L 304.453125 202.871094 L 302.558594 202.808594 L 300.722656 202.765625 L 299.503906 202.75 L 298.300781 202.742188 L 297.128906 202.75 L 295.972656 202.765625 L 294.839844 202.792969 L 293.722656 202.835938 L 292.625 202.882812 L 291.546875 202.945312 L 290.480469 203.019531 L 289.429688 203.101562 L 288.394531 203.199219 L 287.371094 203.304688 L 286.359375 203.425781 L 285.363281 203.554688 L 284.382812 203.695312 L 283.410156 203.855469 L 282.449219 204.019531 L 281.496094 204.199219 L 280.558594 204.386719 L 279.628906 204.589844 L 278.710938 204.804688 L 277.800781 205.03125 L 276.90625 205.273438 L 276.015625 205.519531 L 275.132812 205.785156 L 274.265625 206.0625 L 273.402344 206.351562 L 272.550781 206.652344 L 271.707031 206.964844 L 270.871094 207.292969 L 270.042969 207.632812 L 269.226562 207.984375 L 268.625 208.257812 L 268.0625 208.519531 L 267.53125 208.78125 L 267.039062 209.039062 L 266.5625 209.296875 L 266.113281 209.558594 L 265.683594 209.820312 L 265.28125 210.085938 L 264.894531 210.355469 L 264.535156 210.628906 L 264.191406 210.902344 L 263.875 211.183594 L 263.574219 211.460938 L 263.300781 211.75 L 263.046875 212.039062 L 262.8125 212.328125 L 262.734375 212.441406 L 262.671875 212.550781 L 262.625 212.671875 L 262.589844 212.789062 L 262.566406 212.910156 L 262.554688 213.035156 L 262.558594 213.164062 L 262.574219 213.292969 L 262.601562 213.429688 L 262.644531 213.5625 L 262.691406 213.703125 L 262.761719 213.84375 L 262.839844 213.984375 L 262.929688 214.128906 L 263.035156 214.28125 L 263.152344 214.433594 L 263.28125 214.585938 L 263.421875 214.738281 L 263.734375 215.046875 L 264.394531 215.632812 L 265.097656 216.21875 L 265.832031 216.800781 L 266.613281 217.386719 L 267.433594 217.960938 L 268.289062 218.535156 L 269.183594 219.105469 L 270.121094 219.675781 L 272.601562 221.164062 L 275.152344 222.710938 L 277.769531 224.3125 L 280.460938 225.980469 L 283.214844 227.699219 L 286.042969 229.488281 L 288.933594 231.332031 L 291.898438 233.230469 L 292.789062 233.808594 L 293.660156 234.390625 L 294.511719 234.972656 L 295.347656 235.550781 L 296.167969 236.132812 L 296.96875 236.710938 L 297.75 237.292969 L 298.511719 237.878906 L 299.027344 238.28125 L 299.570312 238.722656 L 300.113281 239.179688 L 300.640625 239.640625 L 301.167969 240.117188 L 301.683594 240.597656 L 302.195312 241.09375 L 302.691406 241.597656 L 303.191406 242.113281 L 303.679688 242.636719 L 304.160156 243.175781 L 304.632812 243.71875 L 305.101562 244.277344 L 305.566406 244.847656 L 306.019531 245.429688 L 306.46875 246.019531 L 306.914062 246.625 L 307.351562 247.234375 L 307.78125 247.863281 L 308.210938 248.503906 L 308.632812 249.15625 L 309.050781 249.816406 L 309.460938 250.496094 L 309.871094 251.191406 L 310.277344 251.898438 L 310.675781 252.621094 L 311.074219 253.359375 L 311.46875 254.113281 L 311.867188 254.886719 L 312.257812 255.679688 L 312.644531 256.484375 L 313.035156 257.316406 L 313.421875 258.167969 L 315.210938 262.148438 L 317 266.152344 L 318.785156 270.167969 L 320.570312 274.207031 L 320.988281 275.128906 L 321.433594 276.035156 L 321.898438 276.9375 L 322.382812 277.832031 L 322.894531 278.707031 L 323.421875 279.578125 L 323.980469 280.441406 L 324.554688 281.292969 L 324.84375 281.691406 L 325.140625 282.078125 L 325.449219 282.445312 L 325.769531 282.796875 L 326.101562 283.140625 L 326.441406 283.460938 L 326.789062 283.773438 L 327.15625 284.0625 L 327.386719 284.234375 L 327.621094 284.386719 L 327.859375 284.523438 L 328.101562 284.640625 L 328.351562 284.75 L 328.601562 284.835938 L 328.851562 284.90625 L 329.105469 284.964844 L 329.300781 284.996094 L 329.496094 285.015625 L 329.691406 285.023438 L 329.890625 285.027344 L 330.09375 285.023438 L 330.296875 285.003906 L 330.5 284.980469 L 330.703125 284.941406 L 330.910156 284.898438 L 331.113281 284.84375 L 331.320312 284.78125 L 331.523438 284.710938 L 331.9375 284.539062 L 332.144531 284.433594 L 332.347656 284.328125 L 332.558594 284.207031 L 332.761719 284.082031 L 332.96875 283.945312 L 333.171875 283.800781 L 333.574219 283.488281 L 333.96875 283.144531 L 334.347656 282.769531 L 334.707031 282.375 L 335.050781 281.960938 L 335.363281 281.53125 L 335.621094 281.148438 L 335.863281 280.761719 L 336.097656 280.371094 L 336.320312 279.976562 L 336.535156 279.574219 L 336.738281 279.167969 L 336.929688 278.753906 L 337.113281 278.332031 L 337.285156 277.90625 L 337.449219 277.472656 L 337.695312 276.777344 L 337.929688 276.066406 L 338.152344 275.339844 L 338.367188 274.59375 L 338.570312 273.832031 L 338.765625 273.058594 L 338.945312 272.265625 L 339.121094 271.457031 L 339.285156 270.636719 L 339.4375 269.792969 L 339.582031 268.9375 L 339.714844 268.066406 L 339.839844 267.179688 L 339.949219 266.273438 L 340.054688 265.351562 L 340.148438 264.417969 L 340.226562 263.488281 L 340.296875 262.550781 L 340.355469 261.613281 L 340.398438 260.664062 L 340.429688 259.722656 L 340.453125 258.773438 L 340.464844 257.816406 L 340.464844 256.859375 L 340.449219 255.898438 L 340.425781 254.933594 L 340.386719 253.964844 L 340.34375 252.992188 L 340.28125 252.019531 L 340.207031 251.039062 L 340.128906 250.054688 L 340.03125 249.070312 L 339.835938 247.285156 L 339.609375 245.496094 L 339.351562 243.714844 L 339.074219 241.9375 L 338.761719 240.171875 L 338.425781 238.410156 L 338.058594 236.660156 L 337.664062 234.921875 L 337.246094 233.191406 L 336.800781 231.484375 L 336.332031 229.78125 L 335.832031 228.097656 L 335.3125 226.429688 L 334.761719 224.785156 L 334.1875 223.15625 L 333.589844 221.546875 L 333.519531 221.34375 L 333.460938 221.144531 L 333.421875 220.953125 L 333.398438 220.757812 L 333.386719 220.570312 L 333.386719 220.386719 L 333.40625 220.203125 L 333.441406 220.027344 L 333.503906 219.789062 L 333.601562 219.558594 L 333.71875 219.335938 L 333.867188 219.117188 L 333.9375 219.035156 L 334.09375 218.859375 L 334.28125 218.703125 L 334.480469 218.566406 L 334.6875 218.449219 L 334.914062 218.355469 L 335.148438 218.285156 L 335.390625 218.238281 L 335.640625 218.214844 L 335.886719 218.21875 L 336.132812 218.246094 L 336.371094 218.296875 L 336.59375 218.375 L 336.808594 218.472656 L 337.007812 218.597656 L 337.195312 218.738281 L 337.359375 218.898438 L 337.449219 219.007812 L 337.535156 219.125 L 337.6875 219.371094 L 337.84375 219.648438 L 338.003906 219.953125 L 338.164062 220.292969 L 338.324219 220.664062 L 338.488281 221.0625 L 338.65625 221.496094 L 338.824219 221.953125 L 339.296875 223.3125 L 339.746094 224.667969 L 340.179688 226.03125 L 340.597656 227.402344 L 340.996094 228.773438 L 341.378906 230.152344 L 341.742188 231.535156 L 342.089844 232.917969 L 342.382812 234.148438 L 342.660156 235.378906 L 342.921875 236.613281 L 343.171875 237.851562 L 343.410156 239.09375 L 343.632812 240.335938 L 343.84375 241.582031 L 344.039062 242.832031 L 344.21875 244.089844 L 344.386719 245.347656 L 344.542969 246.609375 L 344.683594 247.875 L 344.808594 249.140625 L 344.921875 250.410156 L 345.019531 251.6875 L 345.105469 252.964844 L 345.164062 254.03125 L 345.203125 255.101562 L 345.230469 256.167969 L 345.246094 257.234375 L 345.242188 258.1875 L 345.230469 259.144531 L 345.203125 260.097656 L 345.167969 261.050781 L 345.117188 262.011719 L 345.054688 262.964844 L 344.976562 263.917969 L 344.894531 264.875 L 344.792969 265.828125 L 344.683594 266.785156 L 344.558594 267.742188 L 344.425781 268.695312 L 344.28125 269.652344 L 344.121094 270.605469 L 343.949219 271.5625 L 343.765625 272.519531 L 343.519531 273.691406 L 343.386719 274.265625 L 343.25 274.832031 L 343.101562 275.394531 L 342.949219 275.953125 L 342.792969 276.5 L 342.628906 277.042969 L 342.453125 277.578125 L 342.277344 278.105469 L 342.09375 278.632812 L 341.902344 279.144531 L 341.707031 279.65625 L 341.503906 280.152344 L 341.292969 280.652344 L 341.078125 281.136719 L 340.867188 281.589844 L 340.640625 282.039062 L 340.398438 282.484375 L 340.148438 282.925781 L 339.882812 283.355469 L 339.601562 283.78125 L 339.3125 284.195312 L 339.019531 284.597656 L 338.710938 284.992188 L 338.398438 285.367188 L 338.070312 285.738281 L 337.742188 286.089844 L 337.402344 286.433594 L 337.058594 286.753906 L 336.703125 287.070312 L 336.351562 287.363281 L 335.988281 287.640625 L 335.628906 287.898438 L 335.261719 288.144531 L 334.894531 288.375 L 334.515625 288.589844 L 334.140625 288.78125 L 333.761719 288.964844 L 333.378906 289.125 L 332.992188 289.273438 L 332.609375 289.398438 L 332.21875 289.511719 L 331.828125 289.605469 L 331.4375 289.683594 L 331.042969 289.742188 L 330.648438 289.785156 L 330.253906 289.8125 L 329.949219 289.820312 L 329.648438 289.816406 L 329.214844 289.792969 L 328.777344 289.75 L 328.320312 289.679688 L 327.863281 289.578125 L 327.414062 289.457031 L 326.964844 289.3125 L 326.523438 289.132812 L 326.078125 288.933594 L 325.644531 288.714844 L 325.207031 288.464844 L 324.777344 288.1875 L 324.347656 287.890625 L 323.921875 287.5625 L 323.5 287.210938 L 323.082031 286.835938 L 322.667969 286.4375 L 322.253906 286.007812 L 321.847656 285.554688 L 321.445312 285.082031 L 321.046875 284.589844 L 320.652344 284.066406 L 320.257812 283.523438 L 319.867188 282.949219 L 319.480469 282.351562 L 319.09375 281.726562 L 318.707031 281.074219 L 318.332031 280.40625 L 317.953125 279.707031 L 317.570312 278.980469 L 317.1875 278.222656 L 316.804688 277.433594 L 316.410156 276.59375 L 315.996094 275.6875 L 315.515625 274.617188 L 314.664062 272.683594 L 313.503906 270.023438 L 312.207031 267.054688 L 311.253906 264.886719 L 310.371094 262.925781 L 309.550781 261.136719 L 308.738281 259.410156 L 307.945312 257.78125 L 307.175781 256.238281 L 306.414062 254.761719 L 305.914062 253.84375 L 305.398438 252.941406 L 304.871094 252.054688 L 304.328125 251.195312 L 303.761719 250.351562 L 303.1875 249.53125 L 302.59375 248.726562 L 301.980469 247.9375 L 301.355469 247.171875 L 300.710938 246.429688 L 300.054688 245.699219 L 299.378906 244.996094 L 298.6875 244.308594 L 297.980469 243.640625 L 297.253906 242.992188 L 296.515625 242.363281 L 296.0625 241.992188 L 295.601562 241.628906 L 295.132812 241.273438 L 294.664062 240.925781 L 293.828125 240.324219 L 292.964844 239.714844 L 292.078125 239.097656 L 291.164062 238.46875 L 290.230469 237.839844 L 289.265625 237.199219 L 287.269531 235.894531 L 284.804688 234.320312 L 282.363281 232.769531 L 279.945312 231.253906 L 277.550781 229.765625 L 275.179688 228.300781 L 272.832031 226.867188 L 270.503906 225.464844 L 268.203125 224.089844 L 267.277344 223.527344 L 266.367188 222.953125 L 265.480469 222.371094 L 264.617188 221.777344 L 263.773438 221.175781 L 262.953125 220.5625 L 262.152344 219.941406 L 261.375 219.308594 L 260.9375 218.933594 L 260.523438 218.554688 L 260.140625 218.171875 L 259.78125 217.785156 L 259.453125 217.394531 L 259.148438 216.996094 L 258.882812 216.601562 L 258.636719 216.207031 L 258.425781 215.8125 L 258.242188 215.414062 L 258.082031 215.015625 L 257.957031 214.617188 L 257.859375 214.21875 L 257.796875 213.820312 L 257.757812 213.417969 L 257.75 213.023438 L 257.761719 212.769531 L 257.785156 212.515625 L 257.820312 212.269531 L 257.863281 212.015625 L 257.921875 211.765625 L 257.992188 211.515625 L 258.070312 211.265625 L 258.167969 211.019531 L 258.273438 210.769531 L 258.390625 210.519531 L 258.515625 210.273438 L 258.660156 210.023438 L 258.8125 209.78125 L 258.972656 209.535156 L 259.148438 209.289062 L 259.335938 209.042969 L 259.664062 208.648438 L 260.015625 208.265625 L 260.386719 207.890625 L 260.789062 207.527344 L 261.210938 207.167969 L 261.65625 206.820312 L 262.128906 206.484375 L 262.625 206.152344 L 263.207031 205.789062 L 263.804688 205.433594 L 264.414062 205.085938 L 265.039062 204.742188 L 265.675781 204.410156 L 266.328125 204.082031 L 266.992188 203.769531 L 267.671875 203.460938 L 268.359375 203.160156 L 269.066406 202.863281 L 269.789062 202.582031 L 270.519531 202.304688 L 271.261719 202.035156 L 272.023438 201.777344 L 272.796875 201.523438 L 273.582031 201.277344 L 274.957031 200.875 L 276.335938 200.5 L 277.199219 200.277344 L 278.066406 200.070312 L 278.933594 199.871094 L 279.808594 199.683594 L 280.679688 199.503906 L 281.554688 199.335938 L 282.433594 199.179688 L 283.316406 199.03125 L 284.203125 198.898438 L 285.089844 198.769531 L 285.980469 198.65625 L 286.875 198.550781 L 287.773438 198.460938 L 288.667969 198.375 L 289.570312 198.304688 L 290.476562 198.242188 L 292.078125 198.152344 L 293.710938 198.085938 L 295.382812 198.035156 L 297.09375 198.007812 L 298.84375 198.003906 L 300.640625 198.015625 L 302.480469 198.050781 L 304.375 198.109375 L 306.292969 198.179688 L 308.277344 198.277344 L 310.332031 198.394531 L 312.472656 198.535156 L 314.695312 198.691406 L 317.046875 198.875 L 319.566406 199.085938 L 322.359375 199.335938 L 323.792969 199.453125 L 325.210938 199.558594 L 326.621094 199.640625 L 328.023438 199.710938 L 329.421875 199.757812 L 330.804688 199.785156 L 332.183594 199.796875 L 333.546875 199.792969 L 334.296875 199.78125 L 335.050781 199.757812 L 335.800781 199.726562 L 336.550781 199.679688 L 337.304688 199.625 L 338.058594 199.566406 L 338.816406 199.492188 L 339.570312 199.40625 L 340.332031 199.3125 L 341.089844 199.207031 L 341.847656 199.09375 L 342.617188 198.964844 L 343.382812 198.832031 L 344.15625 198.6875 L 344.933594 198.535156 L 345.710938 198.363281 L 346.488281 198.1875 L 347.277344 198 L 348.066406 197.804688 L 348.863281 197.59375 L 349.664062 197.375 L 350.46875 197.144531 L 351.285156 196.902344 L 352.105469 196.652344 L 352.933594 196.386719 L 353.773438 196.109375 L 354.621094 195.824219 L 355.476562 195.519531 L 356.34375 195.210938 L 357.222656 194.882812 L 358.113281 194.546875 L 359.015625 194.195312 L 360.167969 193.734375 L 361.3125 193.257812 L 362.453125 192.769531 L 363.589844 192.261719 L 364.722656 191.742188 L 365.851562 191.203125 L 366.96875 190.65625 L 368.089844 190.089844 L 369.203125 189.511719 L 370.3125 188.914062 L 371.417969 188.300781 L 372.515625 187.679688 L 373.613281 187.039062 L 374.703125 186.382812 L 375.789062 185.714844 L 376.871094 185.027344 L 378.691406 183.867188 L 380.3125 182.851562 L 381.816406 181.925781 L 383.242188 181.066406 L 384.617188 180.261719 L 385.941406 179.503906 L 387.226562 178.792969 L 388.476562 178.125 L 389.714844 177.488281 L 390.925781 176.894531 L 392.109375 176.335938 L 393.269531 175.816406 L 394.40625 175.339844 L 395.527344 174.894531 L 396.628906 174.484375 L 397.710938 174.113281 L 398.304688 173.925781 L 398.890625 173.757812 L 399.472656 173.613281 L 400.042969 173.492188 L 400.617188 173.386719 L 401.175781 173.308594 L 401.734375 173.246094 L 402.285156 173.203125 L 402.828125 173.183594 L 403.363281 173.183594 L 403.894531 173.207031 L 404.421875 173.25 L 404.9375 173.316406 L 405.453125 173.398438 L 405.960938 173.507812 L 406.460938 173.632812 L 406.796875 173.730469 L 407.132812 173.835938 L 407.464844 173.953125 L 407.792969 174.082031 L 408.125 174.21875 L 408.445312 174.363281 L 408.769531 174.519531 L 409.085938 174.683594 L 409.40625 174.859375 L 409.714844 175.042969 L 410.03125 175.238281 L 410.339844 175.445312 L 410.648438 175.65625 L 410.949219 175.878906 L 411.253906 176.113281 L 411.554688 176.359375 L 411.847656 176.613281 L 412.144531 176.871094 L 412.4375 177.144531 L 412.726562 177.429688 L 413.019531 177.722656 L 413.300781 178.023438 L 413.589844 178.335938 L 413.867188 178.660156 L 414.148438 178.992188 L 414.425781 179.332031 L 414.699219 179.6875 L 414.976562 180.050781 L 415.519531 180.804688 L 416.050781 181.601562 L 416.539062 182.359375 L 417.011719 183.136719 L 417.488281 183.925781 L 417.953125 184.726562 L 418.414062 185.542969 L 418.867188 186.371094 L 419.3125 187.210938 L 419.753906 188.070312 L 420.1875 188.9375 L 420.617188 189.820312 L 421.035156 190.71875 L 421.453125 191.625 L 421.859375 192.550781 L 422.261719 193.488281 L 422.65625 194.441406 L 423.050781 195.40625 L 424.074219 198.003906 L 425.074219 200.582031 L 426.050781 203.136719 L 427 205.675781 L 427.925781 208.1875 L 428.828125 210.683594 L 429.707031 213.15625 L 430.558594 215.609375 L 431.761719 219.082031 L 432.914062 222.378906 L 434.03125 225.53125 L 435.125 228.5625 L 436.195312 231.496094 L 437.25 234.332031 L 438.292969 237.085938 L 439.320312 239.765625 L 440.347656 242.390625 L 441.367188 244.945312 L 442.378906 247.4375 L 443.386719 249.871094 L 444.394531 252.242188 L 445.398438 254.5625 L 446.398438 256.832031 L 447.398438 259.042969 L 448.328125 261.035156 L 449.269531 262.996094 L 450.238281 264.929688 L 450.726562 265.882812 L 451.222656 266.828125 L 451.722656 267.769531 L 452.226562 268.699219 L 452.738281 269.628906 L 453.25 270.542969 L 453.769531 271.457031 L 454.292969 272.355469 L 454.824219 273.253906 L 455.355469 274.144531 L 455.726562 274.742188 L 456.09375 275.320312 L 456.460938 275.882812 L 456.828125 276.425781 L 457.199219 276.953125 L 457.566406 277.460938 L 457.933594 277.953125 L 458.300781 278.425781 L 458.667969 278.878906 L 459.03125 279.304688 L 459.394531 279.71875 L 459.753906 280.109375 L 460.113281 280.480469 L 460.46875 280.828125 L 460.820312 281.152344 L 461.171875 281.460938 L 461.515625 281.746094 L 461.859375 282.003906 L 462.199219 282.246094 L 462.535156 282.464844 L 462.863281 282.660156 L 463.195312 282.835938 L 463.519531 282.988281 L 463.84375 283.125 L 464.164062 283.230469 L 464.476562 283.320312 L 464.789062 283.386719 L 465.097656 283.433594 L 465.394531 283.457031 L 465.699219 283.457031 L 465.996094 283.4375 L 466.285156 283.394531 L 466.566406 283.335938 L 466.839844 283.25 L 467.109375 283.148438 L 467.382812 283.023438 L 467.644531 282.882812 L 467.902344 282.71875 L 468.160156 282.535156 L 468.414062 282.328125 L 468.808594 281.964844 L 469.191406 281.585938 L 469.554688 281.183594 L 469.910156 280.757812 L 470.242188 280.3125 L 470.5625 279.84375 L 470.863281 279.351562 L 471.152344 278.839844 L 471.40625 278.351562 L 471.652344 277.851562 L 471.886719 277.347656 L 472.117188 276.828125 L 472.339844 276.300781 L 472.554688 275.761719 L 472.757812 275.210938 L 472.953125 274.652344 L 473.144531 274.085938 L 473.328125 273.503906 L 473.5 272.917969 L 473.664062 272.320312 L 473.816406 271.707031 L 473.964844 271.089844 L 474.105469 270.464844 L 474.234375 269.828125 L 474.359375 269.179688 L 474.472656 268.523438 L 474.582031 267.855469 L 474.679688 267.183594 L 474.769531 266.5 L 474.847656 265.804688 L 474.921875 265.105469 L 474.988281 264.394531 L 475.039062 263.679688 L 475.085938 262.949219 L 475.125 262.214844 L 475.15625 261.472656 L 475.179688 260.722656 L 475.191406 259.96875 L 475.195312 259.203125 L 475.191406 258.433594 L 475.175781 257.351562 L 475.148438 256.25 L 475.109375 255.132812 L 475.0625 254.003906 L 475.007812 252.855469 L 474.941406 251.695312 L 474.867188 250.519531 L 474.785156 249.328125 L 474.6875 248.121094 L 474.582031 246.898438 L 474.46875 245.660156 L 474.34375 244.410156 L 474.207031 243.140625 L 474.066406 241.855469 L 473.914062 240.554688 L 473.746094 239.242188 L 473.4375 236.84375 L 473.117188 234.4375 L 472.78125 232.03125 L 472.433594 229.625 L 472.074219 227.214844 L 471.703125 224.796875 L 471.320312 222.382812 L 470.925781 219.960938 L 470.515625 217.539062 L 470.097656 215.113281 L 469.664062 212.683594 L 469.222656 210.253906 L 468.765625 207.820312 L 468.300781 205.382812 L 467.816406 202.941406 L 467.324219 200.5 L 466.058594 194.265625 L 465.125 189.535156 L 464.703125 187.34375 L 464.308594 185.261719 L 463.9375 183.269531 L 463.59375 181.347656 L 463.257812 179.425781 L 462.941406 177.558594 L 462.644531 175.738281 L 462.363281 173.960938 L 462.097656 172.222656 L 461.851562 170.519531 L 461.621094 168.84375 L 461.40625 167.203125 L 461.203125 165.53125 L 461.011719 163.882812 L 460.839844 162.257812 L 460.683594 160.652344 L 460.546875 159.074219 L 460.417969 157.515625 L 460.308594 155.972656 L 460.214844 154.449219 L 460.132812 152.9375 L 460.074219 151.445312 L 460.023438 149.972656 L 459.992188 148.507812 L 459.972656 147.058594 L 459.972656 145.621094 L 459.984375 144.199219 L 460.015625 142.785156 L 460.050781 141.796875 L 460.097656 140.804688 L 460.160156 139.820312 L 460.238281 138.832031 L 460.335938 137.847656 L 460.441406 136.855469 L 460.566406 135.867188 L 460.707031 134.878906 L 460.859375 133.890625 L 461.027344 132.902344 L 461.210938 131.914062 L 461.410156 130.921875 L 461.625 129.933594 L 461.855469 128.941406 L 462.101562 127.957031 L 462.359375 126.964844 L 462.636719 125.976562 L 462.925781 124.976562 L 463.230469 123.988281 L 463.550781 122.996094 L 463.886719 122.003906 L 464.238281 121.011719 L 464.601562 120.019531 L 464.984375 119.023438 L 465.378906 118.027344 L 465.789062 117.03125 L 466.214844 116.039062 L 466.660156 115.042969 L 467.117188 114.046875 L 467.589844 113.050781 L 468.078125 112.050781 L 468.578125 111.046875 L 469.097656 110.050781 L 469.625 109.054688 L 470.175781 108.054688 L 470.738281 107.054688 L 471.3125 106.054688 L 471.90625 105.054688 L 472.511719 104.046875 L 473.136719 103.039062 L 473.777344 102.035156 L 474.429688 101.027344 L 475.105469 100.015625 L 475.792969 99.003906 L 476.492188 97.992188 L 477.210938 96.976562 L 477.941406 95.957031 L 478.695312 94.941406 L 479.457031 93.917969 L 480.238281 92.894531 L 481.039062 91.867188 L 481.855469 90.839844 L 482.683594 89.808594 L 483.53125 88.773438 L 484.398438 87.734375 L 485.277344 86.691406 L 486.179688 85.644531 L 487.097656 84.597656 L 488.03125 83.539062 L 488.988281 82.476562 L 489.960938 81.40625 L 490.953125 80.335938 L 491.964844 79.253906 L 493 78.167969 L 495.15625 75.914062 L 497.414062 73.566406 L 502.21875 68.609375 L 507.40625 63.292969 L 512.980469 57.621094 L 513.820312 56.761719 L 514.652344 55.902344 L 515.476562 55.035156 L 516.296875 54.160156 L 517.109375 53.28125 L 517.917969 52.398438 L 518.714844 51.507812 L 519.503906 50.609375 L 520.289062 49.714844 L 521.070312 48.804688 L 521.839844 47.898438 L 522.605469 46.980469 L 523.363281 46.0625 L 524.113281 45.132812 L 524.855469 44.203125 L 525.597656 43.261719 L 526.335938 42.308594 L 527.070312 41.347656 L 527.796875 40.378906 L 528.519531 39.40625 L 529.304688 38.3125 L 530.074219 37.210938 L 530.8125 36.105469 L 531.527344 35 L 532.203125 33.902344 L 532.851562 32.808594 L 533.464844 31.722656 L 534.042969 30.652344 L 534.582031 29.59375 L 535.089844 28.550781 L 535.554688 27.519531 L 535.984375 26.503906 L 536.378906 25.507812 L 536.738281 24.527344 L 537.054688 23.558594 L 537.199219 23.082031 L 537.335938 22.609375 L 537.460938 22.144531 L 537.578125 21.6875 L 537.683594 21.234375 L 537.78125 20.785156 L 537.867188 20.339844 L 537.945312 19.898438 L 538.015625 19.460938 L 538.074219 19.027344 L 538.125 18.605469 L 538.167969 18.179688 L 538.199219 17.765625 L 538.21875 17.347656 L 538.234375 16.945312 L 538.234375 16.539062 L 538.230469 16.140625 L 538.214844 15.742188 L 538.1875 15.359375 L 538.152344 14.972656 L 538.109375 14.597656 L 538.054688 14.222656 L 537.992188 13.855469 L 537.917969 13.492188 L 537.835938 13.132812 L 537.746094 12.78125 L 537.644531 12.433594 L 537.535156 12.089844 L 537.414062 11.753906 L 537.285156 11.417969 L 537.152344 11.089844 L 537 10.769531 L 536.84375 10.449219 L 536.679688 10.140625 L 536.441406 9.730469 L 536.28125 9.472656 L 536.113281 9.222656 L 535.9375 8.980469 L 535.757812 8.75 L 535.566406 8.519531 L 535.371094 8.296875 L 535.167969 8.082031 L 534.960938 7.875 L 534.648438 7.585938 L 534.3125 7.3125 L 533.972656 7.054688 L 533.617188 6.8125 L 533.242188 6.585938 L 532.855469 6.371094 L 532.460938 6.175781 L 532.046875 5.996094 L 531.621094 5.828125 L 531.179688 5.679688 L 530.726562 5.542969 L 530.265625 5.425781 L 529.785156 5.320312 L 529.292969 5.238281 L 528.796875 5.164062 L 528.28125 5.109375 L 527.757812 5.074219 L 527.214844 5.050781 L 526.664062 5.042969 L 526.101562 5.054688 L 525.535156 5.078125 L 524.960938 5.121094 L 524.375 5.183594 L 523.785156 5.261719 L 523.183594 5.351562 L 522.582031 5.460938 L 521.976562 5.585938 L 521.371094 5.726562 L 520.765625 5.882812 L 520.164062 6.050781 L 519.5625 6.234375 L 518.96875 6.433594 L 518.179688 6.714844 L 517.410156 7.003906 L 516.652344 7.3125 L 515.90625 7.625 L 515.179688 7.949219 L 514.460938 8.289062 L 513.757812 8.636719 L 513.074219 8.996094 L 512.046875 9.5625 L 511.019531 10.140625 L 509.992188 10.742188 L 508.96875 11.359375 L 507.941406 11.996094 L 506.917969 12.65625 L 505.890625 13.328125 L 504.867188 14.023438 L 503.839844 14.734375 L 502.816406 15.472656 L 501.789062 16.222656 L 500.757812 16.992188 L 499.734375 17.785156 L 498.707031 18.589844 L 497.683594 19.417969 L 496.65625 20.261719 L 492.785156 23.507812 L 488.863281 26.820312 L 484.890625 30.214844 L 480.867188 33.679688 L 478.265625 35.914062 L 475.699219 38.074219 L 474.429688 39.128906 L 473.164062 40.171875 L 471.910156 41.191406 L 470.65625 42.203125 L 469.414062 43.195312 L 468.175781 44.175781 L 466.945312 45.136719 L 465.71875 46.082031 L 464.5 47.019531 L 463.277344 47.9375 L 462.066406 48.84375 L 460.859375 49.738281 L 459.65625 50.613281 L 458.453125 51.484375 L 457.253906 52.335938 L 456.058594 53.175781 L 454.871094 54 L 453.679688 54.816406 L 452.496094 55.617188 L 451.316406 56.402344 L 450.132812 57.175781 L 448.957031 57.941406 L 447.78125 58.6875 L 446.613281 59.425781 L 445.445312 60.152344 L 444.273438 60.863281 L 443.113281 61.5625 L 441.949219 62.25 L 440.785156 62.925781 L 439.617188 63.59375 L 438.457031 64.246094 L 437.300781 64.886719 L 436.140625 65.515625 L 434.988281 66.132812 L 433.832031 66.738281 L 432.679688 67.328125 L 431.523438 67.910156 L 430.378906 68.476562 L 429.222656 69.035156 L 428.078125 69.582031 L 426.929688 70.113281 L 425.785156 70.632812 L 424.636719 71.144531 L 423.492188 71.640625 L 422.351562 72.125 L 421.210938 72.597656 L 420.066406 73.0625 L 418.925781 73.511719 L 417.789062 73.949219 L 416.652344 74.375 L 415.511719 74.789062 L 414.375 75.191406 L 413.234375 75.585938 L 412.105469 75.964844 L 410.964844 76.335938 L 409.832031 76.6875 L 408.695312 77.035156 L 407.566406 77.367188 L 406.429688 77.6875 L 405.296875 78 L 404.046875 78.324219 L 402.796875 78.632812 L 401.542969 78.917969 L 400.292969 79.183594 L 399.039062 79.433594 L 397.789062 79.664062 L 396.535156 79.871094 L 395.28125 80.058594 L 394.027344 80.226562 L 392.773438 80.378906 L 391.519531 80.507812 L 390.265625 80.617188 L 389.011719 80.707031 L 387.757812 80.78125 L 386.5 80.835938 L 385.246094 80.867188 L 384.109375 80.878906 L 382.96875 80.875 L 381.828125 80.855469 L 380.6875 80.820312 L 379.546875 80.769531 L 378.410156 80.703125 L 377.265625 80.617188 L 376.128906 80.515625 L 373.929688 80.300781 L 371.742188 80.070312 L 369.550781 79.820312 L 367.371094 79.554688 L 365.1875 79.273438 L 363.011719 78.976562 L 360.839844 78.660156 L 358.671875 78.332031 L 356.109375 77.9375 L 353.652344 77.570312 L 351.28125 77.222656 L 348.988281 76.902344 L 346.765625 76.601562 L 344.597656 76.316406 L 342.476562 76.054688 L 340.410156 75.808594 L 338.371094 75.578125 L 336.371094 75.371094 L 334.402344 75.175781 L 332.457031 74.996094 L 330.539062 74.835938 L 328.640625 74.6875 L 326.765625 74.554688 L 324.902344 74.441406 L 321.335938 74.25 L 317.707031 74.085938 L 314.011719 73.941406 L 310.253906 73.828125 L 306.433594 73.738281 L 302.546875 73.679688 L 298.597656 73.640625 L 294.585938 73.628906 L 294.410156 73.628906 L 292.804688 73.632812 L 291.515625 73.644531 L 290.230469 73.667969 L 288.964844 73.699219 L 287.714844 73.738281 L 286.5 73.785156 L 285.308594 73.84375 L 284.160156 73.910156 L 283.046875 73.980469 L 281.976562 74.058594 L 280.945312 74.144531 L 279.953125 74.242188 L 279.003906 74.347656 L 278.101562 74.457031 L 277.234375 74.574219 L 276.417969 74.699219 L 275.640625 74.832031 L 274.910156 74.96875 L 274.226562 75.117188 L 273.589844 75.265625 L 272.992188 75.425781 L 272.441406 75.589844 L 271.933594 75.765625 L 271.472656 75.945312 L 271.054688 76.132812 L 270.683594 76.324219 L 270.359375 76.523438 L 270.210938 76.625 L 270.074219 76.730469 L 269.953125 76.832031 L 269.835938 76.941406 L 269.738281 77.046875 L 269.648438 77.160156 L 269.570312 77.269531 L 269.5 77.386719 L 269.441406 77.5 L 269.394531 77.617188 L 269.367188 77.734375 L 269.34375 77.855469 L 269.332031 77.960938 L 269.328125 78.0625 L 269.335938 78.171875 L 269.351562 78.277344 L 269.371094 78.386719 L 269.398438 78.496094 L 269.488281 78.71875 L 269.65625 79.0625 L 269.847656 79.40625 L 270.066406 79.75 L 270.304688 80.09375 L 270.570312 80.441406 L 270.855469 80.785156 L 271.171875 81.128906 L 271.503906 81.476562 L 271.867188 81.820312 L 272.25 82.164062 L 272.660156 82.519531 L 273.097656 82.871094 L 273.5625 83.230469 L 274.058594 83.597656 L 274.605469 83.984375 L 275.210938 84.402344 L 276.085938 84.996094 L 276.988281 85.578125 L 277.917969 86.160156 L 278.863281 86.734375 L 279.84375 87.3125 L 280.855469 87.890625 L 281.894531 88.46875 L 282.972656 89.050781 L 284.066406 89.625 L 285.203125 90.207031 L 286.382812 90.796875 L 287.621094 91.402344 L 288.914062 92.023438 L 290.289062 92.667969 L 291.773438 93.355469 L 293.429688 94.109375 L 295.65625 95.109375 L 298.359375 96.300781 L 301.621094 97.722656 L 306.433594 99.8125 L 312.214844 102.320312 L 316.585938 104.230469 L 320.570312 105.980469 L 324.214844 107.601562 L 332.058594 111.117188 L 339.921875 114.652344 L 347.800781 118.203125 L 355.699219 121.769531 L 356.796875 122.277344 L 357.902344 122.800781 L 359.011719 123.339844 L 360.128906 123.90625 L 361.25 124.484375 L 362.371094 125.082031 L 363.503906 125.699219 L 364.644531 126.335938 L 365.253906 126.6875 L 365.84375 127.035156 L 366.410156 127.382812 L 366.953125 127.726562 L 367.480469 128.070312 L 367.988281 128.417969 L 368.472656 128.757812 L 368.945312 129.101562 L 369.398438 129.453125 L 369.832031 129.796875 L 370.25 130.144531 L 370.652344 130.496094 L 371.035156 130.847656 L 371.402344 131.203125 L 371.757812 131.558594 L 372.089844 131.917969 L 372.40625 132.277344 L 372.710938 132.636719 L 373.003906 133.003906 L 373.269531 133.371094 L 373.527344 133.746094 L 373.765625 134.117188 L 373.988281 134.492188 L 374.195312 134.871094 L 374.386719 135.25 L 374.558594 135.628906 L 374.714844 136.023438 L 374.859375 136.410156 L 374.980469 136.796875 L 375.09375 137.191406 L 375.1875 137.585938 L 375.265625 137.988281 L 375.324219 138.347656 L 375.363281 138.714844 L 375.394531 139.085938 L 375.410156 139.460938 L 375.414062 139.832031 L 375.40625 140.207031 L 375.382812 140.582031 L 375.34375 140.964844 L 375.300781 141.351562 L 375.238281 141.734375 L 375.160156 142.121094 L 375.074219 142.515625 L 374.96875 142.90625 L 374.855469 143.300781 L 374.726562 143.695312 L 374.585938 144.097656 L 374.34375 144.726562 L 374.085938 145.339844 L 373.8125 145.945312 L 373.523438 146.535156 L 373.214844 147.117188 L 372.890625 147.691406 L 372.550781 148.246094 L 372.191406 148.792969 L 371.066406 150.4375 L 369.921875 152.0625 L 368.757812 153.667969 L 367.578125 155.257812 L 366.375 156.820312 L 365.152344 158.367188 L 363.914062 159.890625 L 362.65625 161.394531 L 361.375 162.878906 L 360.078125 164.339844 L 358.765625 165.785156 L 357.429688 167.207031 L 356.074219 168.613281 L 354.703125 169.996094 L 353.3125 171.355469 L 351.902344 172.699219 L 350.921875 173.609375 L 350.523438 173.972656 L 350.179688 174.269531 L 349.859375 174.539062 L 349.558594 174.769531 L 349.261719 174.980469 L 348.972656 175.171875 L 348.699219 175.335938 L 348.429688 175.476562 L 348.164062 175.59375 L 347.902344 175.6875 L 347.65625 175.761719 L 347.417969 175.804688 L 347.179688 175.828125 L 346.953125 175.824219 L 346.730469 175.796875 L 346.519531 175.75 L 346.363281 175.699219 L 346.214844 175.628906 L 346.0625 175.550781 L 345.917969 175.453125 L 345.78125 175.351562 L 345.644531 175.226562 L 345.515625 175.09375 L 345.382812 174.945312 L 345.269531 174.789062 L 345.171875 174.644531 L 345.085938 174.492188 L 345.019531 174.347656 L 344.964844 174.195312 L 344.929688 174.046875 L 344.910156 173.902344 L 344.902344 173.753906 L 344.910156 173.609375 L 344.9375 173.46875 L 344.972656 173.324219 L 345.023438 173.179688 L 345.09375 173.039062 L 345.175781 172.894531 L 345.269531 172.746094 L 345.382812 172.601562 L 345.507812 172.460938 L 345.644531 172.3125 L 345.800781 172.160156 L 345.976562 172.007812 L 346.371094 171.6875 L 346.925781 171.269531 L 347.511719 170.824219 L 347.707031 170.664062 L 347.867188 170.515625 L 349.078125 169.300781 L 350.28125 168.070312 L 351.476562 166.824219 L 352.667969 165.558594 L 353.847656 164.277344 L 355.015625 162.972656 L 356.183594 161.652344 L 357.339844 160.320312 L 358.488281 158.96875 L 359.625 157.59375 L 360.761719 156.207031 L 361.886719 154.800781 L 363 153.378906 L 364.109375 151.9375 L 365.210938 150.480469 L 366.304688 149.003906 L 367.058594 147.964844 L 367.644531 147.121094 L 368.164062 146.34375 L 368.621094 145.613281 L 369.03125 144.898438 L 369.214844 144.554688 L 369.390625 144.21875 L 369.550781 143.878906 L 369.699219 143.550781 L 369.839844 143.226562 L 369.960938 142.910156 L 370.082031 142.589844 L 370.183594 142.269531 L 370.277344 141.957031 L 370.355469 141.644531 L 370.425781 141.339844 L 370.484375 141.035156 L 370.527344 140.738281 L 370.558594 140.441406 L 370.582031 140.152344 L 370.589844 139.863281 L 370.585938 139.578125 L 370.570312 139.296875 L 370.542969 139.019531 L 370.507812 138.742188 L 370.457031 138.476562 L 370.390625 138.203125 L 370.328125 137.988281 L 370.261719 137.773438 L 370.1875 137.558594 L 370.101562 137.347656 L 370.011719 137.140625 L 369.90625 136.929688 L 369.800781 136.726562 L 369.683594 136.523438 L 369.558594 136.324219 L 369.429688 136.121094 L 369.136719 135.730469 L 368.816406 135.34375 L 368.460938 134.96875 L 368.1875 134.695312 L 367.902344 134.421875 L 367.605469 134.15625 L 367.300781 133.890625 L 366.664062 133.363281 L 365.984375 132.835938 L 365.265625 132.324219 L 364.507812 131.8125 L 363.710938 131.3125 L 362.875 130.816406 L 361.742188 130.171875 L 360.613281 129.546875 L 359.484375 128.941406 L 358.363281 128.355469 L 357.238281 127.785156 L 356.117188 127.230469 L 355.003906 126.699219 L 353.890625 126.1875 L 342.128906 120.855469 L 336.835938 118.464844 L 331.941406 116.265625 L 327.4375 114.253906 L 323.328125 112.425781 L 319.613281 110.785156 Z M 316.285156 109.328125 " fill-opacity="1" fill-rule="nonzero"/></g><path fill="#000000" d="M 255.054688 296.878906 L 256.449219 295.699219 L 257.808594 294.53125 L 259.128906 293.371094 L 260.417969 292.214844 L 261.675781 291.066406 L 262.898438 289.925781 L 264.089844 288.785156 L 265.25 287.648438 L 266.378906 286.515625 L 267.480469 285.382812 L 268.546875 284.253906 L 269.585938 283.128906 L 270.601562 282 L 271.582031 280.878906 L 272.53125 279.753906 L 273.457031 278.632812 L 273.488281 278.601562 L 273.523438 278.578125 L 273.5625 278.5625 L 273.605469 278.558594 L 273.648438 278.5625 L 273.6875 278.574219 L 273.726562 278.59375 L 273.757812 278.621094 L 273.773438 278.644531 L 277.496094 284.136719 L 277.539062 284.214844 L 277.570312 284.300781 L 277.585938 284.394531 L 277.589844 284.480469 L 277.574219 284.574219 L 277.546875 284.660156 L 277.507812 284.742188 L 277.453125 284.816406 L 276.367188 286.042969 L 275.269531 287.257812 L 274.15625 288.460938 L 273.023438 289.660156 L 271.878906 290.84375 L 270.71875 292.023438 L 269.542969 293.191406 L 268.347656 294.351562 L 267.144531 295.5 L 265.921875 296.640625 L 264.683594 297.769531 L 263.433594 298.890625 L 262.164062 300 L 260.878906 301.105469 L 259.582031 302.199219 L 258.269531 303.277344 L 258.242188 303.296875 L 258.195312 303.320312 L 258.144531 303.328125 L 258.09375 303.328125 L 258.046875 303.316406 L 258 303.296875 L 257.957031 303.265625 L 257.921875 303.230469 L 257.898438 303.183594 L 257.558594 302.386719 L 257.214844 301.601562 L 256.859375 300.832031 L 256.5 300.085938 L 256.132812 299.351562 L 255.757812 298.632812 L 255.375 297.933594 L 254.988281 297.246094 L 254.960938 297.195312 L 254.945312 297.144531 L 254.9375 297.097656 L 254.941406 297.050781 L 254.957031 297.003906 L 254.976562 296.957031 L 255.011719 296.917969 Z M 255.054688 296.878906 " fill-opacity="1" fill-rule="nonzero"/><path fill="#000000" d="M 125.117188 302.28125 L 124.722656 301.984375 L 124.324219 301.695312 L 123.917969 301.410156 L 123.511719 301.132812 L 123.097656 300.863281 L 122.683594 300.601562 L 122.261719 300.34375 L 121.835938 300.09375 L 121.144531 299.710938 L 120.449219 299.351562 L 119.738281 299 L 119.023438 298.675781 L 118.292969 298.367188 L 117.558594 298.082031 L 116.808594 297.8125 L 116.058594 297.5625 L 115.292969 297.332031 L 114.527344 297.121094 L 113.75 296.929688 L 112.96875 296.761719 L 112.179688 296.609375 L 111.386719 296.480469 L 110.585938 296.367188 L 109.78125 296.28125 L 108.972656 296.210938 L 108.15625 296.160156 L 107.339844 296.128906 L 106.519531 296.121094 L 105.699219 296.132812 L 104.875 296.164062 L 104.050781 296.21875 L 103.230469 296.292969 L 102.402344 296.382812 L 101.578125 296.5 L 100.753906 296.632812 L 99.929688 296.785156 L 99.109375 296.957031 L 98.292969 297.152344 L 97.472656 297.363281 L 96.660156 297.597656 L 96.621094 297.605469 L 96.578125 297.605469 L 96.535156 297.601562 L 96.496094 297.585938 L 96.460938 297.5625 L 96.429688 297.535156 L 96.40625 297.507812 L 96.386719 297.46875 L 96.074219 296.734375 L 95.757812 296 L 95.421875 295.269531 L 95.078125 294.53125 L 94.722656 293.800781 L 94.351562 293.0625 L 93.96875 292.328125 L 93.578125 291.589844 L 93.566406 291.570312 L 93.550781 291.515625 L 93.546875 291.460938 L 93.550781 291.402344 L 93.570312 291.351562 L 93.601562 291.300781 L 93.640625 291.257812 L 93.6875 291.226562 L 93.734375 291.203125 L 94.8125 290.871094 L 95.898438 290.5625 L 96.988281 290.289062 L 98.082031 290.042969 L 99.179688 289.824219 L 100.28125 289.636719 L 101.390625 289.480469 L 102.496094 289.347656 L 103.605469 289.253906 L 104.714844 289.183594 L 105.820312 289.144531 L 106.921875 289.136719 L 108.019531 289.160156 L 109.113281 289.210938 L 110.203125 289.296875 L 111.285156 289.40625 L 112.359375 289.546875 L 113.429688 289.722656 L 114.484375 289.925781 L 115.015625 290.035156 L 115.535156 290.152344 L 116.058594 290.28125 L 116.574219 290.414062 L 117.089844 290.554688 L 117.601562 290.703125 L 118.113281 290.859375 L 118.621094 291.019531 L 119.125 291.191406 L 119.625 291.371094 L 120.121094 291.554688 L 120.617188 291.746094 L 121.105469 291.941406 L 121.589844 292.148438 L 122.074219 292.359375 L 122.554688 292.578125 L 123.027344 292.804688 L 123.5 293.035156 L 123.96875 293.277344 L 124.4375 293.523438 L 124.890625 293.777344 L 125.347656 294.039062 L 125.800781 294.300781 L 126.25 294.578125 L 126.695312 294.859375 L 127.132812 295.144531 L 127.671875 295.507812 L 128.210938 295.886719 L 128.734375 296.273438 L 129.257812 296.671875 L 129.261719 296.675781 L 129.320312 296.730469 L 129.371094 296.800781 L 129.402344 296.882812 L 129.421875 296.960938 L 129.421875 297.050781 L 129.40625 297.132812 L 129.375 297.210938 L 129.328125 297.285156 L 125.347656 302.253906 L 125.296875 302.304688 L 125.238281 302.324219 L 125.179688 302.316406 Z M 125.117188 302.28125 " fill-opacity="1" fill-rule="nonzero"/><path fill="#000000" d="M 66.066406 338.328125 L 65.886719 337.804688 L 65.71875 337.285156 L 65.558594 336.753906 L 65.40625 336.226562 L 65.261719 335.695312 L 65.128906 335.167969 L 65.003906 334.636719 L 64.890625 334.105469 L 64.789062 333.574219 L 64.691406 333.035156 L 64.605469 332.5 L 64.53125 331.960938 L 64.460938 331.425781 L 64.402344 330.890625 L 64.359375 330.351562 L 64.320312 329.8125 L 64.289062 329.28125 L 64.269531 328.742188 L 64.261719 328.207031 L 64.257812 327.667969 L 64.269531 327.132812 L 64.285156 326.601562 L 64.3125 326.058594 L 64.351562 325.523438 L 64.394531 324.988281 L 64.449219 324.449219 L 64.515625 323.914062 L 64.585938 323.375 L 64.671875 322.839844 L 64.765625 322.308594 L 64.863281 321.769531 L 64.976562 321.234375 L 65.09375 320.699219 L 65.222656 320.167969 L 65.363281 319.636719 L 65.507812 319.101562 L 65.664062 318.570312 L 65.832031 318.042969 L 66.007812 317.515625 L 66.191406 316.988281 L 66.382812 316.460938 L 66.582031 315.9375 L 66.792969 315.414062 L 67.015625 314.894531 L 67.242188 314.371094 L 67.480469 313.859375 L 67.722656 313.339844 L 67.976562 312.828125 L 68.242188 312.316406 L 68.515625 311.808594 L 68.792969 311.296875 L 69.085938 310.792969 L 69.386719 310.289062 L 69.6875 309.792969 L 70.003906 309.292969 L 70.328125 308.800781 L 70.65625 308.308594 L 71 307.820312 L 71.34375 307.339844 L 71.699219 306.859375 L 72.0625 306.382812 L 72.433594 305.910156 L 72.808594 305.441406 L 73.195312 304.976562 L 73.585938 304.515625 L 73.992188 304.058594 L 74.398438 303.605469 L 74.8125 303.160156 L 75.234375 302.714844 L 75.664062 302.277344 L 76.097656 301.84375 L 76.539062 301.417969 L 76.988281 300.992188 L 77.441406 300.574219 L 77.90625 300.160156 L 78.375 299.753906 L 78.84375 299.351562 L 79.324219 298.957031 L 79.808594 298.5625 L 80.296875 298.179688 L 80.308594 298.171875 L 80.34375 298.152344 L 80.382812 298.144531 L 80.421875 298.140625 L 80.460938 298.148438 L 80.496094 298.164062 L 80.527344 298.183594 L 80.554688 298.210938 L 80.578125 298.246094 L 83.582031 304.136719 L 83.605469 304.191406 L 83.617188 304.253906 L 83.621094 304.308594 L 83.613281 304.371094 L 83.597656 304.429688 L 83.570312 304.484375 L 83.535156 304.527344 L 83.492188 304.570312 L 82.703125 305.234375 L 81.933594 305.921875 L 81.179688 306.621094 L 80.453125 307.351562 L 79.746094 308.089844 L 79.058594 308.847656 L 78.402344 309.617188 L 77.761719 310.410156 L 77.148438 311.214844 L 76.566406 312.027344 L 76.011719 312.855469 L 75.480469 313.6875 L 74.984375 314.535156 L 74.515625 315.382812 L 74.074219 316.246094 L 73.664062 317.117188 L 73.289062 317.984375 L 72.945312 318.855469 L 72.777344 319.292969 L 72.625 319.734375 L 72.480469 320.171875 L 72.339844 320.613281 L 72.210938 321.054688 L 72.089844 321.5 L 71.976562 321.933594 L 71.871094 322.378906 L 71.769531 322.820312 L 71.683594 323.265625 L 71.601562 323.707031 L 71.523438 324.152344 L 71.460938 324.589844 L 71.402344 325.03125 L 71.351562 325.472656 L 71.308594 325.914062 L 71.277344 326.355469 L 71.253906 326.796875 L 71.234375 327.238281 L 71.226562 327.675781 L 71.226562 328.113281 L 71.230469 328.550781 L 71.246094 328.988281 L 71.269531 329.421875 L 71.296875 329.859375 L 71.339844 330.296875 L 71.386719 330.726562 L 71.445312 331.160156 L 71.511719 331.628906 L 71.589844 332.097656 L 71.679688 332.5625 L 71.777344 333.023438 L 71.785156 333.082031 L 71.789062 333.140625 L 71.78125 333.199219 L 71.769531 333.253906 L 71.746094 333.3125 L 71.71875 333.363281 L 71.6875 333.40625 L 71.644531 333.449219 L 70.980469 334.058594 L 70.320312 334.679688 L 69.667969 335.3125 L 69.019531 335.957031 L 68.378906 336.613281 L 67.746094 337.28125 L 67.121094 337.953125 L 66.5 338.644531 L 66.488281 338.65625 L 66.445312 338.683594 L 66.386719 338.691406 L 66.328125 338.671875 L 66.285156 338.632812 L 66.164062 338.484375 L 66.113281 338.421875 Z M 66.066406 338.328125 " fill-opacity="1" fill-rule="nonzero"/><path fill="#000000" d="M 223.082031 320.386719 L 225.671875 318.699219 L 228.246094 316.996094 L 230.796875 315.269531 L 233.332031 313.515625 L 235.777344 311.800781 L 238.207031 310.054688 L 240.628906 308.292969 L 243.039062 306.503906 L 243.066406 306.488281 L 243.117188 306.464844 L 243.175781 306.449219 L 243.226562 306.449219 L 243.285156 306.460938 L 243.339844 306.484375 L 243.386719 306.519531 L 243.421875 306.558594 L 243.449219 306.609375 L 246.070312 312.546875 L 246.097656 312.621094 L 246.113281 312.691406 L 246.117188 312.753906 L 246.105469 312.820312 L 246.082031 312.882812 L 246.046875 312.9375 L 246 312.992188 L 245.9375 313.046875 L 243.480469 314.863281 L 241.007812 316.660156 L 238.511719 318.429688 L 236 320.179688 L 233.46875 321.90625 L 230.917969 323.609375 L 228.351562 325.289062 L 225.765625 326.945312 L 225.746094 326.957031 L 225.695312 326.976562 L 225.644531 326.984375 L 225.59375 326.980469 L 225.542969 326.96875 L 225.496094 326.945312 L 225.457031 326.910156 L 225.421875 326.871094 L 225.398438 326.828125 L 222.964844 320.753906 L 222.949219 320.703125 L 222.941406 320.652344 L 222.945312 320.601562 L 222.957031 320.546875 L 222.976562 320.5 L 223.003906 320.457031 L 223.039062 320.417969 Z M 223.082031 320.386719 " fill-opacity="1" fill-rule="nonzero"/><path fill="#000000" d="M 139.191406 309.0625 L 139.53125 309.839844 L 139.851562 310.621094 L 140.15625 311.40625 L 140.4375 312.195312 L 140.703125 312.988281 L 140.953125 313.785156 L 141.183594 314.589844 L 141.394531 315.394531 L 141.550781 316.042969 L 141.691406 316.6875 L 141.828125 317.339844 L 141.949219 317.992188 L 142.058594 318.648438 L 142.160156 319.304688 L 142.246094 319.96875 L 142.320312 320.632812 L 142.386719 321.300781 L 142.441406 321.96875 L 142.480469 322.644531 L 142.511719 323.320312 L 142.535156 324 L 142.542969 324.683594 L 142.539062 325.371094 L 142.523438 326.054688 L 142.496094 326.746094 L 142.464844 327.441406 L 142.414062 328.136719 L 142.355469 328.835938 L 142.28125 329.539062 L 142.203125 330.246094 L 142.105469 330.957031 L 142.003906 331.667969 L 141.882812 332.382812 L 141.757812 333.101562 L 141.621094 333.820312 L 141.46875 334.546875 L 141.304688 335.273438 L 141.132812 336.007812 L 140.949219 336.738281 L 140.753906 337.476562 L 140.722656 337.539062 L 140.671875 337.589844 L 140.605469 337.625 L 140.535156 337.632812 L 139.738281 337.597656 L 138.921875 337.578125 L 138.089844 337.570312 L 137.242188 337.578125 L 136.375 337.597656 L 135.488281 337.632812 L 134.585938 337.683594 L 133.667969 337.742188 L 133.632812 337.742188 L 133.589844 337.730469 L 133.550781 337.714844 L 133.519531 337.691406 L 133.492188 337.65625 L 133.472656 337.621094 L 133.464844 337.578125 L 133.464844 337.535156 L 133.472656 337.492188 L 133.699219 336.738281 L 133.914062 335.992188 L 134.117188 335.242188 L 134.3125 334.503906 L 134.484375 333.769531 L 134.648438 333.035156 L 134.796875 332.304688 L 134.933594 331.578125 L 135.054688 330.859375 L 135.160156 330.140625 L 135.257812 329.425781 L 135.34375 328.71875 L 135.410156 328.011719 L 135.464844 327.3125 L 135.507812 326.613281 L 135.535156 325.921875 L 135.550781 325.234375 L 135.554688 324.550781 L 135.542969 323.871094 L 135.515625 323.191406 L 135.476562 322.523438 L 135.421875 321.851562 L 135.359375 321.1875 L 135.277344 320.523438 L 135.183594 319.871094 L 135.082031 319.21875 L 134.960938 318.574219 L 134.828125 317.925781 L 134.683594 317.289062 L 134.519531 316.652344 L 134.347656 316.019531 L 134.160156 315.390625 L 133.902344 314.59375 L 133.882812 314.511719 L 133.875 314.421875 L 133.875 314.332031 L 133.890625 314.246094 L 133.914062 314.160156 L 133.953125 314.085938 L 134.003906 314.011719 L 134.0625 313.945312 L 134.703125 313.320312 L 135.324219 312.699219 L 135.925781 312.078125 L 136.511719 311.460938 L 137.074219 310.839844 L 137.621094 310.222656 L 138.148438 309.605469 L 138.65625 308.992188 L 138.734375 308.90625 L 138.8125 308.84375 L 138.882812 308.8125 L 138.949219 308.808594 L 139.015625 308.832031 L 139.082031 308.882812 L 139.136719 308.960938 Z M 139.191406 309.0625 " fill-opacity="1" fill-rule="nonzero"/><path fill="#000000" d="M 212.3125 334.941406 L 211.082031 335.625 L 209.847656 336.300781 L 208.609375 336.972656 L 207.367188 337.636719 L 206.121094 338.292969 L 204.871094 338.941406 L 203.621094 339.582031 L 202.367188 340.214844 L 201.109375 340.84375 L 199.847656 341.460938 L 198.589844 342.070312 L 197.324219 342.675781 L 196.066406 343.269531 L 194.800781 343.851562 L 193.539062 344.433594 L 192.273438 345 L 192.253906 345.007812 L 192.183594 345.011719 L 192.117188 344.988281 L 192.070312 344.9375 L 192.042969 344.871094 L 190.976562 338.285156 L 190.96875 338.214844 L 190.976562 338.140625 L 190.992188 338.078125 L 191.023438 338.011719 L 191.058594 337.949219 L 191.105469 337.898438 L 191.160156 337.855469 L 191.222656 337.820312 L 193.683594 336.671875 L 196.125 335.503906 L 198.546875 334.316406 L 200.941406 333.109375 L 203.316406 331.878906 L 205.671875 330.628906 L 208.003906 329.359375 L 210.316406 328.066406 L 210.378906 328.050781 L 210.445312 328.058594 L 210.503906 328.089844 L 210.539062 328.144531 L 210.546875 328.164062 L 210.820312 329.183594 L 211.109375 330.199219 L 211.429688 331.265625 L 211.773438 332.324219 L 212.128906 333.378906 L 212.503906 334.425781 L 212.523438 334.5 L 212.53125 334.574219 L 212.523438 334.644531 L 212.503906 334.71875 L 212.46875 334.789062 L 212.425781 334.84375 L 212.375 334.898438 Z M 212.3125 334.941406 " fill-opacity="1" fill-rule="nonzero"/><path fill="#000000" d="M 177.148438 343.699219 L 177.199219 343.683594 L 177.238281 343.675781 L 177.273438 343.679688 L 177.304688 343.695312 L 177.332031 343.71875 L 177.351562 343.75 L 177.363281 343.792969 L 177.371094 343.84375 L 177.894531 350.640625 L 177.894531 350.691406 L 177.886719 350.738281 L 177.871094 350.785156 L 177.851562 350.824219 L 177.785156 350.894531 L 177.699219 350.945312 L 175.199219 351.855469 L 172.699219 352.734375 L 170.199219 353.578125 L 167.703125 354.394531 L 166.453125 354.789062 L 165.203125 355.175781 L 162.703125 355.925781 L 161.453125 356.289062 L 160.207031 356.640625 L 158.957031 356.988281 L 157.707031 357.328125 L 157.632812 357.34375 L 157.570312 357.34375 L 157.519531 357.335938 L 157.480469 357.308594 L 157.449219 357.273438 L 157.429688 357.222656 L 157.417969 357.164062 L 157.421875 357.085938 L 158.0625 350.21875 L 158.070312 350.171875 L 158.085938 350.121094 L 158.109375 350.070312 L 158.140625 350.027344 L 158.179688 349.992188 L 158.21875 349.960938 L 158.265625 349.9375 L 158.316406 349.917969 L 160.601562 349.265625 L 162.902344 348.574219 L 165.226562 347.851562 L 167.574219 347.09375 L 169.933594 346.300781 L 172.320312 345.46875 L 174.722656 344.601562 Z M 177.148438 343.699219 " fill-opacity="1" fill-rule="nonzero"/><path fill="#000000" d="M 95.171875 360.972656 L 94.433594 360.78125 L 93.699219 360.585938 L 92.976562 360.378906 L 92.253906 360.164062 L 91.546875 359.945312 L 90.839844 359.714844 L 90.144531 359.480469 L 89.457031 359.234375 L 88.773438 358.984375 L 88.097656 358.722656 L 87.433594 358.457031 L 86.777344 358.183594 L 86.125 357.902344 L 85.480469 357.609375 L 84.847656 357.3125 L 84.214844 357.007812 L 83.597656 356.695312 L 82.984375 356.375 L 82.378906 356.046875 L 81.777344 355.710938 L 81.191406 355.367188 L 80.609375 355.019531 L 80.039062 354.664062 L 79.46875 354.296875 L 78.910156 353.921875 L 78.363281 353.542969 L 77.816406 353.152344 L 77.28125 352.757812 L 76.753906 352.355469 L 76.238281 351.945312 L 75.726562 351.527344 L 75.222656 351.101562 L 75.21875 351.097656 L 75.1875 351.0625 L 75.160156 351.023438 L 75.144531 350.980469 L 75.136719 350.933594 L 75.140625 350.882812 L 75.152344 350.835938 L 75.175781 350.796875 L 75.203125 350.757812 L 79.492188 346.09375 L 79.546875 346.046875 L 79.605469 346.007812 L 79.671875 345.980469 L 79.742188 345.96875 L 79.8125 345.96875 L 79.878906 345.984375 L 79.949219 346.011719 L 80.007812 346.050781 L 80.84375 346.707031 L 81.695312 347.332031 L 82.558594 347.941406 L 83.429688 348.523438 L 84.316406 349.082031 L 85.214844 349.613281 L 86.128906 350.125 L 87.050781 350.605469 L 87.835938 351 L 88.632812 351.371094 L 89.4375 351.722656 L 90.25 352.058594 L 91.070312 352.382812 L 91.898438 352.683594 L 92.738281 352.972656 L 93.585938 353.242188 L 95.460938 353.800781 L 97.355469 354.339844 L 97.394531 354.355469 L 97.433594 354.378906 L 97.460938 354.410156 L 97.484375 354.445312 L 97.5 354.484375 L 97.507812 354.519531 L 97.507812 354.5625 L 97.5 354.605469 L 97.5 354.609375 L 95.457031 360.816406 L 95.4375 360.863281 L 95.414062 360.902344 L 95.382812 360.9375 L 95.351562 360.960938 L 95.316406 360.976562 L 95.273438 360.984375 L 95.222656 360.980469 Z M 95.171875 360.972656 " fill-opacity="1" fill-rule="nonzero"/><path fill="#000000" d="M 119.679688 363.3125 L 118.492188 363.34375 L 117.304688 363.367188 L 116.117188 363.375 L 114.933594 363.367188 L 113.75 363.34375 L 112.566406 363.308594 L 111.390625 363.257812 L 110.214844 363.191406 L 110.160156 363.183594 L 110.109375 363.167969 L 110.074219 363.148438 L 110.042969 363.121094 L 110.027344 363.089844 L 110.019531 363.046875 L 110.019531 363 L 110.023438 362.945312 L 111.324219 356.414062 L 111.347656 356.355469 L 111.386719 356.308594 L 111.445312 356.277344 L 111.503906 356.269531 L 113.117188 356.320312 L 114.722656 356.34375 L 116.328125 356.351562 L 117.933594 356.34375 L 119.535156 356.3125 L 121.136719 356.257812 L 122.742188 356.1875 L 124.339844 356.097656 L 124.492188 356.085938 L 124.621094 356.0625 L 124.679688 356.042969 L 124.730469 356.015625 L 124.78125 355.976562 L 124.828125 355.933594 L 124.871094 355.886719 L 124.90625 355.828125 L 127.5 351.34375 L 127.53125 351.296875 L 127.570312 351.253906 L 127.609375 351.21875 L 127.710938 351.171875 L 127.765625 351.15625 L 127.820312 351.152344 L 127.875 351.152344 L 134.839844 351.859375 L 134.878906 351.867188 L 134.910156 351.882812 L 134.941406 351.90625 L 134.980469 351.96875 L 134.988281 352.007812 L 134.988281 352.039062 L 134.980469 352.078125 L 134.96875 352.109375 L 133.425781 354.996094 L 133.410156 355.054688 L 133.421875 355.113281 L 133.460938 355.160156 L 133.515625 355.183594 L 133.558594 355.183594 L 143.503906 353.519531 L 143.542969 353.515625 L 143.585938 353.523438 L 143.628906 353.539062 L 143.664062 353.566406 L 143.695312 353.597656 L 143.71875 353.636719 L 143.730469 353.679688 L 143.734375 353.722656 L 143.730469 353.765625 L 143.53125 354.597656 L 143.34375 355.433594 L 143.171875 356.273438 L 143.011719 357.117188 L 142.863281 357.960938 L 142.726562 358.804688 L 142.601562 359.65625 L 142.488281 360.511719 L 142.476562 360.578125 L 142.457031 360.640625 L 142.429688 360.691406 L 142.390625 360.734375 L 142.347656 360.773438 L 142.296875 360.804688 L 142.242188 360.828125 L 142.175781 360.84375 L 140.996094 361.054688 L 139.8125 361.257812 L 138.632812 361.453125 L 137.449219 361.636719 L 136.261719 361.816406 L 135.078125 361.984375 L 133.890625 362.144531 L 132.699219 362.292969 L 130.867188 362.511719 L 129.035156 362.707031 L 128.914062 362.730469 L 128.816406 362.777344 L 128.726562 362.847656 L 128.652344 362.933594 L 128.007812 363.886719 L 127.355469 364.832031 L 126.695312 365.773438 L 126.027344 366.714844 L 125.351562 367.648438 L 124.671875 368.585938 L 123.980469 369.511719 L 123.28125 370.4375 L 122.578125 371.355469 L 121.863281 372.277344 L 121.140625 373.1875 L 120.414062 374.101562 L 118.9375 375.90625 L 118.1875 376.808594 L 117.425781 377.703125 L 116.660156 378.59375 L 115.886719 379.484375 L 115.105469 380.363281 L 114.316406 381.246094 L 113.523438 382.125 L 112.71875 382.996094 L 111.90625 383.863281 L 111.085938 384.730469 L 110.257812 385.59375 L 109.425781 386.453125 L 108.582031 387.304688 L 107.734375 388.15625 L 106.878906 389.003906 L 106.015625 389.847656 L 105.140625 390.6875 L 104.261719 391.523438 L 104.214844 391.554688 L 104.160156 391.558594 L 104.109375 391.542969 L 104.066406 391.507812 L 104.058594 391.492188 L 103.671875 390.792969 L 103.265625 390.101562 L 102.835938 389.410156 L 102.386719 388.726562 L 101.917969 388.039062 L 101.433594 387.359375 L 100.925781 386.679688 L 100.394531 386.007812 L 100.363281 385.953125 L 100.335938 385.890625 L 100.320312 385.828125 L 100.320312 385.761719 L 100.328125 385.695312 L 100.351562 385.632812 L 100.386719 385.574219 L 100.425781 385.523438 L 101.765625 384.226562 L 103.089844 382.917969 L 104.390625 381.601562 L 105.675781 380.273438 L 106.945312 378.929688 L 108.199219 377.582031 L 109.433594 376.222656 L 110.652344 374.851562 L 111.855469 373.46875 L 113.039062 372.078125 L 114.207031 370.675781 L 115.355469 369.257812 L 116.488281 367.832031 L 117.601562 366.398438 L 118.699219 364.953125 L 119.78125 363.5 L 119.800781 363.464844 L 119.804688 363.40625 L 119.78125 363.355469 L 119.734375 363.320312 Z M 119.679688 363.3125 " fill-opacity="1" fill-rule="nonzero"/><path fill="#000000" d="M 89.757812 395.628906 L 92.785156 401.625 L 92.804688 401.667969 L 92.8125 401.714844 L 92.816406 401.765625 L 92.8125 401.816406 L 92.796875 401.859375 L 92.773438 401.90625 L 92.746094 401.945312 L 92.710938 401.980469 L 91.488281 403.011719 L 90.261719 404.035156 L 89.027344 405.054688 L 87.789062 406.066406 L 86.539062 407.070312 L 85.289062 408.070312 L 84.027344 409.066406 L 82.761719 410.050781 L 81.488281 411.035156 L 80.207031 412.011719 L 78.921875 412.980469 L 77.628906 413.941406 L 76.332031 414.902344 L 75.027344 415.851562 L 73.71875 416.800781 L 72.398438 417.738281 L 72.351562 417.765625 L 72.316406 417.785156 L 72.273438 417.792969 L 72.238281 417.789062 L 72.203125 417.773438 L 72.167969 417.75 L 72.136719 417.710938 L 72.113281 417.664062 L 69.203125 411.773438 L 69.179688 411.710938 L 69.167969 411.65625 L 69.164062 411.601562 L 69.171875 411.546875 L 69.1875 411.5 L 69.214844 411.457031 L 69.253906 411.414062 L 69.304688 411.371094 L 71.699219 409.644531 L 74.066406 407.894531 L 76.417969 406.125 L 78.75 404.324219 L 81.066406 402.507812 L 83.359375 400.664062 L 85.628906 398.796875 L 87.882812 396.914062 L 89.460938 395.566406 L 89.480469 395.550781 L 89.511719 395.53125 L 89.554688 395.523438 L 89.59375 395.519531 L 89.636719 395.527344 L 89.675781 395.542969 L 89.710938 395.5625 L 89.734375 395.59375 Z M 89.757812 395.628906 " fill-opacity="1" fill-rule="nonzero"/><path fill="#000000" d="M 31.015625 434.804688 L 30.996094 434.722656 L 30.988281 434.648438 L 30.996094 434.582031 L 31.015625 434.519531 L 31.046875 434.460938 L 31.085938 434.410156 L 31.144531 434.363281 L 31.214844 434.320312 L 33.535156 433.132812 L 35.847656 431.921875 L 38.144531 430.695312 L 40.433594 429.449219 L 42.710938 428.183594 L 44.976562 426.902344 L 47.230469 425.601562 L 49.476562 424.28125 L 51.390625 423.132812 L 53.296875 421.972656 L 55.195312 420.796875 L 57.085938 419.609375 L 57.097656 419.601562 L 57.144531 419.589844 L 57.195312 419.601562 L 57.234375 419.628906 L 57.253906 419.671875 L 57.535156 420.492188 L 57.824219 421.308594 L 58.113281 422.105469 L 58.417969 422.890625 L 58.722656 423.660156 L 59.042969 424.417969 L 59.363281 425.164062 L 59.695312 425.894531 L 59.714844 425.949219 L 59.722656 426.007812 L 59.722656 426.0625 L 59.710938 426.121094 L 59.6875 426.175781 L 59.65625 426.226562 L 59.617188 426.265625 L 59.570312 426.300781 L 57.976562 427.292969 L 56.375 428.277344 L 54.761719 429.253906 L 53.148438 430.21875 L 51.527344 431.175781 L 49.898438 432.125 L 48.261719 433.0625 L 46.621094 433.996094 L 44.976562 434.914062 L 43.324219 435.828125 L 41.664062 436.730469 L 39.996094 437.625 L 38.324219 438.511719 L 36.644531 439.386719 L 34.960938 440.253906 L 33.269531 441.113281 L 33.257812 441.121094 L 33.21875 441.128906 L 33.179688 441.132812 L 33.144531 441.128906 L 33.105469 441.117188 L 33.042969 441.070312 L 33.019531 441.035156 L 33.003906 441 Z M 31.015625 434.804688 " fill-opacity="1" fill-rule="nonzero"/><g clip-path="url(#ec63439c59)"><path fill="#000000" d="M -4.039062 449.152344 L -3.1875 448.941406 L -2.34375 448.71875 L -1.515625 448.484375 L -0.699219 448.242188 L 0.105469 447.984375 L 0.902344 447.722656 L 1.679688 447.449219 L 2.449219 447.160156 L 4.460938 446.386719 L 6.457031 445.601562 L 8.433594 444.804688 L 10.386719 443.996094 L 12.308594 443.1875 L 14.203125 442.367188 L 16.054688 441.550781 L 17.875 440.726562 L 17.9375 440.714844 L 18.007812 440.726562 L 18.0625 440.769531 L 18.09375 440.824219 L 18.09375 440.847656 L 18.21875 441.628906 L 18.355469 442.417969 L 18.515625 443.21875 L 18.691406 444.023438 L 18.882812 444.835938 L 19.089844 445.652344 L 19.316406 446.480469 L 19.5625 447.316406 L 19.570312 447.371094 L 19.574219 447.433594 L 19.5625 447.492188 L 19.546875 447.542969 L 19.519531 447.597656 L 19.480469 447.644531 L 19.433594 447.679688 L 19.382812 447.710938 L 17.785156 448.417969 L 16.132812 449.140625 L 14.425781 449.863281 L 12.667969 450.601562 L 10.855469 451.34375 L 8.992188 452.09375 L 7.078125 452.855469 L 5.109375 453.621094 L 4.109375 453.996094 L 3.109375 454.347656 L 2.113281 454.683594 L 1.113281 454.996094 L 0.113281 455.289062 L -0.886719 455.554688 L -1.882812 455.804688 L -2.882812 456.03125 L -2.957031 456.039062 L -3.035156 456.03125 L -3.105469 456.011719 L -3.171875 455.972656 L -3.230469 455.929688 L -3.273438 455.871094 L -3.304688 455.800781 L -3.324219 455.734375 L -3.328125 455.714844 L -4.078125 449.203125 L -4.070312 449.171875 Z M -4.039062 449.152344 " fill-opacity="1" fill-rule="nonzero"/></g></g></g></g></svg>